<?xml version="1.0" encoding="UTF-8" standalone="no"?><!DOCTYPE svg PUBLIC "-//W3C//DTD SVG 1.1//EN" "http://www.w3.org/Graphics/SVG/1.1/DTD/svg11.dtd"><svg width="100%" height="100%" viewBox="0 0 250 250" version="1.1" xmlns="http://www.w3.org/2000/svg" xmlns:xlink="http://www.w3.org/1999/xlink" xml:space="preserve" xmlns:serif="http://www.serif.com/" style="fill-rule:evenodd;clip-rule:evenodd;stroke-linejoin:round;stroke-miterlimit:2;"><rect x="-0" y="0" width="250" height="250" style="fill:#3c3c3c;"/><g><path d="M60.37,124.993c3.18,0 6.095,-3.71 6.095,-9.01c0,-2.12 -1.59,-2.915 -3.71,-2.915c-7.95,0 -9.01,-1.855 -9.01,-5.3c0,-4.505 3.71,-15.37 3.71,-21.2c0,-2.12 -1.325,-4.24 -4.24,-4.24c-2.385,0 -4.505,1.59 -7.155,5.83c-6.89,11.13 -19.875,24.91 -33.92,24.91c-2.915,0 -4.505,5.035 -4.505,7.685c0,4.77 7.155,2.65 7.155,6.095c0,13.25 -8.215,26.5 -8.215,43.46c0,14.045 8.215,25.44 27.295,25.44c16.43,0 33.92,-15.105 40.81,-24.115c1.59,-2.12 2.12,-3.975 2.12,-5.3c0,-1.59 -1.325,-3.18 -3.445,-3.18c-1.59,0 -2.915,1.06 -4.77,2.65c-4.24,3.445 -9.54,8.48 -14.84,8.48c-6.36,0 -10.335,-2.915 -10.335,-10.865c0,-8.745 3.445,-22.26 5.565,-29.945c1.855,-6.36 4.77,-8.48 11.395,-8.48Z" style="fill:#b64237;fill-rule:nonzero;"/><path d="M150.735,174.283c-11.13,0 -20.14,-10.865 -23.055,-20.14c19.61,-10.865 31.005,-25.175 31.005,-36.305c0,-3.975 -2.385,-6.095 -7.685,-6.095c-12.19,0 -28.62,8.48 -28.62,14.045c0,2.65 1.855,3.18 1.855,6.095c0,6.36 -7.95,15.37 -15.9,15.37c0,-10.6 18.815,-68.635 18.815,-85.33c0,-13.25 -8.48,-20.67 -22.525,-20.67c-15.105,0 -29.15,8.745 -29.15,14.31c0,2.12 1.59,3.18 3.975,3.18c5.565,0 10.07,4.24 10.07,12.985c0,39.485 -23.32,95.135 -23.32,118.19c0,4.505 1.855,5.83 5.035,5.83c4.24,0 14.84,-1.325 22.79,-1.325c3.975,0 5.565,-1.06 5.565,-5.565c0,-5.035 6.36,-28.355 6.36,-28.355c2.65,0 4.24,35.245 27.295,35.245c15.105,0 26.5,-10.07 32.33,-17.49c2.65,-3.445 4.24,-5.565 4.24,-8.48c0,-1.59 -1.325,-3.71 -3.71,-3.71c-1.59,0 -2.65,0.795 -4.505,2.65c-3.445,3.445 -6.095,5.565 -10.865,5.565Z" style="fill:#b64237;fill-rule:nonzero;"/><path d="M205.06,147.518c3.975,-7.42 7.42,-10.865 9.01,-11.395c0,4.77 3.71,10.07 11.13,10.07c10.865,0 17.225,-11.13 17.225,-20.935c0,-7.95 -4.77,-12.455 -12.19,-12.455c-14.31,0 -21.73,12.985 -23.32,16.165c0.53,-1.855 1.59,-6.89 1.59,-10.335c0,-4.505 -3.18,-6.89 -9.01,-6.89c-15.37,0 -29.68,3.975 -29.68,9.805c0,3.445 1.855,3.975 1.855,8.48c0,14.31 -11.13,50.085 -11.13,59.89c0,4.505 2.12,5.83 5.565,5.83c3.975,0 14.31,-1.325 22.26,-1.325c3.975,0 5.83,-1.06 5.83,-5.565c0,-10.335 6.095,-32.33 10.865,-41.34Z" style="fill:#b64237;fill-rule:nonzero;"/></g></svg>