<?xml version="1.0" encoding="UTF-8" standalone="no"?>
<!DOCTYPE svg PUBLIC "-//W3C//DTD SVG 1.1//EN" "http://www.w3.org/Graphics/SVG/1.1/DTD/svg11.dtd">
<svg width="100%" height="100%" viewBox="0 0 500 500" version="1.1" xmlns="http://www.w3.org/2000/svg" xmlns:xlink="http://www.w3.org/1999/xlink" xml:space="preserve" xmlns:serif="http://www.serif.com/" style="fill-rule:evenodd;clip-rule:evenodd;stroke-linejoin:round;stroke-miterlimit:2;">
    <g transform="matrix(9.090909,0,0,9.803922,-127.272727,-127.45098)">
        <rect x="14" y="13" width="55" height="51" style="fill:rgb(60,60,60);"/>
    </g>
    <g transform="matrix(0.970629,0,0,0.970629,-66.289471,167.993093)">
        <path d="M221.669,185.704C205.803,200.321 182.401,215.447 160.06,215.447C124.829,215.447 109.66,194.406 109.66,168.472C109.66,137.156 124.829,112.69 124.829,88.225C124.829,81.863 111.618,85.778 111.618,76.97C111.618,72.077 114.553,62.78 119.936,62.78C145.87,62.78 169.846,37.336 182.568,16.785C187.461,8.955 191.376,6.02 195.78,6.02C201.162,6.02 203.609,9.934 203.609,13.849C203.609,24.614 196.758,44.676 196.758,52.994C196.758,59.355 198.716,62.78 213.395,62.78C217.31,62.78 220.246,64.248 220.246,68.163C220.246,77.949 214.863,84.799 208.991,84.799C196.758,84.799 191.376,88.714 187.951,100.457C184.036,114.648 177.675,139.603 177.675,155.75C177.675,170.43 185.015,175.812 196.758,175.812C206.545,175.812 216.331,166.515 224.16,160.154C225.527,158.982 226.738,157.966 227.887,157.169C240.366,107.295 262.816,39.09 262.816,-13.553C262.816,-29.7 254.498,-37.529 244.222,-37.529C239.818,-37.529 236.882,-39.487 236.882,-43.401C236.882,-53.677 262.816,-69.824 290.707,-69.824C316.641,-69.824 332.299,-56.123 332.299,-31.658C332.299,-0.831 297.557,106.329 297.557,125.902C312.237,125.902 326.916,109.265 326.916,97.522C326.916,92.139 323.491,91.16 323.491,86.267C323.491,75.992 353.829,60.334 376.337,60.334C386.123,60.334 390.527,64.248 390.527,71.588C390.527,92.139 369.487,118.562 333.277,138.624C338.66,155.75 355.297,175.812 375.848,175.812C384.655,175.812 389.549,171.898 395.91,165.536C398.522,162.925 400.28,161.451 402.269,160.898C407.969,136.498 414.504,108.996 414.504,94.096C414.504,85.778 411.079,84.799 411.079,78.438C411.079,67.673 437.502,60.334 465.882,60.334C476.647,60.334 482.519,64.737 482.519,73.056C482.519,79.417 480.561,88.714 479.583,92.139C482.519,86.267 496.219,62.291 522.642,62.291C536.343,62.291 545.151,70.609 545.151,85.289C545.151,103.393 533.407,123.945 513.345,123.945C499.645,123.945 492.794,114.158 492.794,105.351C489.858,106.329 483.497,112.69 476.157,126.391C467.35,143.028 456.096,183.641 456.096,202.724C456.096,211.043 452.67,213 445.331,213C430.651,213 411.568,215.447 404.228,215.447C397.867,215.447 393.952,213 393.952,204.682C393.952,201.628 394.537,197.209 395.51,191.847C383.718,203.597 365.818,215.447 343.553,215.447C300.983,215.447 298.047,150.368 293.154,150.368C293.154,150.368 281.41,193.427 281.41,202.724C281.41,211.043 278.474,213 271.134,213C256.455,213 236.882,215.447 229.053,215.447C223.181,215.447 219.756,213 219.756,204.682C219.756,199.267 220.453,192.88 221.669,185.704Z" style="fill:none;stroke:rgb(189,189,189);stroke-width:65.94px;"/>
        <path d="M221.669,185.704C205.803,200.321 182.401,215.447 160.06,215.447C124.829,215.447 109.66,194.406 109.66,168.472C109.66,137.156 124.829,112.69 124.829,88.225C124.829,81.863 111.618,85.778 111.618,76.97C111.618,72.077 114.553,62.78 119.936,62.78C145.87,62.78 169.846,37.336 182.568,16.785C187.461,8.955 191.376,6.02 195.78,6.02C201.162,6.02 203.609,9.934 203.609,13.849C203.609,24.614 196.758,44.676 196.758,52.994C196.758,59.355 198.716,62.78 213.395,62.78C217.31,62.78 220.246,64.248 220.246,68.163C220.246,77.949 214.863,84.799 208.991,84.799C196.758,84.799 191.376,88.714 187.951,100.457C184.036,114.648 177.675,139.603 177.675,155.75C177.675,170.43 185.015,175.812 196.758,175.812C206.545,175.812 216.331,166.515 224.16,160.154C225.527,158.982 226.738,157.966 227.887,157.169C240.366,107.295 262.816,39.09 262.816,-13.553C262.816,-29.7 254.498,-37.529 244.222,-37.529C239.818,-37.529 236.882,-39.487 236.882,-43.401C236.882,-53.677 262.816,-69.824 290.707,-69.824C316.641,-69.824 332.299,-56.123 332.299,-31.658C332.299,-0.831 297.557,106.329 297.557,125.902C312.237,125.902 326.916,109.265 326.916,97.522C326.916,92.139 323.491,91.16 323.491,86.267C323.491,75.992 353.829,60.334 376.337,60.334C386.123,60.334 390.527,64.248 390.527,71.588C390.527,92.139 369.487,118.562 333.277,138.624C338.66,155.75 355.297,175.812 375.848,175.812C384.655,175.812 389.549,171.898 395.91,165.536C398.522,162.925 400.28,161.451 402.269,160.898C407.969,136.498 414.504,108.996 414.504,94.096C414.504,85.778 411.079,84.799 411.079,78.438C411.079,67.673 437.502,60.334 465.882,60.334C476.647,60.334 482.519,64.737 482.519,73.056C482.519,79.417 480.561,88.714 479.583,92.139C482.519,86.267 496.219,62.291 522.642,62.291C536.343,62.291 545.151,70.609 545.151,85.289C545.151,103.393 533.407,123.945 513.345,123.945C499.645,123.945 492.794,114.158 492.794,105.351C489.858,106.329 483.497,112.69 476.157,126.391C467.35,143.028 456.096,183.641 456.096,202.724C456.096,211.043 452.67,213 445.331,213C430.651,213 411.568,215.447 404.228,215.447C397.867,215.447 393.952,213 393.952,204.682C393.952,201.628 394.537,197.209 395.51,191.847C383.718,203.597 365.818,215.447 343.553,215.447C300.983,215.447 298.047,150.368 293.154,150.368C293.154,150.368 281.41,193.427 281.41,202.724C281.41,211.043 278.474,213 271.134,213C256.455,213 236.882,215.447 229.053,215.447C223.181,215.447 219.756,213 219.756,204.682C219.756,199.267 220.453,192.88 221.669,185.704Z" style="fill:rgb(182,66,55);"/>
    </g>
</svg>
