<svg width="110" height="26" viewBox="0 0 110 26" fill="none" xmlns="http://www.w3.org/2000/svg">
<mask id="mask0_76_149" style="mask-type:luminance" maskUnits="userSpaceOnUse" x="0" y="1" width="19" height="24">
<path d="M0 1.23026C0 1.23026 2.87565 3.07041 4.4978 6.11873C5.53009 8.05182 5.76972 9.78044 5.93563 10.3381C9.14308 10.3938 10.5072 11.8622 12.3505 15.208C12.7561 15.9329 13.18 16.6949 13.5856 17.4013C12.9957 16.4905 12.3321 15.4868 11.7422 14.6875C10.415 12.8659 8.70067 11.1559 6.06466 11.1001C5.45635 11.0816 5.27202 11.0816 5.03238 11.0816C4.79274 11.0816 4.47937 11.0816 3.52082 11.063C6.3596 12.6615 6.5808 16.6206 8.3873 19.1856C10.0463 21.5462 11.5026 23.5165 15.7054 24.3343C16.2953 24.4459 17.6963 24.6689 18.3415 24.6317C17.4751 23.8882 16.793 22.8474 16.0188 21.5277C15.2077 19.9849 14.5441 18.3492 14.028 16.6764C13.2538 14.1299 12.4611 10.9886 12.0556 9.31576C11.2629 5.93286 9.91729 2.82877 5.95406 1.62059C4.75587 1.26743 2.47011 1.21167 1.10602 1.21167C0.442407 1.21167 0 1.23026 0 1.23026Z" fill="white"/>
</mask>
<g mask="url(#mask0_76_149)">
<path d="M-4.73743 23.6653L0.847961 -2.59863L23.1895 2.23408L17.6041 28.498L-4.73743 23.6653Z" fill="url(#paint0_linear_76_149)"/>
</g>
<path d="M19.8902 1.23022L15.4658 18.3678C16.3691 20.654 17.2171 22.5499 18.5813 23.8139L23.4481 5.04063L23.4849 4.89193C23.5402 4.66889 23.5587 4.44584 23.5587 4.22279C23.5402 2.41982 21.9548 1.2674 19.8902 1.23022Z" fill="white"/>
<path d="M3.35511 11.7878L0.0921631 24.3343H4.62711L6.48901 17.0852C5.64102 14.6875 4.79302 12.8287 3.35511 11.7878Z" fill="white"/>
<path d="M37.0331 24.3344H33.8994C33.328 24.3344 32.9962 24.1857 32.9409 23.8698C32.8671 23.5538 32.9224 23.1077 33.0699 22.5129C32.4247 23.1263 31.7058 23.6095 30.8947 23.9813C29.9731 24.4274 28.8302 24.6504 27.4477 24.6504C25.8255 24.6504 24.701 24.3158 24.0743 23.6653C23.466 23.0147 23.1711 22.1597 23.2264 21.1002C23.2632 20.524 23.337 19.9478 23.4476 19.3716C23.5766 18.7582 23.7056 18.1448 23.8715 17.55L26.3416 7.97756C26.526 7.94038 26.7287 7.90321 26.9131 7.88462C27.2633 7.84744 27.6136 7.82886 27.9638 7.82886C28.3325 7.82886 28.6827 7.86603 29.0329 7.94038C29.3648 7.99614 29.6597 8.14484 29.9362 8.3493C30.1943 8.55376 30.3786 8.85116 30.4523 9.18573C30.5445 9.65042 30.5076 10.1337 30.3602 10.5798L28.609 17.3456C28.4799 17.8846 28.3693 18.3493 28.2956 18.7768C28.2219 19.1486 28.2219 19.5203 28.2772 19.8735C28.3509 20.1895 28.5352 20.4497 28.8117 20.5984C29.1067 20.7657 29.5491 20.8586 30.139 20.8586C30.95 20.8772 31.7427 20.6913 32.4616 20.3382C33.1621 19.985 33.5861 19.5389 33.7151 19.0184L36.5539 7.99614C36.7382 7.95897 36.941 7.92179 37.1253 7.90321C37.4755 7.86603 37.8258 7.84744 38.176 7.84744C38.5447 7.84744 38.8949 7.88462 39.2452 7.97756C39.577 8.05191 39.8719 8.2006 40.13 8.42365C40.3881 8.66529 40.554 8.98127 40.6277 9.31585C40.7014 9.79912 40.683 10.2824 40.5355 10.7471L37.0331 24.3344Z" fill="white"/>
<path d="M41.7706 21.8437C41.7337 21.3604 41.7522 20.8772 41.8443 20.3939C41.9365 19.892 42.0287 19.3716 42.1762 18.8697L46.3056 2.84743L46.8402 2.77308C47.0061 2.75449 47.1904 2.73591 47.3748 2.71732C47.5591 2.69873 47.7435 2.69873 47.9278 2.69873C48.2965 2.69873 48.6468 2.73591 48.997 2.81025C49.3288 2.86602 49.6238 3.01472 49.8819 3.21918C50.14 3.44223 50.3059 3.73962 50.3796 4.0742C50.4718 4.53888 50.4349 5.02215 50.2874 5.46825L49.6607 7.8846L54.4906 7.90319L53.5873 11.4348L48.7574 11.4162L46.8586 18.7954C46.4346 20.4125 46.8955 21.2117 48.2043 21.2117C48.5362 21.2117 48.8495 21.156 49.1629 21.063C49.4579 20.9701 49.7528 20.8586 50.0478 20.7285C50.2875 20.6169 50.5271 20.4868 50.7483 20.3381C50.9511 20.208 51.0801 20.0965 51.1723 20.0222C51.3567 20.4497 51.5041 20.8958 51.6332 21.3419C51.7254 21.6764 51.7254 22.0296 51.6332 22.3827C51.5226 22.7359 51.3198 23.0333 51.0433 23.2564C50.6746 23.5723 50.269 23.8511 49.8266 24.0556C49.2735 24.3158 48.6836 24.5203 48.0937 24.6318C47.4116 24.7805 46.7111 24.8549 46.0106 24.8549C44.5727 24.8549 43.5219 24.5761 42.8767 24.0184C42.213 23.4794 41.8075 22.6987 41.7706 21.8437Z" fill="white"/>
<path d="M61.6425 9.66898C61.8822 9.42734 62.1218 9.1857 62.3799 8.98124C63.0436 8.44221 63.7994 8.03329 64.629 7.77306C65.0714 7.64295 65.5138 7.5686 65.9747 7.5686C66.2697 7.5686 66.5462 7.58719 66.8411 7.64295C67.1177 7.68013 67.3942 7.77307 67.6338 7.90318C68.1316 8.14481 68.3528 8.72102 68.1684 9.24147C67.9841 9.85485 67.7076 10.4311 67.3389 10.9701C66.9702 11.5463 66.5646 12.1225 66.1406 12.6615C65.8641 12.3641 65.5323 12.1039 65.1636 11.918C64.758 11.7322 64.2971 11.6392 63.8547 11.6578C63.1542 11.6578 62.4721 11.8623 61.9006 12.2712C61.366 12.6058 60.9789 13.1448 60.7945 13.7582L58.0478 24.3716H53.3654L57.5869 8.03329L58.0109 7.95894C58.1584 7.94035 58.3243 7.92176 58.5086 7.90318C58.693 7.88459 58.9142 7.88459 59.1723 7.88459C59.7991 7.866 60.4259 8.0147 60.9789 8.3121C61.4398 8.6095 61.6979 9.12994 61.6425 9.66898Z" fill="white"/>
<path d="M71.0987 24.6132C70.8959 24.6689 70.6747 24.7061 70.4535 24.7247C70.1217 24.7433 69.7714 24.7619 69.4212 24.7619C68.5179 24.7619 67.8542 24.576 67.3749 24.1857C66.914 23.7953 66.8219 23.0332 67.1168 21.8808L70.6932 8.07042C70.8775 8.03324 71.0803 7.99607 71.2646 7.97748C71.6149 7.94031 71.9651 7.92172 72.3154 7.92172C72.6841 7.92172 73.0344 7.95889 73.3846 8.03324C73.7164 8.08901 74.0114 8.2377 74.2879 8.44217C74.546 8.64663 74.7304 8.94402 74.8041 9.2786C74.8963 9.74328 74.8594 10.2266 74.7119 10.6726L71.0987 24.6132ZM76.8319 2.54997C76.6476 3.27488 76.2236 3.90685 75.6337 4.33436C75.0806 4.78046 74.3985 5.02209 73.6796 5.02209C72.9606 5.02209 72.426 4.79904 72.0573 4.33436C71.6886 3.86967 71.6149 3.27488 71.7992 2.53138C71.9836 1.80648 72.4076 1.17451 72.9975 0.709823C73.5505 0.263727 74.2511 0.0035035 74.97 0.0035035C75.5784 -0.0336712 76.1683 0.226552 76.5554 0.709823C76.9241 1.21168 77.0163 1.80648 76.8319 2.54997Z" fill="white"/>
<path d="M83.7444 21.509C84.279 21.509 84.7952 21.4532 85.3114 21.3231C85.7538 21.2116 86.1778 21.0443 86.6018 20.8584C86.9705 20.6911 87.3208 20.4867 87.6526 20.2636C87.966 20.0406 88.2425 19.8361 88.5006 19.6688C88.7218 20.0964 88.8877 20.5425 89.0168 21.0071C89.1643 21.4346 89.2011 21.8993 89.1274 22.3454C88.9983 22.8473 88.5928 23.312 87.9107 23.7209C87.1917 24.1484 86.4175 24.4644 85.6063 24.6688C84.5556 24.9477 83.4679 25.0778 82.3803 25.0592C81.3479 25.0592 80.2972 24.9291 79.3017 24.6317C78.3799 24.39 77.5319 23.8696 76.8867 23.1819C76.2415 22.4941 75.8359 21.5648 75.6147 20.3938C75.412 19.2227 75.541 17.7543 76.0019 15.9885C76.3337 14.6503 76.8867 13.3863 77.6426 12.2339C78.3246 11.2302 79.1542 10.3566 80.1128 9.63167C80.9977 8.96253 81.9931 8.46067 83.0439 8.12609C84.021 7.81011 85.0349 7.66141 86.0672 7.64282C87.3576 7.64282 88.39 7.84728 89.1827 8.25621C89.9201 8.60936 90.5284 9.18557 90.9524 9.89189C91.3395 10.5982 91.5608 11.4161 91.5792 12.2339C91.5976 13.1633 91.487 14.0926 91.2474 15.0034L91.1183 15.4867C91.063 15.6726 91.0077 15.8584 90.9524 16.0815L90.7681 16.6949C90.7128 16.8622 90.6575 17.0109 90.6022 17.1596L80.4815 17.141C80.2418 18.4049 80.3709 19.4644 80.8318 20.3008C81.2742 21.0629 82.2512 21.4904 83.7444 21.509ZM87.0996 14.483C87.3761 13.3863 87.413 12.4755 87.1549 11.7878C86.9152 11.1001 86.2331 10.7469 85.127 10.7469C84.1869 10.7283 83.2836 11.0815 82.6015 11.732C81.8825 12.3826 81.3664 13.2934 81.0714 14.483H87.0996Z" fill="white"/>
<path d="M96.6106 24.483L91.8916 24.4644L96.1129 8.12613L96.5369 8.05178C96.6843 8.03319 96.8503 8.0146 97.0346 7.99601C97.2189 7.97743 97.4401 7.97743 97.6982 7.97743C98.3249 7.95884 98.9517 8.08895 99.5047 8.36776C99.984 8.62799 100.187 9.09267 100.15 9.76181C100.795 9.14843 101.514 8.66516 102.325 8.29341C103.247 7.84732 104.39 7.62427 105.772 7.62427C107.394 7.62427 108.519 7.95884 109.145 8.6094C109.754 9.25996 110.049 10.115 109.993 11.1745C109.957 11.7507 109.883 12.3269 109.772 12.9031C109.643 13.5165 109.514 14.1298 109.348 14.7246L106.841 24.4644L102.159 24.4458L104.611 14.9105C104.74 14.4087 104.85 13.9254 104.924 13.4979C104.998 13.1261 104.998 12.7544 104.943 12.3826C104.869 12.0666 104.685 11.8064 104.408 11.6577C104.113 11.4904 103.671 11.3975 103.081 11.3975C102.27 11.3789 101.477 11.5648 100.758 11.9179C100.058 12.2711 99.6337 12.7172 99.5047 13.2376L96.6106 24.483Z" fill="white"/>
<defs>
<linearGradient id="paint0_linear_76_149" x1="7.18717" y1="22.5302" x2="11.4564" y2="2.7717" gradientUnits="userSpaceOnUse">
<stop stop-color="white"/>
</linearGradient>
</defs>
</svg>
