<svg width="110" height="36" viewBox="0 0 110 36" fill="none" xmlns="http://www.w3.org/2000/svg">
<mask id="mask0_76_56" style="mask-type:luminance" maskUnits="userSpaceOnUse" x="0" y="0" width="110" height="36">
<path d="M0 0.00012207H110V35.145H0V0.00012207Z" fill="white"/>
</mask>
<g mask="url(#mask0_76_56)">
<path d="M34.2973 10.3969C32.8864 10.3969 30.6749 10.7555 29.0115 11.73V5.41036C29.0115 4.79301 28.6292 4.50094 28.0009 4.50094H24.2604C23.6321 4.50094 23.2335 4.79301 23.2335 5.41036V26.7532C23.2335 27.3591 23.596 27.6555 24.2604 27.6555H27.9877C28.6685 27.6555 29.0115 27.3403 29.0115 26.7532V16.4057C29.0115 15.1897 30.7357 14.4221 32.5846 14.4221C33.7444 14.4221 34.5991 14.6504 35.1159 15.0987C35.5703 15.4919 35.7868 16.0832 35.7852 16.8567V26.7532C35.7852 27.3591 36.1478 27.6555 36.8106 27.6555H40.5379C41.2187 27.6555 41.5633 27.3403 41.5633 26.7532V16.8842C41.5731 12.343 38.4478 10.3969 34.2973 10.3969Z" fill="white"/>
<path d="M12.9127 13.788C8.68333 12.5982 8.01398 11.8752 8.01398 10.6492C8.01398 9.42892 9.36094 8.7942 11.6511 8.7942C13.8051 8.7942 16.7302 9.41015 17.7145 9.59955C18.4725 9.74565 18.8333 9.37695 18.8333 8.86943V6.61254C18.8351 6.13976 18.6496 5.70746 17.8458 5.4703C16.0445 4.9412 13.8265 4.60864 10.9784 4.64338C6.65399 4.69535 2.11799 6.33644 2.11799 11.0295C2.11799 14.5211 4.53612 16.5076 9.79074 17.9418C13.5886 18.9784 14.832 19.9631 14.8289 21.3119C14.8255 22.7303 13.418 23.5212 10.2976 23.5212C7.0412 23.5212 3.99632 22.408 2.76763 22.1419C2.00148 21.9741 1.61761 22.2893 1.61761 22.8229V25.408C1.61761 26.1221 2.2016 26.4186 2.784 26.618C2.92515 26.6658 6.19478 27.8398 10.3059 27.8398H10.3568H10.3584C17.3077 27.8296 20.6789 25.2893 20.6986 21.0532C20.7199 16.4267 17.329 15.0271 12.9127 13.788Z" fill="white"/>
<path d="M97.4811 1.73538C97.2202 1.61393 96.8445 1.45493 96.5131 1.45493C95.9602 1.45493 95.6584 1.75569 95.6584 2.30496V5.69106C95.6584 6.1263 95.8242 6.38363 96.1456 6.5918C96.1456 6.5918 96.2425 6.6554 96.431 6.76382C100.56 9.18265 103.028 12.9345 103.028 17.5713C103.028 22.2109 100.56 25.9641 96.431 28.38C96.2425 28.4914 96.1456 28.5536 96.1456 28.5536C95.8242 28.7617 95.6584 29.0206 95.6584 29.4529V32.8404C95.6584 33.3898 95.9602 33.6904 96.5131 33.6904C96.8445 33.6904 97.2202 33.5328 97.4811 33.41C103.838 30.4577 108.364 24.673 108.382 17.5713C108.364 10.4724 103.838 4.68764 97.4811 1.73538Z" fill="white"/>
<path d="M56.1338 23.9434C55.8205 24.0243 54.3637 24.3699 52.7838 24.3699C50.5758 24.3699 49.4897 23.5819 49.4897 22.4079C49.4897 21.221 50.4396 20.2841 53.2628 20.2841C54.4326 20.2841 55.4972 20.4676 56.1338 20.6888V23.9434ZM52.7609 10.3904C50.7627 10.3904 48.6021 10.6825 47.0502 11.0988C46.4629 11.2607 46.0757 11.5876 46.0757 12.2237V14.2363C46.0674 14.7047 46.417 15.0892 47.37 14.8984C48.4873 14.6715 50.4985 14.2999 52.3687 14.2999C54.8247 14.2999 56.1338 15.309 56.1338 16.8618V17.4417C54.9264 17.1915 53.7435 17.0295 52.3147 17.0295C47.2028 17.0295 44.0233 19.0623 44.0233 22.7347C44.0233 25.8865 46.7318 28.1506 52.1523 28.1506H52.208C52.6771 28.1477 52.8413 28.1463 53.235 28.1463C56.1601 28.1463 59.5429 27.3771 60.4977 27.1458C60.8701 27.0562 61.5623 26.8855 61.5623 26.1554V17.7235C61.5738 14.9504 61.0095 13.4135 59.6462 12.2381C58.3337 11.1061 56.0715 10.3904 52.7609 10.3904Z" fill="white"/>
<path d="M90.5848 10.9086H87.2331C86.5507 10.9086 86.2045 11.2267 86.2045 11.8151V21.6075C86.2045 22.7005 85.481 23.8051 83.4205 23.8051C82.0556 23.8051 80.7776 23.2557 80.7776 22.1815V11.8151C80.7776 11.2078 80.4166 10.9086 79.7522 10.9086H76.4006C75.7198 10.9086 75.3753 11.2267 75.3753 11.8151V22.1815C75.3753 23.3382 74.0465 23.8051 72.6175 23.8051C70.5734 23.8051 69.9598 22.744 69.9598 21.6075V11.8151C69.9598 11.2078 69.6022 10.9086 68.9362 10.9086H65.5845C64.9038 10.9086 64.5576 11.2267 64.5576 11.8151V21.9848C64.5576 25.8264 67.7075 27.9373 72.2731 27.9373C75.162 27.9373 77.0831 27.0105 78.0724 26.37C79.0797 27.0148 80.8892 27.9561 83.6403 27.9561C88.2092 27.9561 91.6117 26.2891 91.6117 21.9848V11.8151C91.6117 11.2078 91.2492 10.9086 90.5848 10.9086Z" fill="white"/>
</g>
</svg>
