<svg width="110" height="58" viewBox="0 0 110 58" fill="none" xmlns="http://www.w3.org/2000/svg">
<path d="M75.7875 29.7772C77.2034 29.5656 78.5935 29.3541 80.0094 29.0896C79.5975 30.2532 79.0826 31.4168 78.4648 32.5804C77.1519 32.9506 75.8133 33.2679 74.5004 33.5588C74.9895 32.2895 75.4271 31.0201 75.7875 29.7772Z" fill="white"/>
<path d="M70.536 30.4383C71.9518 30.2797 73.342 30.0945 74.7578 29.9094C74.4232 31.2052 74.0113 32.4746 73.5222 33.7704C72.2093 34.0613 70.8706 34.3258 69.5577 34.5373C69.9439 33.1886 70.2785 31.8135 70.536 30.4383Z" fill="white"/>
<path d="M65.3101 30.9409C66.726 30.8351 68.1161 30.7029 69.532 30.5442C69.2746 31.9193 68.9656 33.3209 68.6052 34.6961C67.2923 34.9076 65.9537 35.0928 64.6408 35.2514C64.8982 33.8234 65.1299 32.3953 65.3101 30.9409Z" fill="white"/>
<path d="M60.0585 31.258C61.4744 31.2051 62.8645 31.1258 64.2804 31.02C64.1259 32.4745 63.92 33.929 63.6883 35.3835C62.3754 35.5157 61.0368 35.6479 59.7239 35.7273C59.8526 34.2199 59.9813 32.739 60.0585 31.258Z" fill="white"/>
<path d="M54.807 31.364C56.2228 31.364 57.613 31.3376 59.0288 31.2847C58.9516 32.792 58.8486 34.273 58.7456 35.7803C57.4328 35.8597 56.0941 35.8861 54.7812 35.9126C54.807 34.3787 54.807 32.8714 54.807 31.364Z" fill="white"/>
<path d="M49.5811 31.311C50.997 31.3375 52.3871 31.3639 53.803 31.3639C53.803 32.8713 53.8287 34.3787 53.8287 35.886C52.5158 35.886 51.1772 35.8596 49.8643 35.8067C49.7613 34.3258 49.6583 32.8184 49.5811 31.311Z" fill="white"/>
<path d="M44.3295 31.073C45.7454 31.1523 47.1613 31.2317 48.5514 31.2846C48.6544 32.7919 48.7573 34.2729 48.9118 35.7802C47.5989 35.7009 46.2603 35.5951 44.9474 35.4629C44.7157 34.0084 44.5097 32.5275 44.3295 31.073Z" fill="white"/>
<path d="M39.078 30.6499C40.4938 30.7821 41.9097 30.9144 43.2998 31.0201C43.48 32.4746 43.7117 33.9291 43.9691 35.3836C42.6563 35.2514 41.3176 35.0662 40.0047 34.8547C39.6443 33.4531 39.3354 32.0515 39.078 30.6499Z" fill="white"/>
<path d="M33.8264 30.0417C35.2423 30.2269 36.6581 30.3855 38.0482 30.5442C38.3314 31.9194 38.6661 33.3209 39.0522 34.6961C37.7393 34.4845 36.4007 34.2465 35.0878 33.9556C34.5987 32.6598 34.1868 31.3376 33.8264 30.0417Z" fill="white"/>
<path d="M28.5748 29.2483C29.9907 29.4863 31.4066 29.6979 32.7967 29.9094C33.1571 31.2052 33.5947 32.4746 34.1096 33.7704C32.7967 33.4795 31.458 33.1622 30.1452 32.8184C29.5273 31.6019 29.0125 30.4383 28.5748 29.2483Z" fill="white"/>
<path d="M76.7658 24.6204C78.2331 24.5411 79.7005 24.4617 81.1678 24.356C81.0134 25.5195 80.756 26.6831 80.3955 27.8467C78.9539 28.0583 77.5381 28.2434 76.0965 28.4285C76.4054 27.1591 76.6371 25.8898 76.7658 24.6204Z" fill="white"/>
<path d="M71.2825 24.8849C72.7499 24.832 74.2172 24.7527 75.7103 24.6733C75.5816 25.9692 75.3757 27.2385 75.0925 28.5343C73.6509 28.693 72.235 28.8517 70.7934 28.9839C71.0251 27.6352 71.1795 26.26 71.2825 24.8849Z" fill="white"/>
<path d="M65.7992 25.0964C67.2666 25.0435 68.7339 25.0171 70.227 24.9377C70.1241 26.3129 69.9696 27.7145 69.7637 29.0896C68.322 29.2219 66.9062 29.3276 65.4646 29.407C65.619 27.9789 65.7477 26.5245 65.7992 25.0964Z" fill="white"/>
<path d="M60.316 25.2021C61.7833 25.1757 63.2507 25.1492 64.7438 25.1228C64.6923 26.5773 64.5893 28.0318 64.4349 29.4862C62.9932 29.5656 61.5774 29.6449 60.1358 29.6714C60.2387 28.1904 60.2902 26.6831 60.316 25.2021Z" fill="white"/>
<path d="M54.8327 25.2552C56.3001 25.2552 57.7932 25.2288 59.2605 25.2288C59.2348 26.7361 59.1833 28.2171 59.1318 29.7244C57.6902 29.7773 56.2743 29.7773 54.8327 29.8038C54.8327 28.2699 54.8327 26.7626 54.8327 25.2552Z" fill="white"/>
<path d="M49.3494 25.2288C50.8168 25.2552 52.3099 25.2552 53.7772 25.2552C53.7772 26.7626 53.7772 28.2699 53.803 29.7773C52.3614 29.7773 50.9455 29.7509 49.5039 29.7244C49.4267 28.2171 49.3752 26.7361 49.3494 25.2288Z" fill="white"/>
<path d="M43.8661 25.1228C45.3335 25.1492 46.8266 25.1757 48.294 25.2021C48.3197 26.7095 48.3969 28.1904 48.4742 29.6978C47.0325 29.6449 45.6167 29.592 44.1751 29.5127C44.0206 28.0582 43.9176 26.6037 43.8661 25.1228Z" fill="white"/>
<path d="M38.3571 24.9641C39.8245 25.017 41.3176 25.0699 42.7849 25.0963C42.8622 26.5508 42.9652 28.0053 43.1196 29.4598C41.678 29.3804 40.2621 29.2747 38.8205 29.1689C38.6146 27.7673 38.4601 26.3657 38.3571 24.9641Z" fill="white"/>
<path d="M32.8739 24.7261C34.3413 24.8054 35.8343 24.8583 37.3017 24.9112C37.4047 26.2863 37.5849 27.6879 37.7908 29.0631C36.3492 28.9308 34.9333 28.7986 33.4917 28.64C33.2086 27.3441 33.0026 26.0483 32.8739 24.7261Z" fill="white"/>
<path d="M27.3649 24.4353C28.8322 24.5146 30.3253 24.6204 31.7927 24.6998C31.9214 25.9956 32.1531 27.2649 32.462 28.5607C31.0204 28.4021 29.6045 28.217 28.1629 28.0054C27.8025 26.7889 27.5451 25.6253 27.3649 24.4353Z" fill="white"/>
<path d="M76.8945 19.49C78.3619 19.5429 79.8549 19.5958 81.3223 19.6487C81.4253 20.8122 81.4253 21.9758 81.3223 23.1394C79.8549 23.1923 78.3619 23.2452 76.8945 23.2981C76.9717 22.0287 76.9717 20.7594 76.8945 19.49Z" fill="white"/>
<path d="M71.3855 19.3313C72.8528 19.3577 74.3459 19.4106 75.8133 19.4635C75.8905 20.7593 75.8905 22.0287 75.8133 23.3245C74.3459 23.3774 72.8528 23.4038 71.3855 23.4567C71.437 22.0816 71.437 20.7064 71.3855 19.3313Z" fill="white"/>
<path d="M65.8765 19.2256C67.3438 19.252 68.8369 19.2785 70.3043 19.3049C70.3558 20.6801 70.3558 22.0817 70.3043 23.4568C68.8112 23.4833 67.3438 23.5097 65.8765 23.5361C65.9022 22.1081 65.9022 20.6801 65.8765 19.2256Z" fill="white"/>
<path d="M60.3417 19.1462C61.8348 19.1727 63.3022 19.1727 64.7953 19.1991C64.821 20.6536 64.821 22.1081 64.7953 23.5626C63.3022 23.589 61.8348 23.6155 60.3417 23.6155C60.3674 22.1345 60.3674 20.6536 60.3417 19.1462Z" fill="white"/>
<path d="M54.8327 19.1199C56.3258 19.1199 57.7932 19.1199 59.2862 19.1463C59.312 20.6537 59.312 22.1346 59.2862 23.642C57.7932 23.642 56.3258 23.6684 54.8327 23.6684C54.8327 22.1611 54.8327 20.6272 54.8327 19.1199Z" fill="white"/>
<path d="M49.3237 19.1463C50.8168 19.1463 52.2841 19.1199 53.7772 19.1199C53.7772 20.6272 53.7772 22.1346 53.7772 23.642C52.2841 23.642 50.8168 23.642 49.3237 23.6155C49.2979 22.1346 49.2979 20.6537 49.3237 19.1463Z" fill="white"/>
<path d="M43.8147 19.1991C45.3078 19.1727 46.7751 19.1727 48.2682 19.1462C48.2425 20.6536 48.2425 22.1345 48.2682 23.6419C46.7751 23.6419 45.3078 23.6155 43.8147 23.589C43.7632 22.1345 43.7632 20.6536 43.8147 19.1991Z" fill="white"/>
<path d="M38.2799 19.3049C39.773 19.2785 41.2404 19.252 42.7335 19.2256C42.682 20.6801 42.682 22.1345 42.7335 23.589C41.2404 23.5626 39.773 23.5361 38.2799 23.5097C38.2284 22.0817 38.2284 20.7065 38.2799 19.3049Z" fill="white"/>
<path d="M32.7452 19.4371C34.2383 19.3842 35.7056 19.3577 37.1987 19.3313C37.1472 20.7064 37.1472 22.108 37.1987 23.4832C35.7056 23.4567 34.2383 23.4038 32.7452 23.3774C32.6679 22.0551 32.6679 20.7329 32.7452 19.4371Z" fill="white"/>
<path d="M27.2362 19.6223C28.7293 19.5694 30.1966 19.5165 31.6897 19.4636C31.6125 20.7594 31.6125 22.0288 31.6897 23.3246C30.1966 23.2717 28.7293 23.2188 27.2362 23.1659C27.1332 21.9759 27.1332 20.8123 27.2362 19.6223Z" fill="white"/>
<path d="M76.1222 14.3596C77.5638 14.5447 78.9797 14.7299 80.4213 14.9414C80.7817 16.105 81.0391 17.2686 81.1936 18.4322C79.7262 18.3264 78.2589 18.2471 76.7915 18.1677C76.637 16.8984 76.4054 15.629 76.1222 14.3596Z" fill="white"/>
<path d="M70.7934 13.7778C72.235 13.9101 73.6509 14.0687 75.0925 14.2274C75.3757 15.5232 75.5816 16.7926 75.7103 18.0884C74.243 18.0091 72.7756 17.9562 71.2825 17.8768C71.1795 16.5281 71.0251 15.153 70.7934 13.7778Z" fill="white"/>
<path d="M65.4903 13.3813C66.9319 13.4607 68.3478 13.5665 69.7894 13.6987C69.9954 15.0738 70.1498 16.4754 70.2528 17.8506C68.7854 17.7977 67.3181 17.7448 65.825 17.6919C65.7478 16.2639 65.619 14.8094 65.4903 13.3813Z" fill="white"/>
<path d="M60.1615 13.1167C61.6031 13.1696 63.019 13.2225 64.4606 13.3018C64.5893 14.7563 64.6923 16.2108 64.7695 17.6653C63.3022 17.6388 61.8348 17.5859 60.3417 17.5859C60.2902 16.105 60.2387 14.5976 60.1615 13.1167Z" fill="white"/>
<path d="M54.8327 13.011C56.2743 13.011 57.6902 13.0374 59.1318 13.0903C59.1833 14.5977 59.2348 16.0786 59.2605 17.586C57.7932 17.5595 56.3001 17.5595 54.8327 17.5595C54.8327 16.0257 54.8327 14.5184 54.8327 13.011Z" fill="white"/>
<path d="M49.5039 13.0639C50.9455 13.0374 52.3614 13.011 53.803 13.011C53.803 14.5184 53.7772 16.0257 53.7772 17.5331C52.3099 17.5331 50.8168 17.5331 49.3494 17.5595C49.3752 16.0522 49.4267 14.5448 49.5039 13.0639Z" fill="white"/>
<path d="M44.1751 13.2491C45.6167 13.1697 47.0325 13.1169 48.4742 13.064C48.3969 14.5713 48.3454 16.0523 48.294 17.5596C46.8266 17.5861 45.3335 17.6125 43.8661 17.639C43.9176 16.1845 44.0206 14.73 44.1751 13.2491Z" fill="white"/>
<path d="M38.8463 13.6193C40.2879 13.5135 41.7038 13.4077 43.1454 13.3284C42.9909 14.7829 42.8879 16.2373 42.8107 17.6918C41.3434 17.7183 39.8503 17.7711 38.3829 17.824C38.4601 16.4224 38.6146 15.0209 38.8463 13.6193Z" fill="white"/>
<path d="M33.4917 14.1216C34.9333 13.9629 36.3492 13.8307 37.7908 13.6985C37.5591 15.0736 37.4047 16.4752 37.3017 17.8504C35.8343 17.9033 34.3413 17.9826 32.8739 18.0355C33.0026 16.7397 33.2086 15.4439 33.4917 14.1216Z" fill="white"/>
<path d="M28.1629 14.8093C29.6045 14.5977 31.0204 14.4126 32.462 14.2539C32.1531 15.5497 31.9471 16.8191 31.7927 18.1149C30.3253 18.1942 28.8322 18.2736 27.3649 18.3793C27.5451 17.1629 27.8025 15.9993 28.1629 14.8093Z" fill="white"/>
<path d="M74.4746 9.22925C75.7875 9.52014 77.1262 9.86393 78.4391 10.2077C79.0569 11.3713 79.5718 12.5349 79.9837 13.6985C78.5678 13.4605 77.1777 13.2225 75.7618 13.0109C75.4271 11.7415 74.9895 10.4986 74.4746 9.22925Z" fill="white"/>
<path d="M69.5577 8.22437C70.8706 8.46237 72.2093 8.70038 73.5222 8.99127C74.0113 10.2871 74.4232 11.5564 74.7578 12.8523C73.342 12.6671 71.9518 12.482 70.536 12.3234C70.2785 10.9747 69.9439 9.59951 69.5577 8.22437Z" fill="white"/>
<path d="M64.6408 7.5105C65.9537 7.66917 67.2923 7.85428 68.6052 8.06585C68.9656 9.44099 69.2746 10.8426 69.532 12.2177C68.1161 12.0591 66.726 11.9533 65.3101 11.8211C65.1299 10.393 64.8982 8.96498 64.6408 7.5105Z" fill="white"/>
<path d="M59.7239 7.06079C61.0368 7.14013 62.3754 7.27235 63.6883 7.40458C63.92 8.85906 64.1259 10.3135 64.2804 11.768C62.8645 11.6622 61.4744 11.5829 60.0585 11.53C59.9813 10.0491 59.8526 8.56816 59.7239 7.06079Z" fill="white"/>
<path d="M54.8069 6.87573C56.1198 6.87573 57.4585 6.92862 58.7714 7.00796C58.8743 8.51533 58.9773 9.99626 59.0545 11.5036C57.6387 11.4507 56.2486 11.4243 54.8327 11.4243C54.8069 9.89048 54.8069 8.3831 54.8069 6.87573Z" fill="white"/>
<path d="M49.8643 6.98143C51.1772 6.92854 52.5158 6.9021 53.8287 6.9021C53.803 8.40947 53.803 9.91684 53.803 11.4242C52.3871 11.4242 50.997 11.4507 49.5811 11.4771C49.6583 9.96973 49.7613 8.46236 49.8643 6.98143Z" fill="white"/>
<path d="M44.9474 7.32532C46.2603 7.19309 47.5989 7.08731 48.9118 7.03442C48.7573 8.51535 48.6544 10.0227 48.5514 11.5036C47.1355 11.5565 45.7197 11.6359 44.3295 11.7152C44.5097 10.2343 44.7157 8.7798 44.9474 7.32532Z" fill="white"/>
<path d="M40.0304 7.93344C41.3433 7.72188 42.682 7.56321 43.9949 7.40454C43.7374 8.85902 43.5058 10.3135 43.3256 11.768C41.9097 11.8738 40.4938 11.9795 39.1037 12.1382C39.3354 10.7366 39.6443 9.33503 40.0304 7.93344Z" fill="white"/>
<path d="M35.0878 8.83275C36.4007 8.5683 37.7393 8.30385 39.0522 8.09229C38.6661 9.46743 38.3314 10.8426 38.0482 12.2442C36.6324 12.4028 35.2165 12.5615 33.8264 12.7466C34.1868 11.4508 34.5987 10.1286 35.0878 8.83275Z" fill="white"/>
<path d="M30.1708 9.99621C31.4837 9.65243 32.8224 9.33509 34.1353 9.04419C33.6204 10.34 33.1828 11.6094 32.8224 12.9052C31.4065 13.0903 29.9906 13.3283 28.6005 13.5663C29.0124 12.3498 29.5273 11.1598 30.1708 9.99621Z" fill="white"/>
<path d="M101.016 44.2691V45.512H100.732V44.2691H100.321V44.0046H101.453V44.2691H101.016Z" fill="white"/>
<path d="M103.307 44.0311V45.5385H103.024V44.7187C103.024 44.6658 103.024 44.5864 103.024 44.5071V44.4013V44.2955L102.998 44.4013L102.972 44.5071C102.946 44.6129 102.921 44.6658 102.895 44.7187L102.56 45.5649H102.303L101.968 44.7187C101.942 44.6658 101.917 44.6129 101.891 44.5071L101.865 44.4013L101.839 44.2955V44.4013V44.5071C101.839 44.5864 101.839 44.6658 101.839 44.7187V45.5385H101.556V44.0311H102.02L102.277 44.7187C102.303 44.7716 102.329 44.8244 102.354 44.9302L102.38 45.036L102.406 45.1418L102.432 45.036L102.457 44.9302C102.483 44.8509 102.509 44.7716 102.535 44.7187L102.792 44.0046H103.307V44.0311Z" fill="white"/>
<path d="M18.8696 44.1371L16.4755 49.2939L14.1844 44.0049H12.8458L10.5289 49.2939L8.0833 44.0049H6.69318L9.88531 50.8806H11.224L13.5151 45.618L15.7805 50.8806H17.1448L20.337 44.0049H18.9469L18.8696 44.1371Z" fill="white"/>
<path d="M27.3906 43.9519C27.1589 43.9519 26.9272 43.9519 26.6955 43.9519C26.4638 43.9519 26.2321 43.9519 26.0262 43.9519C25.7945 43.9519 25.5628 43.9519 25.3311 43.9519C25.0995 43.9519 24.8678 43.9519 24.6361 43.9784C24.1212 43.9784 23.6578 44.0841 23.2202 44.2692C22.7568 44.4808 22.4479 44.9304 22.3192 45.5386C22.2677 45.7502 22.242 45.9882 22.2162 46.1997C22.1905 46.4113 22.1905 46.6493 22.1905 46.8609C22.1905 46.9402 22.1905 47.0724 22.1905 47.1782C22.1905 47.284 22.1905 47.3898 22.1905 47.4956C22.1905 47.6542 22.1905 47.8393 22.1905 48.0245C22.1905 48.2096 22.2162 48.4211 22.2162 48.6327C22.242 48.8707 22.2677 49.1351 22.3192 49.3732C22.3707 49.6376 22.4479 49.8756 22.5766 50.0607C22.7311 50.3252 22.9628 50.5103 23.2202 50.6425C23.4519 50.7483 23.7093 50.8276 23.9668 50.8541C23.9925 50.8541 24.044 50.8541 24.0955 50.8541C24.1212 50.8541 24.1212 50.8541 24.147 50.8541C24.3787 50.8805 24.6103 50.907 24.842 50.907C25.0737 50.907 25.2797 50.907 25.5113 50.907H26.9015C27.1589 50.907 27.4163 50.907 27.6738 50.907C27.9312 50.907 28.1886 50.8805 28.4718 50.8541C29.0896 50.8012 29.5787 50.669 29.9391 50.3516C30.3253 50.0343 30.5055 49.5318 30.5827 48.8971C30.6085 48.6062 30.6342 48.3154 30.6342 48.0245C30.6342 47.7336 30.6342 47.4427 30.6342 47.1518C30.6342 45.8295 30.4797 44.9568 30.0164 44.5073C29.553 44.0841 28.7035 43.9519 27.3906 43.9519ZM29.3728 47.046C29.3728 47.1518 29.3728 47.2575 29.3728 47.3633C29.3728 47.4691 29.3728 47.5749 29.3728 47.6807C29.3728 47.8129 29.3728 47.9187 29.3728 48.0245C29.3728 48.1302 29.3728 48.236 29.3728 48.3682C29.3728 48.7914 29.3213 49.1351 29.2183 49.3732C29.1411 49.5318 28.9609 49.6905 28.4975 49.7434C28.3688 49.7434 28.2659 49.7698 28.1371 49.7698C28.0084 49.7698 27.8797 49.7698 27.751 49.7963C27.6223 49.7963 27.4936 49.7963 27.3648 49.7963C27.2361 49.7963 27.1332 49.7963 27.0044 49.7963H26.4123L24.8163 49.7698C24.0697 49.7698 23.7351 49.5583 23.6836 49.3996C23.5549 49.1351 23.4776 48.6327 23.5034 47.9716V47.4956L23.5291 46.57C23.5291 45.8824 23.6836 45.4857 23.8123 45.4328C23.941 45.3271 24.3786 45.2213 25.0222 45.1948L26.4638 45.1684L27.9054 45.1948C27.9827 45.1948 28.0342 45.1948 28.1114 45.1948C28.1629 45.1948 28.2401 45.1948 28.2916 45.1948C28.4203 45.1948 28.5233 45.2213 28.6263 45.2213C28.7292 45.2213 28.8065 45.2477 28.8837 45.2742H28.9094H28.9352C28.9867 45.3006 29.0381 45.3271 29.0896 45.3535C29.1411 45.3799 29.1669 45.4064 29.1926 45.4593C29.2441 45.5386 29.2956 45.6708 29.3213 45.856C29.3471 46.0411 29.3728 46.2262 29.3985 46.4377C29.3985 46.5435 29.3985 46.6493 29.4243 46.7551C29.3728 46.8344 29.3728 46.9402 29.3728 47.046Z" fill="white"/>
<path d="M41.1888 46.1469C41.1888 45.3271 41.0086 44.7189 40.5453 44.4016C40.1334 44.1107 39.567 44.0049 38.8462 44.0049H33.5432V50.8806H34.8046V48.3154H38.7947C39.2324 48.3154 39.5155 48.3948 39.6443 48.4741C39.7472 48.527 39.8502 48.7386 39.8502 49.1881V50.8542H41.0859V48.8708C41.0859 48.4212 40.9571 48.0245 40.6225 47.813C40.5967 47.7865 40.5453 47.7601 40.5195 47.7601C40.674 47.6808 40.8027 47.575 40.8799 47.4692C41.1116 47.1783 41.1888 46.7287 41.1888 46.1469ZM34.8046 47.1519V45.1685H38.6918C39.1551 45.1685 39.4898 45.2214 39.67 45.3271C39.7987 45.38 39.9017 45.5916 39.9017 46.094C39.9017 46.5965 39.773 46.861 39.67 46.9403C39.5413 47.0461 39.2324 47.1254 38.7432 47.1254C38.7175 47.1254 38.6918 47.1254 38.6918 47.1254H34.8046V47.1519Z" fill="white"/>
<path d="M45.282 49.717V44.0049H44.0463V50.8806H50.1989V49.717H49.9415H45.282Z" fill="white"/>
<path d="M58.0248 44.0049H52.593V50.8806H57.6901H57.7674C57.8703 50.8806 57.9733 50.8806 58.0763 50.8806C58.1793 50.8806 58.308 50.8806 58.4109 50.8806C58.6941 50.8542 58.9515 50.8277 59.2347 50.7484C59.5179 50.6691 59.7753 50.5104 60.007 50.2988C60.213 50.0873 60.3674 49.8228 60.4704 49.5055C60.5734 49.2146 60.6248 48.8972 60.6763 48.6063C60.7021 48.3948 60.7278 48.1832 60.7278 47.9717C60.7278 47.7601 60.7278 47.575 60.7278 47.3899C60.7278 46.3585 60.5734 45.5651 60.2644 44.9834C59.9298 44.2693 59.1317 44.0049 58.0248 44.0049ZM53.8544 49.717V45.142H57.8703C58.7199 45.142 59.106 45.3536 59.209 45.618C59.3634 45.9883 59.4664 46.5701 59.4664 47.337C59.4664 48.1303 59.3892 48.7386 59.2347 49.1617C59.1318 49.4526 58.7456 49.6906 57.8446 49.6906C57.8189 49.6906 57.8189 49.6906 57.8189 49.6906H53.8544V49.717Z" fill="white"/>
<path d="M69.0428 44.0049H63.6625V50.8806H64.9239V48.3948H68.9913C69.0686 48.3948 69.1458 48.3948 69.223 48.3948C69.3003 48.3948 69.3775 48.3948 69.4547 48.3948C69.6864 48.3683 69.8924 48.3419 70.0726 48.2625C70.2785 48.1832 70.4844 48.0774 70.6389 47.8923C70.7676 47.7601 70.8706 47.575 70.9478 47.3634C70.9993 47.1783 71.0508 46.9932 71.0765 46.7816C71.1023 46.6494 71.1023 46.5172 71.1023 46.3849C71.1023 46.2527 71.1023 46.1469 71.1023 46.0412C71.1023 45.3007 70.9736 44.7453 70.5874 44.428C70.2528 44.1371 69.7122 44.0049 69.0428 44.0049ZM69.8409 46.1205C69.8409 46.7287 69.7121 47.0461 69.6092 47.0725C69.4547 47.1783 69.1201 47.2312 68.6052 47.2312C68.5795 47.2312 68.5537 47.2312 68.528 47.2312H64.8982V45.1685H68.9656C69.3775 45.1685 69.6092 45.2743 69.6864 45.3536C69.7636 45.4594 69.8409 45.7238 69.8409 46.1205Z" fill="white"/>
<path d="M75.0409 49.717V44.0049H73.7795V50.8806H79.9321V49.717H79.6747H75.0409Z" fill="white"/>
<path d="M85.7243 44.0049L81.7599 50.8806H83.2272L84.0253 49.4526H88.7363L89.5343 50.8806H90.9759L86.9857 44.0049H85.7243ZM84.6688 48.289L86.3679 45.3271L88.0927 48.289H84.6688Z" fill="white"/>
<path d="M97.8493 44.0049L97.7721 44.0842L95.069 46.8874L92.3145 44.0049H90.5383L94.4512 48.0245V50.8806H95.7126V48.0245L99.6256 44.0049H97.8493Z" fill="white"/>
</svg>
