<svg width="840" height="425" viewBox="0 0 840 425" fill="none" xmlns="http://www.w3.org/2000/svg">
<rect width="840" height="425" fill="#666666"/>
<rect x="20" y="28" width="800" height="300" fill="#CCCCCC"/>
<path d="M454.966 59.017V57.4545H465.875V59.017H461.301V72H459.54V59.017H454.966ZM471.358 72.2273C470.307 72.2273 469.4 71.9953 468.638 71.5312C467.88 71.0625 467.295 70.4091 466.884 69.571C466.476 68.7282 466.273 67.7481 466.273 66.6307C466.273 65.5133 466.476 64.5284 466.884 63.6761C467.295 62.8191 467.868 62.1515 468.602 61.6733C469.341 61.1903 470.203 60.9489 471.188 60.9489C471.756 60.9489 472.317 61.0436 472.871 61.233C473.425 61.4223 473.929 61.7301 474.384 62.1562C474.838 62.5777 475.2 63.1364 475.47 63.8324C475.74 64.5284 475.875 65.3854 475.875 66.4034V67.1136H467.466V65.6648H474.17C474.17 65.0492 474.047 64.5 473.801 64.017C473.56 63.5341 473.214 63.1529 472.764 62.8736C472.319 62.5942 471.794 62.4545 471.188 62.4545C470.52 62.4545 469.942 62.6203 469.455 62.9517C468.972 63.2784 468.6 63.7045 468.339 64.2301C468.079 64.7557 467.949 65.3191 467.949 65.9205V66.8864C467.949 67.7102 468.091 68.4086 468.375 68.9815C468.664 69.5497 469.064 69.983 469.575 70.2812C470.087 70.5748 470.681 70.7216 471.358 70.7216C471.798 70.7216 472.196 70.66 472.551 70.5369C472.911 70.4091 473.221 70.2197 473.482 69.9688C473.742 69.7131 473.943 69.3958 474.085 69.017L475.705 69.4716C475.534 70.0208 475.248 70.5038 474.845 70.9205C474.443 71.3324 473.946 71.6544 473.354 71.8864C472.762 72.1136 472.097 72.2273 471.358 72.2273ZM479.382 61.0909L481.995 65.5511L484.609 61.0909H486.541L483.018 66.5455L486.541 72H484.609L481.995 67.767L479.382 72H477.45L480.916 66.5455L477.45 61.0909H479.382ZM493.677 61.0909V62.5114H488.023V61.0909H493.677ZM489.671 58.4773H491.347V68.875C491.347 69.3485 491.416 69.7036 491.553 69.9403C491.695 70.1723 491.875 70.3286 492.093 70.4091C492.316 70.4848 492.55 70.5227 492.796 70.5227C492.981 70.5227 493.132 70.5133 493.251 70.4943C493.369 70.4706 493.464 70.4517 493.535 70.4375L493.876 71.9432C493.762 71.9858 493.603 72.0284 493.4 72.071C493.196 72.1184 492.938 72.142 492.626 72.142C492.152 72.142 491.688 72.0402 491.234 71.8366C490.784 71.633 490.41 71.3229 490.112 70.9062C489.818 70.4896 489.671 69.964 489.671 69.3295V58.4773ZM506.681 61.0909V62.5114H500.8V61.0909H506.681ZM502.562 72V59.5852C502.562 58.9602 502.709 58.4394 503.002 58.0227C503.296 57.6061 503.677 57.2936 504.146 57.0852C504.614 56.8769 505.109 56.7727 505.63 56.7727C506.042 56.7727 506.378 56.8059 506.638 56.8722C506.899 56.9384 507.093 57 507.221 57.0568L506.738 58.5057C506.653 58.4773 506.534 58.4418 506.383 58.3991C506.236 58.3565 506.042 58.3352 505.8 58.3352C505.246 58.3352 504.846 58.4749 504.6 58.7543C504.359 59.0336 504.238 59.4432 504.238 59.983V72H502.562ZM513.013 72.2273C512.028 72.2273 511.164 71.9929 510.42 71.5241C509.682 71.0554 509.104 70.3996 508.688 69.5568C508.276 68.714 508.07 67.7292 508.07 66.6023C508.07 65.4659 508.276 64.474 508.688 63.6264C509.104 62.7789 509.682 62.1207 510.42 61.652C511.164 61.1832 512.028 60.9489 513.013 60.9489C513.998 60.9489 514.859 61.1832 515.598 61.652C516.341 62.1207 516.919 62.7789 517.331 63.6264C517.748 64.474 517.956 65.4659 517.956 66.6023C517.956 67.7292 517.748 68.714 517.331 69.5568C516.919 70.3996 516.341 71.0554 515.598 71.5241C514.859 71.9929 513.998 72.2273 513.013 72.2273ZM513.013 70.7216C513.761 70.7216 514.376 70.5298 514.859 70.1463C515.342 69.7628 515.7 69.2585 515.932 68.6335C516.164 68.0085 516.28 67.3314 516.28 66.6023C516.28 65.8731 516.164 65.1937 515.932 64.5639C515.7 63.9342 515.342 63.4252 514.859 63.0369C514.376 62.6487 513.761 62.4545 513.013 62.4545C512.265 62.4545 511.649 62.6487 511.166 63.0369C510.683 63.4252 510.326 63.9342 510.094 64.5639C509.862 65.1937 509.746 65.8731 509.746 66.6023C509.746 67.3314 509.862 68.0085 510.094 68.6335C510.326 69.2585 510.683 69.7628 511.166 70.1463C511.649 70.5298 512.265 70.7216 513.013 70.7216ZM520.515 72V61.0909H522.134V62.7386H522.248C522.446 62.1989 522.806 61.7609 523.327 61.4247C523.848 61.0885 524.435 60.9205 525.088 60.9205C525.212 60.9205 525.365 60.9228 525.55 60.9276C525.735 60.9323 525.874 60.9394 525.969 60.9489V62.6534C525.912 62.6392 525.782 62.6179 525.578 62.5895C525.38 62.5563 525.169 62.5398 524.946 62.5398C524.416 62.5398 523.943 62.651 523.526 62.8736C523.114 63.0914 522.787 63.3944 522.546 63.7827C522.309 64.1662 522.191 64.6042 522.191 65.0966V72H520.515ZM538.325 61.0909V62.5114H532.672V61.0909H538.325ZM534.32 58.4773H535.996V68.875C535.996 69.3485 536.064 69.7036 536.202 69.9403C536.344 70.1723 536.524 70.3286 536.741 70.4091C536.964 70.4848 537.198 70.5227 537.445 70.5227C537.629 70.5227 537.781 70.5133 537.899 70.4943C538.018 70.4706 538.112 70.4517 538.183 70.4375L538.524 71.9432C538.411 71.9858 538.252 72.0284 538.048 72.071C537.845 72.1184 537.587 72.142 537.274 72.142C536.801 72.142 536.337 72.0402 535.882 71.8366C535.432 71.633 535.058 71.3229 534.76 70.9062C534.466 70.4896 534.32 69.964 534.32 69.3295V58.4773ZM542.757 65.4375V72H541.081V57.4545H542.757V62.7955H542.899C543.155 62.232 543.538 61.7846 544.05 61.4531C544.566 61.117 545.252 60.9489 546.109 60.9489C546.853 60.9489 547.504 61.098 548.062 61.3963C548.621 61.6899 549.054 62.142 549.362 62.7528C549.675 63.3589 549.831 64.1307 549.831 65.0682V72H548.155V65.1818C548.155 64.3153 547.93 63.6454 547.48 63.1719C547.035 62.6937 546.417 62.4545 545.626 62.4545C545.077 62.4545 544.585 62.5705 544.149 62.8026C543.718 63.0346 543.377 63.3731 543.126 63.8182C542.88 64.2633 542.757 64.803 542.757 65.4375ZM557.471 72.2273C556.42 72.2273 555.513 71.9953 554.751 71.5312C553.993 71.0625 553.409 70.4091 552.997 69.571C552.59 68.7282 552.386 67.7481 552.386 66.6307C552.386 65.5133 552.59 64.5284 552.997 63.6761C553.409 62.8191 553.982 62.1515 554.716 61.6733C555.454 61.1903 556.316 60.9489 557.301 60.9489C557.869 60.9489 558.43 61.0436 558.984 61.233C559.538 61.4223 560.042 61.7301 560.497 62.1562C560.951 62.5777 561.314 63.1364 561.583 63.8324C561.853 64.5284 561.988 65.3854 561.988 66.4034V67.1136H553.579V65.6648H560.284C560.284 65.0492 560.161 64.5 559.914 64.017C559.673 63.5341 559.327 63.1529 558.877 62.8736C558.432 62.5942 557.907 62.4545 557.301 62.4545C556.633 62.4545 556.056 62.6203 555.568 62.9517C555.085 63.2784 554.713 63.7045 554.453 64.2301C554.192 64.7557 554.062 65.3191 554.062 65.9205V66.8864C554.062 67.7102 554.204 68.4086 554.488 68.9815C554.777 69.5497 555.177 69.983 555.689 70.2812C556.2 70.5748 556.794 70.7216 557.471 70.7216C557.912 70.7216 558.309 70.66 558.664 70.5369C559.024 70.4091 559.334 70.2197 559.595 69.9688C559.855 69.7131 560.056 69.3958 560.199 69.017L561.818 69.4716C561.647 70.0208 561.361 70.5038 560.958 70.9205C560.556 71.3324 560.059 71.6544 559.467 71.8864C558.875 72.1136 558.21 72.2273 557.471 72.2273ZM574.595 72.2273C573.572 72.2273 572.691 71.9858 571.953 71.5028C571.214 71.0199 570.646 70.3546 570.248 69.5071C569.85 68.6596 569.652 67.6913 569.652 66.6023C569.652 65.4943 569.855 64.5166 570.262 63.669C570.674 62.8168 571.247 62.1515 571.981 61.6733C572.72 61.1903 573.582 60.9489 574.566 60.9489C575.333 60.9489 576.025 61.0909 576.64 61.375C577.256 61.6591 577.76 62.0568 578.153 62.5682C578.546 63.0795 578.79 63.6761 578.885 64.358H577.208C577.081 63.8608 576.797 63.4205 576.356 63.0369C575.921 62.6487 575.333 62.4545 574.595 62.4545C573.941 62.4545 573.368 62.625 572.876 62.9659C572.388 63.3021 572.007 63.7779 571.733 64.3935C571.463 65.0043 571.328 65.7216 571.328 66.5455C571.328 67.3883 571.46 68.1222 571.725 68.7472C571.995 69.3722 572.374 69.8575 572.862 70.2031C573.354 70.5488 573.932 70.7216 574.595 70.7216C575.03 70.7216 575.426 70.6458 575.781 70.4943C576.136 70.3428 576.437 70.125 576.683 69.8409C576.929 69.5568 577.104 69.2159 577.208 68.8182H578.885C578.79 69.4621 578.556 70.0421 578.181 70.5582C577.812 71.0696 577.322 71.4768 576.711 71.7798C576.105 72.0781 575.4 72.2273 574.595 72.2273ZM588.21 67.5398V61.0909H589.886V72H588.21V70.1534H588.096C587.841 70.7074 587.443 71.1785 586.903 71.5668C586.363 71.9503 585.681 72.142 584.858 72.142C584.176 72.142 583.57 71.9929 583.039 71.6946C582.509 71.3916 582.092 70.937 581.789 70.331C581.486 69.7202 581.335 68.9508 581.335 68.0227V61.0909H583.011V67.9091C583.011 68.7045 583.234 69.339 583.679 69.8125C584.128 70.286 584.701 70.5227 585.397 70.5227C585.814 70.5227 586.238 70.4162 586.669 70.2031C587.104 69.9901 587.469 69.6634 587.762 69.223C588.061 68.7827 588.21 68.2216 588.21 67.5398ZM592.956 72V61.0909H594.575V62.7386H594.689C594.888 62.1989 595.248 61.7609 595.768 61.4247C596.289 61.0885 596.876 60.9205 597.53 60.9205C597.653 60.9205 597.807 60.9228 597.991 60.9276C598.176 60.9323 598.316 60.9394 598.411 60.9489V62.6534C598.354 62.6392 598.223 62.6179 598.02 62.5895C597.821 62.5563 597.61 62.5398 597.388 62.5398C596.857 62.5398 596.384 62.651 595.967 62.8736C595.555 63.0914 595.229 63.3944 594.987 63.7827C594.75 64.1662 594.632 64.6042 594.632 65.0966V72H592.956ZM600.397 72V61.0909H602.017V62.7386H602.13C602.329 62.1989 602.689 61.7609 603.21 61.4247C603.731 61.0885 604.318 60.9205 604.971 60.9205C605.094 60.9205 605.248 60.9228 605.433 60.9276C605.618 60.9323 605.757 60.9394 605.852 60.9489V62.6534C605.795 62.6392 605.665 62.6179 605.461 62.5895C605.262 62.5563 605.052 62.5398 604.829 62.5398C604.299 62.5398 603.825 62.651 603.409 62.8736C602.997 63.0914 602.67 63.3944 602.429 63.7827C602.192 64.1662 602.074 64.6042 602.074 65.0966V72H600.397ZM612.081 72.2273C611.029 72.2273 610.123 71.9953 609.36 71.5312C608.603 71.0625 608.018 70.4091 607.606 69.571C607.199 68.7282 606.995 67.7481 606.995 66.6307C606.995 65.5133 607.199 64.5284 607.606 63.6761C608.018 62.8191 608.591 62.1515 609.325 61.6733C610.064 61.1903 610.925 60.9489 611.91 60.9489C612.478 60.9489 613.039 61.0436 613.593 61.233C614.147 61.4223 614.652 61.7301 615.106 62.1562C615.561 62.5777 615.923 63.1364 616.193 63.8324C616.463 64.5284 616.598 65.3854 616.598 66.4034V67.1136H608.189V65.6648H614.893C614.893 65.0492 614.77 64.5 614.524 64.017C614.282 63.5341 613.937 63.1529 613.487 62.8736C613.042 62.5942 612.516 62.4545 611.91 62.4545C611.243 62.4545 610.665 62.6203 610.177 62.9517C609.694 63.2784 609.323 63.7045 609.062 64.2301C608.802 64.7557 608.672 65.3191 608.672 65.9205V66.8864C608.672 67.7102 608.814 68.4086 609.098 68.9815C609.386 69.5497 609.787 69.983 610.298 70.2812C610.809 70.5748 611.404 70.7216 612.081 70.7216C612.521 70.7216 612.919 70.66 613.274 70.5369C613.634 70.4091 613.944 70.2197 614.204 69.9688C614.465 69.7131 614.666 69.3958 614.808 69.017L616.427 69.4716C616.257 70.0208 615.97 70.5038 615.568 70.9205C615.165 71.3324 614.668 71.6544 614.076 71.8864C613.484 72.1136 612.819 72.2273 612.081 72.2273ZM620.824 65.4375V72H619.147V61.0909H620.767V62.7955H620.909C621.164 62.2415 621.553 61.7964 622.074 61.4602C622.594 61.1193 623.267 60.9489 624.091 60.9489C624.829 60.9489 625.475 61.1004 626.029 61.4034C626.583 61.7017 627.014 62.1562 627.322 62.767C627.63 63.3731 627.784 64.1402 627.784 65.0682V72H626.108V65.1818C626.108 64.3248 625.885 63.6572 625.44 63.179C624.995 62.696 624.384 62.4545 623.608 62.4545C623.073 62.4545 622.594 62.5705 622.173 62.8026C621.756 63.0346 621.427 63.3731 621.186 63.8182C620.944 64.2633 620.824 64.803 620.824 65.4375ZM635.591 61.0909V62.5114H629.938V61.0909H635.591ZM631.585 58.4773H633.261V68.875C633.261 69.3485 633.33 69.7036 633.467 69.9403C633.609 70.1723 633.789 70.3286 634.007 70.4091C634.23 70.4848 634.464 70.5227 634.71 70.5227C634.895 70.5227 635.046 70.5133 635.165 70.4943C635.283 70.4706 635.378 70.4517 635.449 70.4375L635.79 71.9432C635.676 71.9858 635.518 72.0284 635.314 72.071C635.11 72.1184 634.852 72.142 634.54 72.142C634.066 72.142 633.602 72.0402 633.148 71.8366C632.698 71.633 632.324 71.3229 632.026 70.9062C631.732 70.4896 631.585 69.964 631.585 69.3295V58.4773ZM651.464 63.5341L649.959 63.9602C649.864 63.7093 649.724 63.4654 649.54 63.2287C649.36 62.9872 649.114 62.7884 648.801 62.6321C648.489 62.4759 648.089 62.3977 647.601 62.3977C646.933 62.3977 646.377 62.5516 645.932 62.8594C645.491 63.1624 645.271 63.5483 645.271 64.017C645.271 64.4337 645.423 64.7628 645.726 65.0043C646.029 65.2457 646.502 65.447 647.146 65.608L648.766 66.0057C649.741 66.2424 650.468 66.6046 650.946 67.0923C651.424 67.5753 651.663 68.1979 651.663 68.9602C651.663 69.5852 651.483 70.1439 651.124 70.6364C650.768 71.1288 650.271 71.517 649.632 71.8011C648.993 72.0852 648.25 72.2273 647.402 72.2273C646.289 72.2273 645.368 71.9858 644.639 71.5028C643.91 71.0199 643.448 70.3144 643.254 69.3864L644.845 68.9886C644.997 69.5758 645.283 70.0161 645.705 70.3097C646.131 70.6032 646.687 70.75 647.374 70.75C648.155 70.75 648.775 70.5843 649.234 70.2528C649.698 69.9167 649.93 69.5142 649.93 69.0455C649.93 68.6667 649.798 68.3494 649.533 68.0938C649.268 67.8333 648.86 67.6392 648.311 67.5114L646.493 67.0852C645.494 66.8485 644.76 66.4815 644.291 65.9844C643.827 65.4825 643.595 64.8551 643.595 64.1023C643.595 63.4867 643.768 62.9422 644.114 62.4688C644.464 61.9953 644.94 61.6236 645.541 61.3537C646.147 61.0838 646.834 60.9489 647.601 60.9489C648.68 60.9489 649.528 61.1856 650.143 61.6591C650.764 62.1326 651.204 62.7576 651.464 63.5341ZM655.863 57.4545V72H654.186V57.4545H655.863ZM658.933 72V61.0909H660.609V72H658.933ZM659.785 59.2727C659.458 59.2727 659.176 59.1615 658.94 58.9389C658.708 58.7164 658.592 58.4489 658.592 58.1364C658.592 57.8239 658.708 57.5563 658.94 57.3338C659.176 57.1113 659.458 57 659.785 57C660.112 57 660.391 57.1113 660.623 57.3338C660.86 57.5563 660.978 57.8239 660.978 58.1364C660.978 58.4489 660.86 58.7164 660.623 58.9389C660.391 59.1615 660.112 59.2727 659.785 59.2727ZM667.798 72.2273C666.889 72.2273 666.086 71.9976 665.39 71.5384C664.694 71.0743 664.15 70.4209 663.757 69.5781C663.364 68.7306 663.167 67.7292 663.167 66.5739C663.167 65.428 663.364 64.4337 663.757 63.5909C664.15 62.7481 664.697 62.0971 665.397 61.6378C666.098 61.1785 666.908 60.9489 667.826 60.9489C668.537 60.9489 669.098 61.0672 669.51 61.304C669.926 61.536 670.243 61.8011 670.461 62.0994C670.684 62.393 670.857 62.6345 670.98 62.8239H671.122V57.4545H672.798V72H671.179V70.3239H670.98C670.857 70.5227 670.681 70.7737 670.454 71.0767C670.227 71.375 669.903 71.6425 669.481 71.8793C669.06 72.1113 668.499 72.2273 667.798 72.2273ZM668.025 70.7216C668.698 70.7216 669.266 70.5464 669.73 70.196C670.194 69.8409 670.547 69.3509 670.788 68.7259C671.029 68.0961 671.15 67.3693 671.15 66.5455C671.15 65.7311 671.032 65.0185 670.795 64.4077C670.558 63.7921 670.208 63.3139 669.744 62.973C669.28 62.6274 668.707 62.4545 668.025 62.4545C667.315 62.4545 666.723 62.6368 666.25 63.0014C665.781 63.3613 665.428 63.8513 665.191 64.4716C664.959 65.0871 664.843 65.7784 664.843 66.5455C664.843 67.322 664.962 68.0275 665.199 68.6619C665.44 69.2917 665.795 69.7936 666.264 70.1676C666.737 70.5369 667.324 70.7216 668.025 70.7216ZM680.674 72.2273C679.623 72.2273 678.717 71.9953 677.954 71.5312C677.197 71.0625 676.612 70.4091 676.2 69.571C675.793 68.7282 675.589 67.7481 675.589 66.6307C675.589 65.5133 675.793 64.5284 676.2 63.6761C676.612 62.8191 677.185 62.1515 677.919 61.6733C678.657 61.1903 679.519 60.9489 680.504 60.9489C681.072 60.9489 681.633 61.0436 682.187 61.233C682.741 61.4223 683.245 61.7301 683.7 62.1562C684.154 62.5777 684.517 63.1364 684.787 63.8324C685.056 64.5284 685.191 65.3854 685.191 66.4034V67.1136H676.782V65.6648H683.487C683.487 65.0492 683.364 64.5 683.118 64.017C682.876 63.5341 682.53 63.1529 682.081 62.8736C681.636 62.5942 681.11 62.4545 680.504 62.4545C679.836 62.4545 679.259 62.6203 678.771 62.9517C678.288 63.2784 677.916 63.7045 677.656 64.2301C677.395 64.7557 677.265 65.3191 677.265 65.9205V66.8864C677.265 67.7102 677.407 68.4086 677.691 68.9815C677.98 69.5497 678.38 69.983 678.892 70.2812C679.403 70.5748 679.997 70.7216 680.674 70.7216C681.115 70.7216 681.512 70.66 681.868 70.5369C682.227 70.4091 682.538 70.2197 682.798 69.9688C683.058 69.7131 683.26 69.3958 683.402 69.017L685.021 69.4716C684.85 70.0208 684.564 70.5038 684.162 70.9205C683.759 71.3324 683.262 71.6544 682.67 71.8864C682.078 72.1136 681.413 72.2273 680.674 72.2273Z" fill="#2C2C2C"/>
<rect x="52" y="53" width="375" height="250" fill="#BDBDBD"/>
<rect x="52" y="238" width="375" height="65" fill="#333333" fill-opacity="0.25"/>
<path d="M74.8011 259.364C74.7415 258.86 74.4995 258.469 74.0753 258.19C73.651 257.912 73.1307 257.773 72.5142 257.773C72.0634 257.773 71.669 257.846 71.331 257.991C70.9962 258.137 70.7344 258.338 70.5455 258.593C70.3598 258.848 70.267 259.138 70.267 259.463C70.267 259.735 70.3317 259.969 70.4609 260.164C70.5935 260.356 70.7625 260.517 70.968 260.646C71.1735 260.772 71.389 260.877 71.6143 260.96C71.8397 261.039 72.0469 261.104 72.2358 261.153L73.2699 261.432C73.535 261.501 73.83 261.598 74.1548 261.72C74.483 261.843 74.7962 262.01 75.0945 262.222C75.3961 262.431 75.6446 262.7 75.8402 263.028C76.0357 263.356 76.1335 263.759 76.1335 264.236C76.1335 264.786 75.9893 265.283 75.701 265.727C75.416 266.171 74.9983 266.524 74.4482 266.786C73.9013 267.048 73.2367 267.179 72.4545 267.179C71.7254 267.179 71.094 267.061 70.5604 266.826C70.0301 266.591 69.6125 266.263 69.3075 265.842C69.0059 265.421 68.8352 264.932 68.7955 264.375H70.0682C70.1013 264.759 70.2306 265.078 70.456 265.33C70.6847 265.578 70.973 265.764 71.321 265.886C71.6723 266.006 72.0502 266.065 72.4545 266.065C72.9252 266.065 73.3478 265.989 73.7223 265.837C74.0968 265.681 74.3935 265.465 74.6122 265.19C74.831 264.912 74.9403 264.587 74.9403 264.216C74.9403 263.878 74.8459 263.603 74.657 263.391C74.468 263.179 74.2195 263.006 73.9112 262.874C73.603 262.741 73.2699 262.625 72.9119 262.526L71.6591 262.168C70.8636 261.939 70.2339 261.612 69.7699 261.188C69.3059 260.764 69.0739 260.209 69.0739 259.523C69.0739 258.953 69.228 258.455 69.5362 258.031C69.8478 257.604 70.2654 257.272 70.7891 257.037C71.3161 256.798 71.9044 256.679 72.554 256.679C73.2102 256.679 73.7936 256.797 74.304 257.032C74.8144 257.264 75.2188 257.582 75.517 257.987C75.8187 258.391 75.9777 258.85 75.9943 259.364H74.8011ZM78.0016 267V259.364H79.1351V260.557H79.2346C79.3936 260.149 79.6505 259.833 80.0051 259.607C80.3598 259.379 80.7857 259.264 81.2828 259.264C81.7866 259.264 82.2059 259.379 82.5407 259.607C82.8787 259.833 83.1422 260.149 83.3311 260.557H83.4107C83.6062 260.162 83.8996 259.849 84.2907 259.617C84.6818 259.382 85.1507 259.264 85.6976 259.264C86.3804 259.264 86.9389 259.478 87.373 259.906C87.8072 260.33 88.0243 260.991 88.0243 261.889V267H86.851V261.889C86.851 261.326 86.6969 260.923 86.3887 260.681C86.0804 260.439 85.7175 260.318 85.2999 260.318C84.763 260.318 84.347 260.481 84.052 260.805C83.757 261.127 83.6096 261.535 83.6096 262.028V267H82.4164V261.77C82.4164 261.336 82.2755 260.986 81.9938 260.721C81.7121 260.452 81.3491 260.318 80.905 260.318C80.6001 260.318 80.315 260.399 80.0499 260.562C79.7881 260.724 79.5759 260.95 79.4135 261.238C79.2544 261.523 79.1749 261.853 79.1749 262.227V267H78.0016ZM92.4167 267.179C91.9328 267.179 91.4937 267.088 91.0993 266.906C90.7048 266.72 90.3916 266.453 90.1596 266.105C89.9276 265.754 89.8116 265.33 89.8116 264.832C89.8116 264.395 89.8978 264.04 90.0701 263.768C90.2425 263.493 90.4728 263.278 90.7612 263.122C91.0495 262.966 91.3677 262.85 91.7157 262.774C92.0671 262.695 92.42 262.632 92.7747 262.585C93.2387 262.526 93.6149 262.481 93.9032 262.451C94.1949 262.418 94.407 262.363 94.5396 262.287C94.6755 262.211 94.7434 262.078 94.7434 261.889V261.849C94.7434 261.359 94.6092 260.978 94.3407 260.706C94.0756 260.434 93.6729 260.298 93.1326 260.298C92.5725 260.298 92.1333 260.421 91.8152 260.666C91.497 260.911 91.2733 261.173 91.144 261.452L90.0304 261.054C90.2292 260.59 90.4944 260.229 90.8258 259.97C91.1606 259.708 91.5252 259.526 91.9196 259.423C92.3173 259.317 92.7084 259.264 93.0929 259.264C93.3381 259.264 93.6199 259.294 93.938 259.354C94.2595 259.41 94.5694 259.528 94.8677 259.707C95.1693 259.886 95.4196 260.156 95.6184 260.517C95.8173 260.878 95.9167 261.362 95.9167 261.969V267H94.7434V265.966H94.6838C94.6042 266.132 94.4717 266.309 94.286 266.498C94.1004 266.687 93.8535 266.848 93.5453 266.98C93.237 267.113 92.8609 267.179 92.4167 267.179ZM92.5957 266.125C93.0597 266.125 93.4508 266.034 93.769 265.852C94.0905 265.669 94.3324 265.434 94.4949 265.146C94.6606 264.857 94.7434 264.554 94.7434 264.236V263.162C94.6937 263.222 94.5843 263.276 94.4153 263.326C94.2496 263.372 94.0574 263.414 93.8386 263.45C93.6232 263.483 93.4127 263.513 93.2072 263.54C93.005 263.563 92.841 263.583 92.715 263.599C92.4101 263.639 92.1251 263.704 91.8599 263.793C91.5981 263.879 91.3859 264.01 91.2235 264.186C91.0645 264.358 90.9849 264.594 90.9849 264.892C90.9849 265.3 91.1357 265.608 91.4373 265.817C91.7422 266.022 92.1284 266.125 92.5957 266.125ZM99.2315 256.818V267H98.0582V256.818H99.2315ZM102.554 256.818V267H101.381V256.818H102.554ZM111.941 267H108.799V256.818H112.081C113.068 256.818 113.913 257.022 114.616 257.43C115.319 257.834 115.857 258.416 116.232 259.175C116.606 259.93 116.794 260.835 116.794 261.889C116.794 262.95 116.605 263.863 116.227 264.629C115.849 265.391 115.299 265.978 114.576 266.388C113.854 266.796 112.975 267 111.941 267ZM110.032 265.906H111.862C112.704 265.906 113.401 265.744 113.955 265.419C114.508 265.094 114.921 264.632 115.193 264.032C115.465 263.432 115.6 262.718 115.6 261.889C115.6 261.067 115.466 260.36 115.198 259.766C114.929 259.17 114.528 258.712 113.995 258.394C113.461 258.073 112.797 257.912 112.001 257.912H110.032V265.906ZM121.904 267.159C121.169 267.159 120.534 266.997 120 266.672C119.47 266.344 119.061 265.886 118.772 265.3C118.487 264.71 118.345 264.024 118.345 263.241C118.345 262.459 118.487 261.77 118.772 261.173C119.061 260.573 119.462 260.106 119.975 259.771C120.493 259.433 121.096 259.264 121.785 259.264C122.183 259.264 122.576 259.33 122.963 259.463C123.351 259.596 123.704 259.811 124.022 260.109C124.341 260.404 124.594 260.795 124.783 261.283C124.972 261.77 125.066 262.37 125.066 263.082V263.58H119.18V262.565H123.873C123.873 262.134 123.787 261.75 123.615 261.412C123.446 261.074 123.204 260.807 122.889 260.612C122.577 260.416 122.209 260.318 121.785 260.318C121.318 260.318 120.913 260.434 120.572 260.666C120.234 260.895 119.974 261.193 119.792 261.561C119.609 261.929 119.518 262.323 119.518 262.744V263.42C119.518 263.997 119.618 264.486 119.816 264.887C120.019 265.285 120.299 265.588 120.657 265.797C121.015 266.002 121.431 266.105 121.904 266.105C122.213 266.105 122.491 266.062 122.74 265.976C122.992 265.886 123.209 265.754 123.391 265.578C123.573 265.399 123.714 265.177 123.814 264.912L124.947 265.23C124.828 265.615 124.627 265.953 124.346 266.244C124.064 266.533 123.716 266.758 123.301 266.92C122.887 267.08 122.422 267.159 121.904 267.159ZM132.26 261.074L131.206 261.372C131.14 261.196 131.042 261.026 130.913 260.86C130.787 260.691 130.615 260.552 130.396 260.442C130.177 260.333 129.897 260.278 129.556 260.278C129.088 260.278 128.699 260.386 128.387 260.602C128.079 260.814 127.925 261.084 127.925 261.412C127.925 261.704 128.031 261.934 128.243 262.103C128.455 262.272 128.787 262.413 129.238 262.526L130.371 262.804C131.054 262.97 131.563 263.223 131.897 263.565C132.232 263.903 132.4 264.339 132.4 264.872C132.4 265.31 132.274 265.701 132.022 266.045C131.773 266.39 131.425 266.662 130.978 266.861C130.53 267.06 130.01 267.159 129.417 267.159C128.638 267.159 127.993 266.99 127.483 266.652C126.972 266.314 126.649 265.82 126.513 265.17L127.627 264.892C127.733 265.303 127.933 265.611 128.228 265.817C128.527 266.022 128.916 266.125 129.397 266.125C129.944 266.125 130.378 266.009 130.699 265.777C131.024 265.542 131.186 265.26 131.186 264.932C131.186 264.667 131.094 264.445 130.908 264.266C130.722 264.083 130.437 263.947 130.053 263.858L128.78 263.56C128.081 263.394 127.567 263.137 127.239 262.789C126.914 262.438 126.752 261.999 126.752 261.472C126.752 261.041 126.873 260.66 127.115 260.328C127.36 259.997 127.693 259.737 128.114 259.548C128.538 259.359 129.019 259.264 129.556 259.264C130.311 259.264 130.905 259.43 131.336 259.761C131.77 260.093 132.078 260.53 132.26 261.074ZM137.268 267.159C136.552 267.159 135.936 266.99 135.419 266.652C134.901 266.314 134.504 265.848 134.225 265.255C133.947 264.662 133.808 263.984 133.808 263.222C133.808 262.446 133.95 261.762 134.235 261.168C134.524 260.572 134.925 260.106 135.438 259.771C135.955 259.433 136.559 259.264 137.248 259.264C137.785 259.264 138.269 259.364 138.7 259.562C139.131 259.761 139.484 260.04 139.759 260.398C140.034 260.756 140.204 261.173 140.271 261.651H139.097C139.008 261.303 138.809 260.994 138.501 260.726C138.196 260.454 137.785 260.318 137.268 260.318C136.811 260.318 136.41 260.437 136.065 260.676C135.723 260.911 135.457 261.245 135.264 261.675C135.075 262.103 134.981 262.605 134.981 263.182C134.981 263.772 135.074 264.286 135.259 264.723C135.448 265.161 135.713 265.5 136.055 265.742C136.4 265.984 136.804 266.105 137.268 266.105C137.573 266.105 137.85 266.052 138.098 265.946C138.347 265.84 138.557 265.688 138.73 265.489C138.902 265.29 139.025 265.051 139.097 264.773H140.271C140.204 265.223 140.04 265.629 139.779 265.991C139.52 266.349 139.177 266.634 138.749 266.846C138.325 267.055 137.831 267.159 137.268 267.159ZM141.986 267V259.364H143.119V260.517H143.199C143.338 260.139 143.59 259.833 143.955 259.597C144.319 259.362 144.73 259.244 145.188 259.244C145.274 259.244 145.382 259.246 145.511 259.249C145.64 259.253 145.738 259.258 145.804 259.264V260.457C145.764 260.447 145.673 260.433 145.531 260.413C145.392 260.389 145.244 260.378 145.088 260.378C144.717 260.378 144.386 260.456 144.094 260.612C143.806 260.764 143.577 260.976 143.408 261.248C143.242 261.516 143.159 261.823 143.159 262.168V267H141.986ZM147.195 267V259.364H148.368V267H147.195ZM147.792 258.091C147.563 258.091 147.366 258.013 147.2 257.857C147.038 257.701 146.956 257.514 146.956 257.295C146.956 257.077 147.038 256.889 147.2 256.734C147.366 256.578 147.563 256.5 147.792 256.5C148.02 256.5 148.216 256.578 148.378 256.734C148.544 256.889 148.627 257.077 148.627 257.295C148.627 257.514 148.544 257.701 148.378 257.857C148.216 258.013 148.02 258.091 147.792 258.091ZM150.517 269.864V259.364H151.651V260.577H151.79C151.876 260.444 151.995 260.275 152.148 260.07C152.304 259.861 152.526 259.675 152.814 259.513C153.106 259.347 153.5 259.264 153.997 259.264C154.64 259.264 155.207 259.425 155.698 259.746C156.188 260.068 156.571 260.524 156.846 261.114C157.121 261.704 157.259 262.4 157.259 263.202C157.259 264.01 157.121 264.711 156.846 265.305C156.571 265.895 156.19 266.352 155.703 266.677C155.215 266.998 154.654 267.159 154.017 267.159C153.527 267.159 153.134 267.078 152.839 266.915C152.544 266.75 152.317 266.562 152.158 266.354C151.999 266.142 151.876 265.966 151.79 265.827H151.691V269.864H150.517ZM151.671 263.182C151.671 263.759 151.755 264.267 151.924 264.708C152.093 265.146 152.34 265.489 152.665 265.737C152.99 265.982 153.387 266.105 153.858 266.105C154.349 266.105 154.758 265.976 155.086 265.717C155.418 265.455 155.666 265.104 155.832 264.663C156.001 264.219 156.085 263.725 156.085 263.182C156.085 262.645 156.003 262.161 155.837 261.73C155.674 261.296 155.427 260.953 155.096 260.701C154.768 260.446 154.355 260.318 153.858 260.318C153.381 260.318 152.98 260.439 152.655 260.681C152.33 260.92 152.085 261.254 151.919 261.685C151.753 262.113 151.671 262.612 151.671 263.182ZM159.048 267V259.364H160.222V267H159.048ZM159.645 258.091C159.416 258.091 159.219 258.013 159.053 257.857C158.891 257.701 158.81 257.514 158.81 257.295C158.81 257.077 158.891 256.889 159.053 256.734C159.219 256.578 159.416 256.5 159.645 256.5C159.874 256.5 160.069 256.578 160.232 256.734C160.397 256.889 160.48 257.077 160.48 257.295C160.48 257.514 160.397 257.701 160.232 257.857C160.069 258.013 159.874 258.091 159.645 258.091ZM165.692 259.364V260.358H161.734V259.364H165.692ZM162.888 257.534H164.061V264.812C164.061 265.144 164.109 265.393 164.205 265.558C164.305 265.721 164.431 265.83 164.583 265.886C164.739 265.939 164.903 265.966 165.075 265.966C165.205 265.966 165.311 265.959 165.393 265.946C165.476 265.929 165.543 265.916 165.592 265.906L165.831 266.96C165.751 266.99 165.64 267.02 165.498 267.05C165.355 267.083 165.175 267.099 164.956 267.099C164.625 267.099 164.3 267.028 163.982 266.886C163.667 266.743 163.405 266.526 163.196 266.234C162.991 265.943 162.888 265.575 162.888 265.131V257.534ZM170.477 267.159C169.788 267.159 169.183 266.995 168.662 266.667C168.145 266.339 167.741 265.88 167.449 265.29C167.161 264.7 167.017 264.01 167.017 263.222C167.017 262.426 167.161 261.732 167.449 261.138C167.741 260.545 168.145 260.085 168.662 259.756C169.183 259.428 169.788 259.264 170.477 259.264C171.166 259.264 171.77 259.428 172.287 259.756C172.807 260.085 173.211 260.545 173.5 261.138C173.791 261.732 173.937 262.426 173.937 263.222C173.937 264.01 173.791 264.7 173.5 265.29C173.211 265.88 172.807 266.339 172.287 266.667C171.77 266.995 171.166 267.159 170.477 267.159ZM170.477 266.105C171.001 266.105 171.431 265.971 171.77 265.702C172.108 265.434 172.358 265.081 172.52 264.643C172.683 264.206 172.764 263.732 172.764 263.222C172.764 262.711 172.683 262.236 172.52 261.795C172.358 261.354 172.108 260.998 171.77 260.726C171.431 260.454 171.001 260.318 170.477 260.318C169.953 260.318 169.522 260.454 169.184 260.726C168.846 260.998 168.596 261.354 168.434 261.795C168.271 262.236 168.19 262.711 168.19 263.222C168.19 263.732 168.271 264.206 168.434 264.643C168.596 265.081 168.846 265.434 169.184 265.702C169.522 265.971 169.953 266.105 170.477 266.105ZM176.901 262.406V267H175.728V259.364H176.862V260.557H176.961C177.14 260.169 177.412 259.857 177.776 259.622C178.141 259.384 178.612 259.264 179.188 259.264C179.705 259.264 180.158 259.37 180.546 259.582C180.933 259.791 181.235 260.109 181.45 260.537C181.666 260.961 181.774 261.498 181.774 262.148V267H180.6V262.227C180.6 261.627 180.445 261.16 180.133 260.825C179.821 260.487 179.394 260.318 178.85 260.318C178.476 260.318 178.141 260.399 177.846 260.562C177.554 260.724 177.324 260.961 177.155 261.273C176.986 261.584 176.901 261.962 176.901 262.406Z" fill="#F3F3F3"/>
<path d="M69.1477 289V277.364H73.6023C74.4432 277.364 75.142 277.496 75.6989 277.761C76.2595 278.023 76.678 278.381 76.9545 278.835C77.2348 279.29 77.375 279.805 77.375 280.381C77.375 280.854 77.2841 281.259 77.1023 281.597C76.9205 281.93 76.6761 282.201 76.3693 282.409C76.0625 282.617 75.7197 282.767 75.3409 282.858V282.972C75.7538 282.994 76.1496 283.121 76.5284 283.352C76.911 283.58 77.2235 283.902 77.4659 284.318C77.7083 284.735 77.8295 285.239 77.8295 285.83C77.8295 286.432 77.6837 286.973 77.392 287.455C77.1004 287.932 76.661 288.309 76.0739 288.585C75.4867 288.862 74.7481 289 73.858 289H69.1477ZM71.2557 287.239H73.5227C74.2879 287.239 74.839 287.093 75.1761 286.801C75.517 286.506 75.6875 286.127 75.6875 285.665C75.6875 285.32 75.6023 285.009 75.4318 284.733C75.2614 284.453 75.0189 284.233 74.7045 284.074C74.3902 283.911 74.0152 283.83 73.5795 283.83H71.2557V287.239ZM71.2557 282.312H73.3409C73.7045 282.312 74.0322 282.246 74.3239 282.114C74.6155 281.977 74.8447 281.786 75.0114 281.54C75.1818 281.29 75.267 280.994 75.267 280.653C75.267 280.203 75.108 279.831 74.7898 279.54C74.4754 279.248 74.0076 279.102 73.3864 279.102H71.2557V282.312ZM79.5724 289V280.273H81.6293V289H79.5724ZM80.6065 279.034C80.2808 279.034 80.0005 278.926 79.7656 278.71C79.5308 278.491 79.4134 278.227 79.4134 277.92C79.4134 277.61 79.5308 277.347 79.7656 277.131C80.0005 276.911 80.2808 276.801 80.6065 276.801C80.9361 276.801 81.2164 276.911 81.4474 277.131C81.6823 277.347 81.7997 277.61 81.7997 277.92C81.7997 278.227 81.6823 278.491 81.4474 278.71C81.2164 278.926 80.9361 279.034 80.6065 279.034ZM87.5398 292.455C86.8011 292.455 86.1667 292.354 85.6364 292.153C85.1061 291.956 84.6799 291.691 84.358 291.358C84.036 291.025 83.8125 290.655 83.6875 290.25L85.5398 289.801C85.6231 289.972 85.7443 290.14 85.9034 290.307C86.0625 290.477 86.2765 290.617 86.5455 290.727C86.8182 290.841 87.161 290.898 87.5739 290.898C88.1572 290.898 88.6402 290.756 89.0227 290.472C89.4053 290.191 89.5966 289.729 89.5966 289.085V287.432H89.4943C89.3883 287.644 89.233 287.862 89.0284 288.085C88.8277 288.309 88.5606 288.496 88.2273 288.648C87.8977 288.799 87.483 288.875 86.983 288.875C86.3125 288.875 85.7045 288.718 85.1591 288.403C84.6174 288.085 84.1856 287.612 83.8636 286.983C83.5455 286.35 83.3864 285.559 83.3864 284.608C83.3864 283.65 83.5455 282.841 83.8636 282.182C84.1856 281.519 84.6193 281.017 85.1648 280.676C85.7102 280.331 86.3182 280.159 86.9886 280.159C87.5 280.159 87.9205 280.246 88.25 280.42C88.5833 280.591 88.8485 280.797 89.0455 281.04C89.2424 281.278 89.392 281.504 89.4943 281.716H89.608V280.273H91.6364V289.142C91.6364 289.888 91.4583 290.506 91.1023 290.994C90.7462 291.483 90.2595 291.848 89.642 292.091C89.0246 292.333 88.3239 292.455 87.5398 292.455ZM87.5568 287.261C87.9924 287.261 88.3636 287.155 88.6705 286.943C88.9773 286.731 89.2102 286.426 89.3693 286.028C89.5284 285.631 89.608 285.153 89.608 284.597C89.608 284.047 89.5284 283.566 89.3693 283.153C89.214 282.741 88.983 282.42 88.6761 282.193C88.3731 281.962 88 281.847 87.5568 281.847C87.0985 281.847 86.7159 281.966 86.4091 282.205C86.1023 282.443 85.8712 282.771 85.7159 283.188C85.5606 283.6 85.483 284.07 85.483 284.597C85.483 285.131 85.5606 285.598 85.7159 286C85.875 286.398 86.108 286.708 86.4148 286.932C86.7254 287.152 87.1061 287.261 87.5568 287.261ZM101.747 289H97.804V277.364H101.827C102.982 277.364 103.974 277.597 104.804 278.062C105.637 278.525 106.277 279.189 106.724 280.057C107.171 280.924 107.395 281.962 107.395 283.17C107.395 284.383 107.17 285.424 106.719 286.295C106.272 287.167 105.626 287.835 104.781 288.301C103.94 288.767 102.929 289 101.747 289ZM99.9119 287.176H101.645C102.455 287.176 103.132 287.028 103.673 286.733C104.215 286.434 104.622 285.989 104.895 285.398C105.168 284.803 105.304 284.061 105.304 283.17C105.304 282.28 105.168 281.542 104.895 280.955C104.622 280.364 104.219 279.922 103.685 279.631C103.154 279.335 102.495 279.188 101.707 279.188H99.9119V287.176ZM113.17 289.17C112.295 289.17 111.54 288.989 110.903 288.625C110.271 288.258 109.784 287.739 109.443 287.068C109.102 286.394 108.932 285.6 108.932 284.688C108.932 283.79 109.102 283.002 109.443 282.324C109.788 281.642 110.269 281.112 110.886 280.733C111.504 280.35 112.229 280.159 113.062 280.159C113.6 280.159 114.108 280.246 114.585 280.42C115.066 280.591 115.491 280.856 115.858 281.216C116.229 281.576 116.521 282.034 116.733 282.591C116.945 283.144 117.051 283.803 117.051 284.568V285.199H109.898V283.812H115.08C115.076 283.419 114.991 283.068 114.824 282.761C114.657 282.451 114.424 282.206 114.125 282.028C113.83 281.85 113.485 281.761 113.091 281.761C112.67 281.761 112.301 281.864 111.983 282.068C111.665 282.269 111.417 282.534 111.239 282.864C111.064 283.189 110.975 283.547 110.972 283.938V285.148C110.972 285.655 111.064 286.091 111.25 286.455C111.436 286.814 111.695 287.091 112.028 287.284C112.362 287.473 112.752 287.568 113.199 287.568C113.498 287.568 113.769 287.527 114.011 287.443C114.254 287.356 114.464 287.229 114.642 287.062C114.82 286.896 114.955 286.689 115.045 286.443L116.966 286.659C116.845 287.167 116.614 287.61 116.273 287.989C115.936 288.364 115.504 288.655 114.977 288.864C114.451 289.068 113.848 289.17 113.17 289.17ZM125.689 282.58L123.814 282.784C123.761 282.595 123.668 282.417 123.536 282.25C123.407 282.083 123.232 281.949 123.013 281.847C122.793 281.744 122.524 281.693 122.206 281.693C121.778 281.693 121.418 281.786 121.126 281.972C120.839 282.157 120.696 282.398 120.7 282.693C120.696 282.947 120.789 283.153 120.979 283.312C121.172 283.472 121.49 283.602 121.933 283.705L123.422 284.023C124.248 284.201 124.861 284.483 125.263 284.869C125.668 285.256 125.873 285.761 125.876 286.386C125.873 286.936 125.712 287.42 125.393 287.841C125.079 288.258 124.642 288.583 124.081 288.818C123.52 289.053 122.876 289.17 122.149 289.17C121.081 289.17 120.221 288.947 119.57 288.5C118.918 288.049 118.53 287.422 118.405 286.619L120.411 286.426C120.501 286.82 120.695 287.117 120.99 287.318C121.286 287.519 121.67 287.619 122.143 287.619C122.632 287.619 123.024 287.519 123.32 287.318C123.619 287.117 123.768 286.869 123.768 286.574C123.768 286.324 123.672 286.117 123.479 285.955C123.289 285.792 122.994 285.667 122.592 285.58L121.104 285.267C120.267 285.093 119.647 284.799 119.246 284.386C118.844 283.97 118.645 283.443 118.649 282.807C118.645 282.269 118.791 281.803 119.087 281.409C119.386 281.011 119.801 280.705 120.331 280.489C120.865 280.269 121.481 280.159 122.178 280.159C123.2 280.159 124.005 280.377 124.592 280.812C125.183 281.248 125.549 281.837 125.689 282.58ZM131.379 289.17C130.508 289.17 129.76 288.979 129.135 288.597C128.514 288.214 128.035 287.686 127.697 287.011C127.364 286.333 127.197 285.553 127.197 284.67C127.197 283.784 127.368 283.002 127.709 282.324C128.05 281.642 128.531 281.112 129.152 280.733C129.777 280.35 130.516 280.159 131.368 280.159C132.076 280.159 132.703 280.29 133.249 280.551C133.798 280.809 134.235 281.174 134.561 281.648C134.887 282.117 135.072 282.667 135.118 283.295H133.152C133.072 282.875 132.883 282.525 132.584 282.244C132.288 281.96 131.893 281.818 131.396 281.818C130.976 281.818 130.607 281.932 130.288 282.159C129.97 282.383 129.722 282.705 129.544 283.125C129.37 283.545 129.283 284.049 129.283 284.636C129.283 285.231 129.37 285.742 129.544 286.17C129.718 286.595 129.963 286.922 130.277 287.153C130.595 287.381 130.968 287.494 131.396 287.494C131.699 287.494 131.97 287.437 132.209 287.324C132.451 287.206 132.654 287.038 132.817 286.818C132.98 286.598 133.091 286.331 133.152 286.017H135.118C135.069 286.634 134.887 287.182 134.572 287.659C134.258 288.133 133.83 288.504 133.288 288.773C132.747 289.038 132.11 289.17 131.379 289.17ZM136.807 289V280.273H138.801V281.727H138.892C139.051 281.223 139.324 280.835 139.71 280.562C140.1 280.286 140.545 280.148 141.045 280.148C141.159 280.148 141.286 280.153 141.426 280.165C141.57 280.172 141.689 280.186 141.784 280.205V282.097C141.697 282.066 141.559 282.04 141.369 282.017C141.184 281.991 141.004 281.977 140.83 281.977C140.455 281.977 140.117 282.059 139.818 282.222C139.523 282.381 139.29 282.602 139.119 282.886C138.949 283.17 138.864 283.498 138.864 283.869V289H136.807ZM143.151 289V280.273H145.207V289H143.151ZM144.185 279.034C143.859 279.034 143.579 278.926 143.344 278.71C143.109 278.491 142.991 278.227 142.991 277.92C142.991 277.61 143.109 277.347 143.344 277.131C143.579 276.911 143.859 276.801 144.185 276.801C144.514 276.801 144.795 276.911 145.026 277.131C145.26 277.347 145.378 277.61 145.378 277.92C145.378 278.227 145.26 278.491 145.026 278.71C144.795 278.926 144.514 279.034 144.185 279.034ZM147.322 292.273V280.273H149.345V281.716H149.464C149.571 281.504 149.72 281.278 149.913 281.04C150.107 280.797 150.368 280.591 150.697 280.42C151.027 280.246 151.447 280.159 151.959 280.159C152.633 280.159 153.241 280.331 153.783 280.676C154.328 281.017 154.76 281.523 155.078 282.193C155.4 282.86 155.561 283.678 155.561 284.648C155.561 285.606 155.404 286.42 155.089 287.091C154.775 287.761 154.347 288.273 153.805 288.625C153.264 288.977 152.65 289.153 151.964 289.153C151.464 289.153 151.05 289.07 150.72 288.903C150.391 288.737 150.125 288.536 149.925 288.301C149.728 288.062 149.574 287.837 149.464 287.625H149.379V292.273H147.322ZM149.339 284.636C149.339 285.201 149.419 285.695 149.578 286.119C149.741 286.544 149.974 286.875 150.277 287.114C150.584 287.348 150.955 287.466 151.391 287.466C151.845 287.466 152.226 287.345 152.533 287.102C152.839 286.856 153.071 286.521 153.226 286.097C153.385 285.669 153.464 285.182 153.464 284.636C153.464 284.095 153.387 283.614 153.232 283.193C153.076 282.773 152.845 282.443 152.538 282.205C152.232 281.966 151.849 281.847 151.391 281.847C150.951 281.847 150.578 281.962 150.271 282.193C149.964 282.424 149.732 282.748 149.572 283.165C149.417 283.581 149.339 284.072 149.339 284.636ZM161.68 280.273V281.864H156.663V280.273H161.68ZM157.902 278.182H159.959V286.375C159.959 286.652 160 286.864 160.084 287.011C160.171 287.155 160.285 287.254 160.425 287.307C160.565 287.36 160.72 287.386 160.891 287.386C161.019 287.386 161.137 287.377 161.243 287.358C161.353 287.339 161.436 287.322 161.493 287.307L161.839 288.915C161.73 288.953 161.572 288.994 161.368 289.04C161.167 289.085 160.921 289.112 160.629 289.119C160.114 289.134 159.65 289.057 159.237 288.886C158.824 288.712 158.497 288.443 158.254 288.08C158.016 287.716 157.898 287.261 157.902 286.716V278.182ZM163.401 289V280.273H165.457V289H163.401ZM164.435 279.034C164.109 279.034 163.829 278.926 163.594 278.71C163.359 278.491 163.241 278.227 163.241 277.92C163.241 277.61 163.359 277.347 163.594 277.131C163.829 276.911 164.109 276.801 164.435 276.801C164.764 276.801 165.045 276.911 165.276 277.131C165.51 277.347 165.628 277.61 165.628 277.92C165.628 278.227 165.51 278.491 165.276 278.71C165.045 278.926 164.764 279.034 164.435 279.034ZM171.379 289.17C170.527 289.17 169.788 288.983 169.163 288.608C168.538 288.233 168.054 287.708 167.709 287.034C167.368 286.36 167.197 285.572 167.197 284.67C167.197 283.769 167.368 282.979 167.709 282.301C168.054 281.623 168.538 281.097 169.163 280.722C169.788 280.347 170.527 280.159 171.379 280.159C172.232 280.159 172.97 280.347 173.595 280.722C174.22 281.097 174.703 281.623 175.044 282.301C175.389 282.979 175.561 283.769 175.561 284.67C175.561 285.572 175.389 286.36 175.044 287.034C174.703 287.708 174.22 288.233 173.595 288.608C172.97 288.983 172.232 289.17 171.379 289.17ZM171.391 287.523C171.853 287.523 172.239 287.396 172.55 287.142C172.86 286.884 173.091 286.54 173.243 286.108C173.398 285.676 173.476 285.195 173.476 284.665C173.476 284.131 173.398 283.648 173.243 283.216C173.091 282.78 172.86 282.434 172.55 282.176C172.239 281.919 171.853 281.79 171.391 281.79C170.917 281.79 170.523 281.919 170.209 282.176C169.898 282.434 169.665 282.78 169.51 283.216C169.358 283.648 169.283 284.131 169.283 284.665C169.283 285.195 169.358 285.676 169.51 286.108C169.665 286.54 169.898 286.884 170.209 287.142C170.523 287.396 170.917 287.523 171.391 287.523ZM179.364 283.886V289H177.307V280.273H179.273V281.756H179.375C179.576 281.267 179.896 280.879 180.335 280.591C180.778 280.303 181.326 280.159 181.977 280.159C182.58 280.159 183.104 280.288 183.551 280.545C184.002 280.803 184.35 281.176 184.597 281.665C184.847 282.153 184.97 282.746 184.966 283.443V289H182.909V283.761C182.909 283.178 182.758 282.722 182.455 282.392C182.155 282.062 181.741 281.898 181.21 281.898C180.85 281.898 180.53 281.977 180.25 282.136C179.973 282.292 179.756 282.517 179.597 282.812C179.441 283.108 179.364 283.466 179.364 283.886Z" fill="#F5F5F5"/>
<g opacity="0.5">
<path d="M84 64.5C95.8741 64.5 105.5 74.1259 105.5 86C105.5 97.8741 95.8741 107.5 84 107.5C72.1259 107.5 62.5 97.8741 62.5 86C62.5 74.1259 72.1259 64.5 84 64.5Z" fill="#2C2C2C"/>
<path d="M84 64.5C95.8741 64.5 105.5 74.1259 105.5 86C105.5 97.8741 95.8741 107.5 84 107.5C72.1259 107.5 62.5 97.8741 62.5 86C62.5 74.1259 72.1259 64.5 84 64.5Z" stroke="#2C2C2C" stroke-linecap="round"/>
<path d="M91.5 93.5L87.875 89.875M83.1667 82.6667V87.6667M80.6667 85.1667H85.6667M89.8333 85.1667C89.8333 88.8486 86.8486 91.8333 83.1667 91.8333C79.4848 91.8333 76.5 88.8486 76.5 85.1667C76.5 81.4848 79.4848 78.5 83.1667 78.5C86.8486 78.5 89.8333 81.4848 89.8333 85.1667Z" stroke="#F5F5F5" stroke-width="2" stroke-linecap="round" stroke-linejoin="round"/>
</g>
<path d="M305.5 355.5L308.59 361.76L315.5 362.77L310.5 367.64L311.68 374.52L305.5 371.27L299.32 374.52L300.5 367.64L295.5 362.77L302.41 361.76L305.5 355.5Z" stroke="#757575" stroke-width="2.5" stroke-linecap="round" stroke-linejoin="round"/>
<path d="M282.92 390.754H281.06C281.007 390.449 280.909 390.179 280.767 389.943C280.624 389.705 280.447 389.502 280.235 389.337C280.023 389.171 279.781 389.047 279.509 388.964C279.241 388.878 278.951 388.835 278.639 388.835C278.086 388.835 277.595 388.974 277.168 389.252C276.74 389.527 276.405 389.932 276.163 390.465C275.921 390.996 275.8 391.643 275.8 392.409C275.8 393.188 275.921 393.844 276.163 394.378C276.409 394.908 276.743 395.309 277.168 395.581C277.595 395.849 278.084 395.984 278.634 395.984C278.939 395.984 279.224 395.944 279.489 395.864C279.758 395.781 279.998 395.661 280.21 395.501C280.426 395.342 280.606 395.147 280.752 394.915C280.901 394.683 281.004 394.418 281.06 394.119L282.92 394.129C282.85 394.613 282.699 395.067 282.467 395.491C282.239 395.916 281.939 396.29 281.567 396.615C281.196 396.937 280.762 397.188 280.265 397.371C279.768 397.55 279.216 397.639 278.609 397.639C277.714 397.639 276.916 397.432 276.213 397.018C275.51 396.603 274.957 396.005 274.552 395.223C274.148 394.441 273.946 393.503 273.946 392.409C273.946 391.312 274.15 390.374 274.557 389.595C274.965 388.813 275.52 388.215 276.223 387.8C276.926 387.386 277.721 387.179 278.609 387.179C279.176 387.179 279.703 387.259 280.19 387.418C280.677 387.577 281.112 387.81 281.493 388.119C281.874 388.424 282.187 388.798 282.432 389.242C282.681 389.683 282.843 390.187 282.92 390.754ZM287.86 397.649C287.114 397.649 286.468 397.485 285.921 397.157C285.374 396.829 284.95 396.37 284.649 395.78C284.35 395.19 284.201 394.5 284.201 393.712C284.201 392.923 284.35 392.232 284.649 391.638C284.95 391.045 285.374 390.585 285.921 390.256C286.468 389.928 287.114 389.764 287.86 389.764C288.606 389.764 289.252 389.928 289.799 390.256C290.346 390.585 290.769 391.045 291.067 391.638C291.368 392.232 291.519 392.923 291.519 393.712C291.519 394.5 291.368 395.19 291.067 395.78C290.769 396.37 290.346 396.829 289.799 397.157C289.252 397.485 288.606 397.649 287.86 397.649ZM287.87 396.207C288.274 396.207 288.613 396.096 288.884 395.874C289.156 395.649 289.358 395.347 289.491 394.969C289.627 394.592 289.695 394.171 289.695 393.707C289.695 393.239 289.627 392.817 289.491 392.439C289.358 392.058 289.156 391.754 288.884 391.529C288.613 391.304 288.274 391.191 287.87 391.191C287.456 391.191 287.111 391.304 286.836 391.529C286.564 391.754 286.36 392.058 286.225 392.439C286.092 392.817 286.026 393.239 286.026 393.707C286.026 394.171 286.092 394.592 286.225 394.969C286.36 395.347 286.564 395.649 286.836 395.874C287.111 396.096 287.456 396.207 287.87 396.207ZM293.047 397.5V389.864H294.767V391.161H294.856C295.016 390.724 295.279 390.382 295.647 390.137C296.015 389.888 296.454 389.764 296.964 389.764C297.481 389.764 297.917 389.89 298.272 390.142C298.63 390.391 298.882 390.73 299.028 391.161H299.107C299.276 390.737 299.561 390.399 299.962 390.147C300.367 389.892 300.846 389.764 301.399 389.764C302.102 389.764 302.675 389.986 303.119 390.43C303.563 390.875 303.785 391.522 303.785 392.374V397.5H301.981V392.653C301.981 392.179 301.855 391.832 301.603 391.614C301.351 391.392 301.043 391.281 300.678 391.281C300.244 391.281 299.904 391.416 299.659 391.688C299.417 391.957 299.296 392.306 299.296 392.737V397.5H297.531V392.578C297.531 392.184 297.412 391.869 297.173 391.634C296.938 391.398 296.63 391.281 296.248 391.281C295.99 391.281 295.755 391.347 295.543 391.479C295.33 391.609 295.161 391.793 295.035 392.031C294.909 392.267 294.847 392.542 294.847 392.857V397.5H293.047ZM305.611 400.364V389.864H307.381V391.126H307.486C307.578 390.941 307.709 390.744 307.878 390.535C308.047 390.323 308.276 390.142 308.564 389.993C308.853 389.84 309.221 389.764 309.668 389.764C310.258 389.764 310.79 389.915 311.264 390.217C311.741 390.515 312.119 390.957 312.397 391.544C312.679 392.127 312.82 392.843 312.82 393.692C312.82 394.53 312.682 395.243 312.407 395.83C312.132 396.416 311.758 396.864 311.284 397.172C310.81 397.48 310.273 397.634 309.673 397.634C309.236 397.634 308.873 397.561 308.584 397.415C308.296 397.27 308.064 397.094 307.888 396.888C307.716 396.68 307.582 396.482 307.486 396.297H307.411V400.364H305.611ZM307.376 393.682C307.376 394.176 307.446 394.608 307.585 394.979C307.727 395.351 307.931 395.641 308.196 395.849C308.465 396.055 308.79 396.158 309.171 396.158C309.569 396.158 309.902 396.052 310.17 395.839C310.439 395.624 310.641 395.331 310.777 394.96C310.916 394.585 310.986 394.159 310.986 393.682C310.986 393.208 310.918 392.787 310.782 392.419C310.646 392.051 310.444 391.763 310.175 391.554C309.907 391.345 309.572 391.241 309.171 391.241C308.786 391.241 308.46 391.342 308.191 391.544C307.923 391.746 307.719 392.03 307.58 392.394C307.444 392.759 307.376 393.188 307.376 393.682ZM316.559 397.654C316.075 397.654 315.639 397.568 315.251 397.396C314.867 397.22 314.562 396.961 314.336 396.62C314.114 396.279 314.003 395.858 314.003 395.357C314.003 394.926 314.083 394.57 314.242 394.288C314.401 394.007 314.618 393.781 314.893 393.612C315.168 393.443 315.478 393.316 315.823 393.229C316.171 393.14 316.531 393.075 316.902 393.036C317.349 392.989 317.712 392.948 317.991 392.911C318.269 392.871 318.471 392.812 318.597 392.732C318.726 392.649 318.791 392.522 318.791 392.349V392.32C318.791 391.945 318.68 391.655 318.458 391.45C318.236 391.244 317.916 391.141 317.498 391.141C317.057 391.141 316.708 391.237 316.449 391.43C316.194 391.622 316.022 391.849 315.932 392.111L314.252 391.872C314.384 391.408 314.603 391.02 314.908 390.709C315.213 390.394 315.586 390.159 316.027 390.003C316.468 389.844 316.955 389.764 317.488 389.764C317.856 389.764 318.223 389.807 318.587 389.893C318.952 389.98 319.285 390.122 319.586 390.321C319.888 390.517 320.13 390.783 320.312 391.121C320.498 391.46 320.591 391.882 320.591 392.389V397.5H318.861V396.451H318.801C318.691 396.663 318.537 396.862 318.339 397.048C318.143 397.23 317.896 397.377 317.598 397.49C317.303 397.599 316.956 397.654 316.559 397.654ZM317.026 396.332C317.387 396.332 317.7 396.26 317.966 396.118C318.231 395.972 318.435 395.78 318.577 395.541C318.723 395.303 318.796 395.042 318.796 394.761V393.861C318.74 393.907 318.643 393.95 318.508 393.99C318.375 394.03 318.226 394.065 318.06 394.094C317.894 394.124 317.73 394.151 317.568 394.174C317.406 394.197 317.265 394.217 317.145 394.234C316.877 394.27 316.637 394.33 316.424 394.413C316.212 394.496 316.045 394.612 315.922 394.761C315.8 394.906 315.738 395.095 315.738 395.327C315.738 395.659 315.859 395.909 316.101 396.078C316.343 396.247 316.651 396.332 317.026 396.332ZM324.2 393.026V397.5H322.4V389.864H324.12V391.161H324.21C324.386 390.734 324.666 390.394 325.05 390.142C325.438 389.89 325.917 389.764 326.487 389.764C327.014 389.764 327.473 389.877 327.864 390.102C328.258 390.328 328.563 390.654 328.779 391.082C328.998 391.509 329.105 392.028 329.102 392.638V397.5H327.302V392.916C327.302 392.406 327.17 392.006 326.905 391.718C326.643 391.43 326.28 391.286 325.816 391.286C325.501 391.286 325.221 391.355 324.976 391.494C324.734 391.63 324.543 391.827 324.404 392.086C324.268 392.344 324.2 392.658 324.2 393.026ZM331.777 400.364C331.531 400.364 331.304 400.344 331.096 400.304C330.89 400.268 330.726 400.224 330.603 400.175L331.021 398.773C331.283 398.849 331.517 398.885 331.722 398.882C331.928 398.879 332.108 398.814 332.264 398.688C332.423 398.566 332.557 398.36 332.667 398.072L332.821 397.659L330.052 389.864H331.961L333.721 395.631H333.8L335.565 389.864H337.479L334.422 398.425C334.279 398.829 334.09 399.175 333.855 399.464C333.62 399.755 333.331 399.978 332.99 400.13C332.652 400.286 332.247 400.364 331.777 400.364Z" fill="#757575"/>
<path d="M383.5 355.5L386.59 361.76L393.5 362.77L388.5 367.64L389.68 374.52L383.5 371.27L377.32 374.52L378.5 367.64L373.5 362.77L380.41 361.76L383.5 355.5Z" stroke="#2C2C2C" stroke-width="2.5" stroke-linecap="round" stroke-linejoin="round"/>
<path d="M355.349 397.5V387.318H359.167C359.949 387.318 360.606 387.464 361.136 387.756C361.67 388.047 362.072 388.448 362.344 388.959C362.619 389.466 362.757 390.043 362.757 390.689C362.757 391.342 362.619 391.922 362.344 392.429C362.069 392.936 361.663 393.335 361.126 393.627C360.589 393.915 359.928 394.06 359.142 394.06H356.612V392.543H358.894C359.351 392.543 359.726 392.464 360.017 392.305C360.309 392.146 360.524 391.927 360.664 391.648C360.806 391.37 360.877 391.05 360.877 390.689C360.877 390.328 360.806 390.009 360.664 389.734C360.524 389.459 360.307 389.246 360.012 389.093C359.721 388.937 359.344 388.859 358.884 388.859H357.193V397.5H355.349ZM364.279 397.5V389.864H366.024V391.136H366.104C366.243 390.696 366.482 390.356 366.82 390.117C367.161 389.875 367.551 389.754 367.988 389.754C368.087 389.754 368.198 389.759 368.321 389.769C368.447 389.776 368.551 389.787 368.634 389.804V391.46C368.558 391.433 368.437 391.41 368.271 391.39C368.109 391.367 367.952 391.355 367.799 391.355C367.471 391.355 367.176 391.426 366.914 391.569C366.656 391.708 366.452 391.902 366.303 392.151C366.153 392.399 366.079 392.686 366.079 393.011V397.5H364.279ZM372.847 397.649C372.101 397.649 371.454 397.485 370.908 397.157C370.361 396.829 369.936 396.37 369.635 395.78C369.337 395.19 369.187 394.5 369.187 393.712C369.187 392.923 369.337 392.232 369.635 391.638C369.936 391.045 370.361 390.585 370.908 390.256C371.454 389.928 372.101 389.764 372.847 389.764C373.592 389.764 374.239 389.928 374.785 390.256C375.332 390.585 375.755 391.045 376.053 391.638C376.355 392.232 376.506 392.923 376.506 393.712C376.506 394.5 376.355 395.19 376.053 395.78C375.755 396.37 375.332 396.829 374.785 397.157C374.239 397.485 373.592 397.649 372.847 397.649ZM372.856 396.207C373.261 396.207 373.599 396.096 373.871 395.874C374.142 395.649 374.345 395.347 374.477 394.969C374.613 394.592 374.681 394.171 374.681 393.707C374.681 393.239 374.613 392.817 374.477 392.439C374.345 392.058 374.142 391.754 373.871 391.529C373.599 391.304 373.261 391.191 372.856 391.191C372.442 391.191 372.097 391.304 371.822 391.529C371.551 391.754 371.347 392.058 371.211 392.439C371.078 392.817 371.012 393.239 371.012 393.707C371.012 394.171 371.078 394.592 371.211 394.969C371.347 395.347 371.551 395.649 371.822 395.874C372.097 396.096 372.442 396.207 372.856 396.207ZM378.033 389.864H379.833V397.938C379.833 398.488 379.728 398.942 379.52 399.3C379.311 399.658 379.009 399.924 378.615 400.1C378.22 400.276 377.741 400.364 377.178 400.364C377.112 400.364 377.05 400.362 376.994 400.359C376.938 400.359 376.876 400.357 376.81 400.354V398.887C376.86 398.89 376.905 398.892 376.944 398.892C376.984 398.895 377.026 398.897 377.069 398.897C377.413 398.897 377.66 398.813 377.809 398.643C377.959 398.478 378.033 398.234 378.033 397.913V389.864ZM378.928 388.78C378.64 388.78 378.393 388.685 378.187 388.496C377.985 388.304 377.884 388.074 377.884 387.805C377.884 387.534 377.985 387.303 378.187 387.114C378.393 386.922 378.64 386.826 378.928 386.826C379.213 386.826 379.457 386.922 379.659 387.114C379.864 387.303 379.967 387.534 379.967 387.805C379.967 388.074 379.864 388.304 379.659 388.496C379.457 388.685 379.213 388.78 378.928 388.78ZM385.064 397.649C384.299 397.649 383.637 397.49 383.081 397.172C382.527 396.85 382.101 396.396 381.803 395.81C381.505 395.22 381.355 394.525 381.355 393.727C381.355 392.941 381.505 392.252 381.803 391.658C382.104 391.062 382.525 390.598 383.066 390.266C383.606 389.932 384.241 389.764 384.97 389.764C385.44 389.764 385.884 389.84 386.302 389.993C386.723 390.142 387.094 390.374 387.416 390.689C387.741 391.004 387.996 391.405 388.181 391.892C388.367 392.376 388.46 392.953 388.46 393.622V394.174H382.201V392.961H386.735C386.731 392.616 386.657 392.31 386.511 392.041C386.365 391.769 386.161 391.556 385.899 391.4C385.641 391.244 385.339 391.166 384.995 391.166C384.627 391.166 384.304 391.256 384.025 391.435C383.747 391.61 383.53 391.842 383.374 392.131C383.221 392.416 383.143 392.729 383.14 393.07V394.129C383.14 394.573 383.221 394.955 383.384 395.273C383.546 395.588 383.773 395.83 384.065 395.999C384.357 396.164 384.698 396.247 385.089 396.247C385.351 396.247 385.588 396.211 385.8 396.138C386.012 396.062 386.196 395.951 386.352 395.805C386.508 395.659 386.625 395.478 386.705 395.263L388.385 395.452C388.279 395.896 388.077 396.284 387.779 396.615C387.484 396.943 387.106 397.198 386.645 397.381C386.184 397.56 385.657 397.649 385.064 397.649ZM393.313 397.649C392.551 397.649 391.896 397.482 391.35 397.147C390.806 396.812 390.387 396.35 390.092 395.76C389.8 395.167 389.654 394.484 389.654 393.712C389.654 392.936 389.803 392.252 390.102 391.658C390.4 391.062 390.821 390.598 391.364 390.266C391.911 389.932 392.558 389.764 393.303 389.764C393.923 389.764 394.472 389.879 394.949 390.107C395.43 390.333 395.812 390.652 396.097 391.067C396.382 391.478 396.545 391.958 396.585 392.509H394.864C394.795 392.141 394.629 391.834 394.367 391.589C394.109 391.34 393.762 391.216 393.328 391.216C392.96 391.216 392.637 391.315 392.359 391.514C392.08 391.71 391.863 391.991 391.707 392.359C391.555 392.727 391.479 393.168 391.479 393.682C391.479 394.202 391.555 394.65 391.707 395.024C391.86 395.395 392.074 395.682 392.349 395.884C392.627 396.083 392.954 396.183 393.328 396.183C393.593 396.183 393.83 396.133 394.039 396.033C394.251 395.931 394.429 395.783 394.571 395.591C394.714 395.399 394.811 395.165 394.864 394.89H396.585C396.542 395.43 396.382 395.909 396.107 396.327C395.832 396.741 395.458 397.066 394.984 397.301C394.51 397.533 393.953 397.649 393.313 397.649ZM401.876 389.864V391.256H397.486V389.864H401.876ZM398.57 388.034H400.369V395.203C400.369 395.445 400.406 395.631 400.479 395.76C400.555 395.886 400.654 395.972 400.777 396.018C400.9 396.065 401.035 396.088 401.185 396.088C401.297 396.088 401.4 396.08 401.493 396.063C401.589 396.047 401.662 396.032 401.712 396.018L402.015 397.425C401.919 397.459 401.781 397.495 401.602 397.535C401.427 397.575 401.211 397.598 400.956 397.604C400.505 397.618 400.099 397.55 399.738 397.401C399.377 397.248 399.09 397.013 398.878 396.695C398.669 396.376 398.566 395.979 398.57 395.501V388.034ZM410.975 387.318V397.5H409.13V389.113H409.071L406.689 390.634V388.944L409.22 387.318H410.975Z" fill="#2C2C2C"/>
<path d="M459.5 355.5L462.59 361.76L469.5 362.77L464.5 367.64L465.68 374.52L459.5 371.27L453.32 374.52L454.5 367.64L449.5 362.77L456.41 361.76L459.5 355.5Z" stroke="#757575" stroke-width="2.5" stroke-linecap="round" stroke-linejoin="round"/>
<path d="M430.365 397.5V387.318H434.183C434.965 387.318 435.621 387.464 436.152 387.756C436.685 388.047 437.088 388.448 437.36 388.959C437.635 389.466 437.772 390.043 437.772 390.689C437.772 391.342 437.635 391.922 437.36 392.429C437.085 392.936 436.679 393.335 436.142 393.627C435.605 393.915 434.943 394.06 434.158 394.06H431.627V392.543H433.909C434.367 392.543 434.741 392.464 435.033 392.305C435.325 392.146 435.54 391.927 435.679 391.648C435.822 391.37 435.893 391.05 435.893 390.689C435.893 390.328 435.822 390.009 435.679 389.734C435.54 389.459 435.323 389.246 435.028 389.093C434.736 388.937 434.36 388.859 433.899 388.859H432.209V397.5H430.365ZM439.295 397.5V389.864H441.04V391.136H441.119C441.259 390.696 441.497 390.356 441.835 390.117C442.177 389.875 442.566 389.754 443.004 389.754C443.103 389.754 443.214 389.759 443.337 389.769C443.463 389.776 443.567 389.787 443.65 389.804V391.46C443.574 391.433 443.453 391.41 443.287 391.39C443.125 391.367 442.967 391.355 442.815 391.355C442.487 391.355 442.192 391.426 441.93 391.569C441.671 391.708 441.467 391.902 441.318 392.151C441.169 392.399 441.095 392.686 441.095 393.011V397.5H439.295ZM447.862 397.649C447.116 397.649 446.47 397.485 445.923 397.157C445.376 396.829 444.952 396.37 444.65 395.78C444.352 395.19 444.203 394.5 444.203 393.712C444.203 392.923 444.352 392.232 444.65 391.638C444.952 391.045 445.376 390.585 445.923 390.256C446.47 389.928 447.116 389.764 447.862 389.764C448.608 389.764 449.254 389.928 449.801 390.256C450.348 390.585 450.771 391.045 451.069 391.638C451.37 392.232 451.521 392.923 451.521 393.712C451.521 394.5 451.37 395.19 451.069 395.78C450.771 396.37 450.348 396.829 449.801 397.157C449.254 397.485 448.608 397.649 447.862 397.649ZM447.872 396.207C448.276 396.207 448.614 396.096 448.886 395.874C449.158 395.649 449.36 395.347 449.493 394.969C449.629 394.592 449.697 394.171 449.697 393.707C449.697 393.239 449.629 392.817 449.493 392.439C449.36 392.058 449.158 391.754 448.886 391.529C448.614 391.304 448.276 391.191 447.872 391.191C447.458 391.191 447.113 391.304 446.838 391.529C446.566 391.754 446.362 392.058 446.226 392.439C446.094 392.817 446.028 393.239 446.028 393.707C446.028 394.171 446.094 394.592 446.226 394.969C446.362 395.347 446.566 395.649 446.838 395.874C447.113 396.096 447.458 396.207 447.872 396.207ZM453.049 389.864H454.848V397.938C454.848 398.488 454.744 398.942 454.535 399.3C454.326 399.658 454.025 399.924 453.63 400.1C453.236 400.276 452.757 400.364 452.194 400.364C452.127 400.364 452.066 400.362 452.01 400.359C451.953 400.359 451.892 400.357 451.826 400.354V398.887C451.875 398.89 451.92 398.892 451.96 398.892C452 398.895 452.041 398.897 452.084 398.897C452.429 398.897 452.676 398.813 452.825 398.643C452.974 398.478 453.049 398.234 453.049 397.913V389.864ZM453.944 388.78C453.655 388.78 453.408 388.685 453.203 388.496C453.001 388.304 452.9 388.074 452.9 387.805C452.9 387.534 453.001 387.303 453.203 387.114C453.408 386.922 453.655 386.826 453.944 386.826C454.229 386.826 454.472 386.922 454.674 387.114C454.88 387.303 454.983 387.534 454.983 387.805C454.983 388.074 454.88 388.304 454.674 388.496C454.472 388.685 454.229 388.78 453.944 388.78ZM460.08 397.649C459.314 397.649 458.653 397.49 458.096 397.172C457.543 396.85 457.117 396.396 456.818 395.81C456.52 395.22 456.371 394.525 456.371 393.727C456.371 392.941 456.52 392.252 456.818 391.658C457.12 391.062 457.541 390.598 458.081 390.266C458.621 389.932 459.256 389.764 459.985 389.764C460.456 389.764 460.9 389.84 461.318 389.993C461.739 390.142 462.11 390.374 462.431 390.689C462.756 391.004 463.011 391.405 463.197 391.892C463.383 392.376 463.475 392.953 463.475 393.622V394.174H457.216V392.961H461.75C461.747 392.616 461.672 392.31 461.527 392.041C461.381 391.769 461.177 391.556 460.915 391.4C460.657 391.244 460.355 391.166 460.01 391.166C459.642 391.166 459.319 391.256 459.041 391.435C458.762 391.61 458.545 391.842 458.389 392.131C458.237 392.416 458.159 392.729 458.156 393.07V394.129C458.156 394.573 458.237 394.955 458.399 395.273C458.562 395.588 458.789 395.83 459.081 395.999C459.372 396.164 459.714 396.247 460.105 396.247C460.367 396.247 460.603 396.211 460.816 396.138C461.028 396.062 461.212 395.951 461.367 395.805C461.523 395.659 461.641 395.478 461.72 395.263L463.401 395.452C463.295 395.896 463.093 396.284 462.794 396.615C462.499 396.943 462.121 397.198 461.661 397.381C461.2 397.56 460.673 397.649 460.08 397.649ZM468.329 397.649C467.567 397.649 466.912 397.482 466.365 397.147C465.822 396.812 465.402 396.35 465.107 395.76C464.816 395.167 464.67 394.484 464.67 393.712C464.67 392.936 464.819 392.252 465.117 391.658C465.416 391.062 465.836 390.598 466.38 390.266C466.927 389.932 467.573 389.764 468.319 389.764C468.939 389.764 469.487 389.879 469.965 390.107C470.445 390.333 470.828 390.652 471.113 391.067C471.398 391.478 471.56 391.958 471.6 392.509H469.88C469.81 392.141 469.645 391.834 469.383 391.589C469.124 391.34 468.778 391.216 468.344 391.216C467.976 391.216 467.653 391.315 467.374 391.514C467.096 391.71 466.879 391.991 466.723 392.359C466.571 392.727 466.494 393.168 466.494 393.682C466.494 394.202 466.571 394.65 466.723 395.024C466.876 395.395 467.089 395.682 467.364 395.884C467.643 396.083 467.969 396.183 468.344 396.183C468.609 396.183 468.846 396.133 469.055 396.033C469.267 395.931 469.444 395.783 469.587 395.591C469.729 395.399 469.827 395.165 469.88 394.89H471.6C471.557 395.43 471.398 395.909 471.123 396.327C470.848 396.741 470.473 397.066 469.999 397.301C469.525 397.533 468.969 397.649 468.329 397.649ZM476.891 389.864V391.256H472.501V389.864H476.891ZM473.585 388.034H475.385V395.203C475.385 395.445 475.421 395.631 475.494 395.76C475.57 395.886 475.67 395.972 475.793 396.018C475.915 396.065 476.051 396.088 476.2 396.088C476.313 396.088 476.416 396.08 476.508 396.063C476.605 396.047 476.677 396.032 476.727 396.018L477.03 397.425C476.934 397.459 476.797 397.495 476.618 397.535C476.442 397.575 476.227 397.598 475.972 397.604C475.521 397.618 475.115 397.55 474.753 397.401C474.392 397.248 474.105 397.013 473.893 396.695C473.685 396.376 473.582 395.979 473.585 395.501V388.034ZM481.849 397.5V396.168L485.384 392.702C485.722 392.361 486.004 392.058 486.229 391.793C486.455 391.527 486.624 391.271 486.736 391.022C486.849 390.773 486.905 390.508 486.905 390.227C486.905 389.905 486.832 389.63 486.687 389.401C486.541 389.169 486.34 388.99 486.085 388.864C485.83 388.738 485.54 388.675 485.215 388.675C484.88 388.675 484.587 388.745 484.335 388.884C484.083 389.02 483.888 389.214 483.748 389.466C483.612 389.718 483.544 390.018 483.544 390.366H481.79C481.79 389.719 481.937 389.158 482.232 388.68C482.527 388.203 482.933 387.834 483.45 387.572C483.97 387.31 484.567 387.179 485.24 387.179C485.923 387.179 486.522 387.307 487.04 387.562C487.557 387.817 487.958 388.167 488.243 388.611C488.531 389.055 488.675 389.562 488.675 390.132C488.675 390.513 488.602 390.888 488.456 391.256C488.311 391.624 488.054 392.031 487.686 392.479C487.321 392.926 486.809 393.468 486.15 394.104L484.395 395.889V395.959H488.829V397.5H481.849Z" fill="#757575"/>
<path d="M536.5 355.5L539.59 361.76L546.5 362.77L541.5 367.64L542.68 374.52L536.5 371.27L530.32 374.52L531.5 367.64L526.5 362.77L533.41 361.76L536.5 355.5Z" stroke="#757575" stroke-width="2.5" stroke-linecap="round" stroke-linejoin="round"/>
<path d="M507.153 397.5V387.318H510.971C511.753 387.318 512.409 387.464 512.94 387.756C513.473 388.047 513.876 388.448 514.148 388.959C514.423 389.466 514.56 390.043 514.56 390.689C514.56 391.342 514.423 391.922 514.148 392.429C513.873 392.936 513.467 393.335 512.93 393.627C512.393 393.915 511.732 394.06 510.946 394.06H508.415V392.543H510.697C511.155 392.543 511.529 392.464 511.821 392.305C512.113 392.146 512.328 391.927 512.467 391.648C512.61 391.37 512.681 391.05 512.681 390.689C512.681 390.328 512.61 390.009 512.467 389.734C512.328 389.459 512.111 389.246 511.816 389.093C511.524 388.937 511.148 388.859 510.688 388.859H508.997V397.5H507.153ZM516.083 397.5V389.864H517.828V391.136H517.907C518.047 390.696 518.285 390.356 518.623 390.117C518.965 389.875 519.354 389.754 519.792 389.754C519.891 389.754 520.002 389.759 520.125 389.769C520.251 389.776 520.355 389.787 520.438 389.804V391.46C520.362 391.433 520.241 391.41 520.075 391.39C519.913 391.367 519.755 391.355 519.603 391.355C519.275 391.355 518.98 391.426 518.718 391.569C518.459 391.708 518.256 391.902 518.106 392.151C517.957 392.399 517.883 392.686 517.883 393.011V397.5H516.083ZM524.65 397.649C523.904 397.649 523.258 397.485 522.711 397.157C522.164 396.829 521.74 396.37 521.439 395.78C521.14 395.19 520.991 394.5 520.991 393.712C520.991 392.923 521.14 392.232 521.439 391.638C521.74 391.045 522.164 390.585 522.711 390.256C523.258 389.928 523.904 389.764 524.65 389.764C525.396 389.764 526.042 389.928 526.589 390.256C527.136 390.585 527.559 391.045 527.857 391.638C528.158 392.232 528.309 392.923 528.309 393.712C528.309 394.5 528.158 395.19 527.857 395.78C527.559 396.37 527.136 396.829 526.589 397.157C526.042 397.485 525.396 397.649 524.65 397.649ZM524.66 396.207C525.065 396.207 525.403 396.096 525.674 395.874C525.946 395.649 526.148 395.347 526.281 394.969C526.417 394.592 526.485 394.171 526.485 393.707C526.485 393.239 526.417 392.817 526.281 392.439C526.148 392.058 525.946 391.754 525.674 391.529C525.403 391.304 525.065 391.191 524.66 391.191C524.246 391.191 523.901 391.304 523.626 391.529C523.354 391.754 523.15 392.058 523.015 392.439C522.882 392.817 522.816 393.239 522.816 393.707C522.816 394.171 522.882 394.592 523.015 394.969C523.15 395.347 523.354 395.649 523.626 395.874C523.901 396.096 524.246 396.207 524.66 396.207ZM529.837 389.864H531.637V397.938C531.637 398.488 531.532 398.942 531.323 399.3C531.115 399.658 530.813 399.924 530.419 400.1C530.024 400.276 529.545 400.364 528.982 400.364C528.915 400.364 528.854 400.362 528.798 400.359C528.741 400.359 528.68 400.357 528.614 400.354V398.887C528.664 398.89 528.708 398.892 528.748 398.892C528.788 398.895 528.829 398.897 528.872 398.897C529.217 398.897 529.464 398.813 529.613 398.643C529.762 398.478 529.837 398.234 529.837 397.913V389.864ZM530.732 388.78C530.443 388.78 530.196 388.685 529.991 388.496C529.789 388.304 529.688 388.074 529.688 387.805C529.688 387.534 529.789 387.303 529.991 387.114C530.196 386.922 530.443 386.826 530.732 386.826C531.017 386.826 531.26 386.922 531.463 387.114C531.668 387.303 531.771 387.534 531.771 387.805C531.771 388.074 531.668 388.304 531.463 388.496C531.26 388.685 531.017 388.78 530.732 388.78ZM536.868 397.649C536.102 397.649 535.441 397.49 534.884 397.172C534.331 396.85 533.905 396.396 533.607 395.81C533.308 395.22 533.159 394.525 533.159 393.727C533.159 392.941 533.308 392.252 533.607 391.658C533.908 391.062 534.329 390.598 534.869 390.266C535.41 389.932 536.044 389.764 536.773 389.764C537.244 389.764 537.688 389.84 538.106 389.993C538.527 390.142 538.898 390.374 539.219 390.689C539.544 391.004 539.799 391.405 539.985 391.892C540.171 392.376 540.263 392.953 540.263 393.622V394.174H534.004V392.961H538.538C538.535 392.616 538.46 392.31 538.315 392.041C538.169 391.769 537.965 391.556 537.703 391.4C537.445 391.244 537.143 391.166 536.798 391.166C536.43 391.166 536.107 391.256 535.829 391.435C535.55 391.61 535.333 391.842 535.178 392.131C535.025 392.416 534.947 392.729 534.944 393.07V394.129C534.944 394.573 535.025 394.955 535.188 395.273C535.35 395.588 535.577 395.83 535.869 395.999C536.16 396.164 536.502 396.247 536.893 396.247C537.155 396.247 537.392 396.211 537.604 396.138C537.816 396.062 538 395.951 538.156 395.805C538.311 395.659 538.429 395.478 538.509 395.263L540.189 395.452C540.083 395.896 539.881 396.284 539.582 396.615C539.287 396.943 538.91 397.198 538.449 397.381C537.988 397.56 537.461 397.649 536.868 397.649ZM545.117 397.649C544.355 397.649 543.7 397.482 543.153 397.147C542.61 396.812 542.19 396.35 541.895 395.76C541.604 395.167 541.458 394.484 541.458 393.712C541.458 392.936 541.607 392.252 541.905 391.658C542.204 391.062 542.625 390.598 543.168 390.266C543.715 389.932 544.361 389.764 545.107 389.764C545.727 389.764 546.275 389.879 546.753 390.107C547.233 390.333 547.616 390.652 547.901 391.067C548.186 391.478 548.349 391.958 548.388 392.509H546.668C546.599 392.141 546.433 391.834 546.171 391.589C545.912 391.34 545.566 391.216 545.132 391.216C544.764 391.216 544.441 391.315 544.162 391.514C543.884 391.71 543.667 391.991 543.511 392.359C543.359 392.727 543.282 393.168 543.282 393.682C543.282 394.202 543.359 394.65 543.511 395.024C543.664 395.395 543.877 395.682 544.153 395.884C544.431 396.083 544.757 396.183 545.132 396.183C545.397 396.183 545.634 396.133 545.843 396.033C546.055 395.931 546.232 395.783 546.375 395.591C546.517 395.399 546.615 395.165 546.668 394.89H548.388C548.345 395.43 548.186 395.909 547.911 396.327C547.636 396.741 547.261 397.066 546.787 397.301C546.314 397.533 545.757 397.649 545.117 397.649ZM553.679 389.864V391.256H549.289V389.864H553.679ZM550.373 388.034H552.173V395.203C552.173 395.445 552.209 395.631 552.282 395.76C552.359 395.886 552.458 395.972 552.581 396.018C552.703 396.065 552.839 396.088 552.988 396.088C553.101 396.088 553.204 396.08 553.297 396.063C553.393 396.047 553.466 396.032 553.515 396.018L553.819 397.425C553.722 397.459 553.585 397.495 553.406 397.535C553.23 397.575 553.015 397.598 552.76 397.604C552.309 397.618 551.903 397.55 551.542 397.401C551.18 397.248 550.894 397.013 550.681 396.695C550.473 396.376 550.37 395.979 550.373 395.501V388.034ZM562.291 397.639C561.575 397.639 560.939 397.517 560.382 397.271C559.829 397.026 559.391 396.685 559.07 396.247C558.748 395.81 558.578 395.304 558.558 394.731H560.427C560.444 395.006 560.535 395.246 560.7 395.452C560.866 395.654 561.087 395.811 561.362 395.924C561.637 396.037 561.945 396.093 562.286 396.093C562.651 396.093 562.974 396.03 563.256 395.904C563.538 395.775 563.758 395.596 563.917 395.367C564.076 395.138 564.154 394.875 564.151 394.577C564.154 394.268 564.075 393.997 563.912 393.761C563.75 393.526 563.514 393.342 563.206 393.21C562.901 393.077 562.533 393.011 562.102 393.011H561.203V391.589H562.102C562.457 391.589 562.767 391.527 563.032 391.405C563.301 391.282 563.511 391.11 563.664 390.888C563.816 390.662 563.891 390.402 563.887 390.107C563.891 389.819 563.826 389.569 563.693 389.357C563.564 389.141 563.38 388.974 563.142 388.854C562.906 388.735 562.629 388.675 562.311 388.675C562 388.675 561.711 388.732 561.446 388.844C561.181 388.957 560.967 389.118 560.805 389.327C560.642 389.532 560.556 389.777 560.546 390.062H558.771C558.785 389.492 558.949 388.992 559.264 388.561C559.582 388.127 560.006 387.789 560.536 387.547C561.067 387.302 561.662 387.179 562.321 387.179C563.001 387.179 563.591 387.307 564.091 387.562C564.595 387.814 564.984 388.153 565.259 388.581C565.535 389.009 565.672 389.481 565.672 389.998C565.675 390.571 565.506 391.052 565.165 391.44C564.827 391.827 564.383 392.081 563.833 392.2V392.28C564.548 392.379 565.097 392.644 565.478 393.075C565.863 393.503 566.053 394.035 566.05 394.671C566.05 395.241 565.887 395.752 565.563 396.202C565.241 396.65 564.797 397.001 564.23 397.256C563.667 397.512 563.021 397.639 562.291 397.639Z" fill="#757575"/>
</svg>
