<svg width="840" height="425" viewBox="0 0 840 425" fill="none" xmlns="http://www.w3.org/2000/svg">
<rect width="840" height="425" fill="#666666"/>
<rect x="20" y="28" width="800" height="300" fill="#CCCCCC"/>
<path d="M454.966 59.017V57.4545H465.875V59.017H461.301V72H459.54V59.017H454.966ZM471.358 72.2273C470.307 72.2273 469.4 71.9953 468.638 71.5312C467.88 71.0625 467.295 70.4091 466.884 69.571C466.476 68.7282 466.273 67.7481 466.273 66.6307C466.273 65.5133 466.476 64.5284 466.884 63.6761C467.295 62.8191 467.868 62.1515 468.602 61.6733C469.341 61.1903 470.203 60.9489 471.188 60.9489C471.756 60.9489 472.317 61.0436 472.871 61.233C473.425 61.4223 473.929 61.7301 474.384 62.1562C474.838 62.5777 475.2 63.1364 475.47 63.8324C475.74 64.5284 475.875 65.3854 475.875 66.4034V67.1136H467.466V65.6648H474.17C474.17 65.0492 474.047 64.5 473.801 64.017C473.56 63.5341 473.214 63.1529 472.764 62.8736C472.319 62.5942 471.794 62.4545 471.188 62.4545C470.52 62.4545 469.942 62.6203 469.455 62.9517C468.972 63.2784 468.6 63.7045 468.339 64.2301C468.079 64.7557 467.949 65.3191 467.949 65.9205V66.8864C467.949 67.7102 468.091 68.4086 468.375 68.9815C468.664 69.5497 469.064 69.983 469.575 70.2812C470.087 70.5748 470.681 70.7216 471.358 70.7216C471.798 70.7216 472.196 70.66 472.551 70.5369C472.911 70.4091 473.221 70.2197 473.482 69.9688C473.742 69.7131 473.943 69.3958 474.085 69.017L475.705 69.4716C475.534 70.0208 475.248 70.5038 474.845 70.9205C474.443 71.3324 473.946 71.6544 473.354 71.8864C472.762 72.1136 472.097 72.2273 471.358 72.2273ZM479.382 61.0909L481.995 65.5511L484.609 61.0909H486.541L483.018 66.5455L486.541 72H484.609L481.995 67.767L479.382 72H477.45L480.916 66.5455L477.45 61.0909H479.382ZM493.677 61.0909V62.5114H488.023V61.0909H493.677ZM489.671 58.4773H491.347V68.875C491.347 69.3485 491.416 69.7036 491.553 69.9403C491.695 70.1723 491.875 70.3286 492.093 70.4091C492.316 70.4848 492.55 70.5227 492.796 70.5227C492.981 70.5227 493.132 70.5133 493.251 70.4943C493.369 70.4706 493.464 70.4517 493.535 70.4375L493.876 71.9432C493.762 71.9858 493.603 72.0284 493.4 72.071C493.196 72.1184 492.938 72.142 492.626 72.142C492.152 72.142 491.688 72.0402 491.234 71.8366C490.784 71.633 490.41 71.3229 490.112 70.9062C489.818 70.4896 489.671 69.964 489.671 69.3295V58.4773ZM506.681 61.0909V62.5114H500.8V61.0909H506.681ZM502.562 72V59.5852C502.562 58.9602 502.709 58.4394 503.002 58.0227C503.296 57.6061 503.677 57.2936 504.146 57.0852C504.614 56.8769 505.109 56.7727 505.63 56.7727C506.042 56.7727 506.378 56.8059 506.638 56.8722C506.899 56.9384 507.093 57 507.221 57.0568L506.738 58.5057C506.653 58.4773 506.534 58.4418 506.383 58.3991C506.236 58.3565 506.042 58.3352 505.8 58.3352C505.246 58.3352 504.846 58.4749 504.6 58.7543C504.359 59.0336 504.238 59.4432 504.238 59.983V72H502.562ZM513.013 72.2273C512.028 72.2273 511.164 71.9929 510.42 71.5241C509.682 71.0554 509.104 70.3996 508.688 69.5568C508.276 68.714 508.07 67.7292 508.07 66.6023C508.07 65.4659 508.276 64.474 508.688 63.6264C509.104 62.7789 509.682 62.1207 510.42 61.652C511.164 61.1832 512.028 60.9489 513.013 60.9489C513.998 60.9489 514.859 61.1832 515.598 61.652C516.341 62.1207 516.919 62.7789 517.331 63.6264C517.748 64.474 517.956 65.4659 517.956 66.6023C517.956 67.7292 517.748 68.714 517.331 69.5568C516.919 70.3996 516.341 71.0554 515.598 71.5241C514.859 71.9929 513.998 72.2273 513.013 72.2273ZM513.013 70.7216C513.761 70.7216 514.376 70.5298 514.859 70.1463C515.342 69.7628 515.7 69.2585 515.932 68.6335C516.164 68.0085 516.28 67.3314 516.28 66.6023C516.28 65.8731 516.164 65.1937 515.932 64.5639C515.7 63.9342 515.342 63.4252 514.859 63.0369C514.376 62.6487 513.761 62.4545 513.013 62.4545C512.265 62.4545 511.649 62.6487 511.166 63.0369C510.683 63.4252 510.326 63.9342 510.094 64.5639C509.862 65.1937 509.746 65.8731 509.746 66.6023C509.746 67.3314 509.862 68.0085 510.094 68.6335C510.326 69.2585 510.683 69.7628 511.166 70.1463C511.649 70.5298 512.265 70.7216 513.013 70.7216ZM520.515 72V61.0909H522.134V62.7386H522.248C522.446 62.1989 522.806 61.7609 523.327 61.4247C523.848 61.0885 524.435 60.9205 525.088 60.9205C525.212 60.9205 525.365 60.9228 525.55 60.9276C525.735 60.9323 525.874 60.9394 525.969 60.9489V62.6534C525.912 62.6392 525.782 62.6179 525.578 62.5895C525.38 62.5563 525.169 62.5398 524.946 62.5398C524.416 62.5398 523.943 62.651 523.526 62.8736C523.114 63.0914 522.787 63.3944 522.546 63.7827C522.309 64.1662 522.191 64.6042 522.191 65.0966V72H520.515ZM538.325 61.0909V62.5114H532.672V61.0909H538.325ZM534.32 58.4773H535.996V68.875C535.996 69.3485 536.064 69.7036 536.202 69.9403C536.344 70.1723 536.524 70.3286 536.741 70.4091C536.964 70.4848 537.198 70.5227 537.445 70.5227C537.629 70.5227 537.781 70.5133 537.899 70.4943C538.018 70.4706 538.112 70.4517 538.183 70.4375L538.524 71.9432C538.411 71.9858 538.252 72.0284 538.048 72.071C537.845 72.1184 537.587 72.142 537.274 72.142C536.801 72.142 536.337 72.0402 535.882 71.8366C535.432 71.633 535.058 71.3229 534.76 70.9062C534.466 70.4896 534.32 69.964 534.32 69.3295V58.4773ZM542.757 65.4375V72H541.081V57.4545H542.757V62.7955H542.899C543.155 62.232 543.538 61.7846 544.05 61.4531C544.566 61.117 545.252 60.9489 546.109 60.9489C546.853 60.9489 547.504 61.098 548.062 61.3963C548.621 61.6899 549.054 62.142 549.362 62.7528C549.675 63.3589 549.831 64.1307 549.831 65.0682V72H548.155V65.1818C548.155 64.3153 547.93 63.6454 547.48 63.1719C547.035 62.6937 546.417 62.4545 545.626 62.4545C545.077 62.4545 544.585 62.5705 544.149 62.8026C543.718 63.0346 543.377 63.3731 543.126 63.8182C542.88 64.2633 542.757 64.803 542.757 65.4375ZM557.471 72.2273C556.42 72.2273 555.513 71.9953 554.751 71.5312C553.993 71.0625 553.409 70.4091 552.997 69.571C552.59 68.7282 552.386 67.7481 552.386 66.6307C552.386 65.5133 552.59 64.5284 552.997 63.6761C553.409 62.8191 553.982 62.1515 554.716 61.6733C555.454 61.1903 556.316 60.9489 557.301 60.9489C557.869 60.9489 558.43 61.0436 558.984 61.233C559.538 61.4223 560.042 61.7301 560.497 62.1562C560.951 62.5777 561.314 63.1364 561.583 63.8324C561.853 64.5284 561.988 65.3854 561.988 66.4034V67.1136H553.579V65.6648H560.284C560.284 65.0492 560.161 64.5 559.914 64.017C559.673 63.5341 559.327 63.1529 558.877 62.8736C558.432 62.5942 557.907 62.4545 557.301 62.4545C556.633 62.4545 556.056 62.6203 555.568 62.9517C555.085 63.2784 554.713 63.7045 554.453 64.2301C554.192 64.7557 554.062 65.3191 554.062 65.9205V66.8864C554.062 67.7102 554.204 68.4086 554.488 68.9815C554.777 69.5497 555.177 69.983 555.689 70.2812C556.2 70.5748 556.794 70.7216 557.471 70.7216C557.912 70.7216 558.309 70.66 558.664 70.5369C559.024 70.4091 559.334 70.2197 559.595 69.9688C559.855 69.7131 560.056 69.3958 560.199 69.017L561.818 69.4716C561.647 70.0208 561.361 70.5038 560.958 70.9205C560.556 71.3324 560.059 71.6544 559.467 71.8864C558.875 72.1136 558.21 72.2273 557.471 72.2273ZM574.595 72.2273C573.572 72.2273 572.691 71.9858 571.953 71.5028C571.214 71.0199 570.646 70.3546 570.248 69.5071C569.85 68.6596 569.652 67.6913 569.652 66.6023C569.652 65.4943 569.855 64.5166 570.262 63.669C570.674 62.8168 571.247 62.1515 571.981 61.6733C572.72 61.1903 573.582 60.9489 574.566 60.9489C575.333 60.9489 576.025 61.0909 576.64 61.375C577.256 61.6591 577.76 62.0568 578.153 62.5682C578.546 63.0795 578.79 63.6761 578.885 64.358H577.208C577.081 63.8608 576.797 63.4205 576.356 63.0369C575.921 62.6487 575.333 62.4545 574.595 62.4545C573.941 62.4545 573.368 62.625 572.876 62.9659C572.388 63.3021 572.007 63.7779 571.733 64.3935C571.463 65.0043 571.328 65.7216 571.328 66.5455C571.328 67.3883 571.46 68.1222 571.725 68.7472C571.995 69.3722 572.374 69.8575 572.862 70.2031C573.354 70.5488 573.932 70.7216 574.595 70.7216C575.03 70.7216 575.426 70.6458 575.781 70.4943C576.136 70.3428 576.437 70.125 576.683 69.8409C576.929 69.5568 577.104 69.2159 577.208 68.8182H578.885C578.79 69.4621 578.556 70.0421 578.181 70.5582C577.812 71.0696 577.322 71.4768 576.711 71.7798C576.105 72.0781 575.4 72.2273 574.595 72.2273ZM588.21 67.5398V61.0909H589.886V72H588.21V70.1534H588.096C587.841 70.7074 587.443 71.1785 586.903 71.5668C586.363 71.9503 585.681 72.142 584.858 72.142C584.176 72.142 583.57 71.9929 583.039 71.6946C582.509 71.3916 582.092 70.937 581.789 70.331C581.486 69.7202 581.335 68.9508 581.335 68.0227V61.0909H583.011V67.9091C583.011 68.7045 583.234 69.339 583.679 69.8125C584.128 70.286 584.701 70.5227 585.397 70.5227C585.814 70.5227 586.238 70.4162 586.669 70.2031C587.104 69.9901 587.469 69.6634 587.762 69.223C588.061 68.7827 588.21 68.2216 588.21 67.5398ZM592.956 72V61.0909H594.575V62.7386H594.689C594.888 62.1989 595.248 61.7609 595.768 61.4247C596.289 61.0885 596.876 60.9205 597.53 60.9205C597.653 60.9205 597.807 60.9228 597.991 60.9276C598.176 60.9323 598.316 60.9394 598.411 60.9489V62.6534C598.354 62.6392 598.223 62.6179 598.02 62.5895C597.821 62.5563 597.61 62.5398 597.388 62.5398C596.857 62.5398 596.384 62.651 595.967 62.8736C595.555 63.0914 595.229 63.3944 594.987 63.7827C594.75 64.1662 594.632 64.6042 594.632 65.0966V72H592.956ZM600.397 72V61.0909H602.017V62.7386H602.13C602.329 62.1989 602.689 61.7609 603.21 61.4247C603.731 61.0885 604.318 60.9205 604.971 60.9205C605.094 60.9205 605.248 60.9228 605.433 60.9276C605.618 60.9323 605.757 60.9394 605.852 60.9489V62.6534C605.795 62.6392 605.665 62.6179 605.461 62.5895C605.262 62.5563 605.052 62.5398 604.829 62.5398C604.299 62.5398 603.825 62.651 603.409 62.8736C602.997 63.0914 602.67 63.3944 602.429 63.7827C602.192 64.1662 602.074 64.6042 602.074 65.0966V72H600.397ZM612.081 72.2273C611.029 72.2273 610.123 71.9953 609.36 71.5312C608.603 71.0625 608.018 70.4091 607.606 69.571C607.199 68.7282 606.995 67.7481 606.995 66.6307C606.995 65.5133 607.199 64.5284 607.606 63.6761C608.018 62.8191 608.591 62.1515 609.325 61.6733C610.064 61.1903 610.925 60.9489 611.91 60.9489C612.478 60.9489 613.039 61.0436 613.593 61.233C614.147 61.4223 614.652 61.7301 615.106 62.1562C615.561 62.5777 615.923 63.1364 616.193 63.8324C616.463 64.5284 616.598 65.3854 616.598 66.4034V67.1136H608.189V65.6648H614.893C614.893 65.0492 614.77 64.5 614.524 64.017C614.282 63.5341 613.937 63.1529 613.487 62.8736C613.042 62.5942 612.516 62.4545 611.91 62.4545C611.243 62.4545 610.665 62.6203 610.177 62.9517C609.694 63.2784 609.323 63.7045 609.062 64.2301C608.802 64.7557 608.672 65.3191 608.672 65.9205V66.8864C608.672 67.7102 608.814 68.4086 609.098 68.9815C609.386 69.5497 609.787 69.983 610.298 70.2812C610.809 70.5748 611.404 70.7216 612.081 70.7216C612.521 70.7216 612.919 70.66 613.274 70.5369C613.634 70.4091 613.944 70.2197 614.204 69.9688C614.465 69.7131 614.666 69.3958 614.808 69.017L616.427 69.4716C616.257 70.0208 615.97 70.5038 615.568 70.9205C615.165 71.3324 614.668 71.6544 614.076 71.8864C613.484 72.1136 612.819 72.2273 612.081 72.2273ZM620.824 65.4375V72H619.147V61.0909H620.767V62.7955H620.909C621.164 62.2415 621.553 61.7964 622.074 61.4602C622.594 61.1193 623.267 60.9489 624.091 60.9489C624.829 60.9489 625.475 61.1004 626.029 61.4034C626.583 61.7017 627.014 62.1562 627.322 62.767C627.63 63.3731 627.784 64.1402 627.784 65.0682V72H626.108V65.1818C626.108 64.3248 625.885 63.6572 625.44 63.179C624.995 62.696 624.384 62.4545 623.608 62.4545C623.073 62.4545 622.594 62.5705 622.173 62.8026C621.756 63.0346 621.427 63.3731 621.186 63.8182C620.944 64.2633 620.824 64.803 620.824 65.4375ZM635.591 61.0909V62.5114H629.938V61.0909H635.591ZM631.585 58.4773H633.261V68.875C633.261 69.3485 633.33 69.7036 633.467 69.9403C633.609 70.1723 633.789 70.3286 634.007 70.4091C634.23 70.4848 634.464 70.5227 634.71 70.5227C634.895 70.5227 635.046 70.5133 635.165 70.4943C635.283 70.4706 635.378 70.4517 635.449 70.4375L635.79 71.9432C635.676 71.9858 635.518 72.0284 635.314 72.071C635.11 72.1184 634.852 72.142 634.54 72.142C634.066 72.142 633.602 72.0402 633.148 71.8366C632.698 71.633 632.324 71.3229 632.026 70.9062C631.732 70.4896 631.585 69.964 631.585 69.3295V58.4773ZM651.464 63.5341L649.959 63.9602C649.864 63.7093 649.724 63.4654 649.54 63.2287C649.36 62.9872 649.114 62.7884 648.801 62.6321C648.489 62.4759 648.089 62.3977 647.601 62.3977C646.933 62.3977 646.377 62.5516 645.932 62.8594C645.491 63.1624 645.271 63.5483 645.271 64.017C645.271 64.4337 645.423 64.7628 645.726 65.0043C646.029 65.2457 646.502 65.447 647.146 65.608L648.766 66.0057C649.741 66.2424 650.468 66.6046 650.946 67.0923C651.424 67.5753 651.663 68.1979 651.663 68.9602C651.663 69.5852 651.483 70.1439 651.124 70.6364C650.768 71.1288 650.271 71.517 649.632 71.8011C648.993 72.0852 648.25 72.2273 647.402 72.2273C646.289 72.2273 645.368 71.9858 644.639 71.5028C643.91 71.0199 643.448 70.3144 643.254 69.3864L644.845 68.9886C644.997 69.5758 645.283 70.0161 645.705 70.3097C646.131 70.6032 646.687 70.75 647.374 70.75C648.155 70.75 648.775 70.5843 649.234 70.2528C649.698 69.9167 649.93 69.5142 649.93 69.0455C649.93 68.6667 649.798 68.3494 649.533 68.0938C649.268 67.8333 648.86 67.6392 648.311 67.5114L646.493 67.0852C645.494 66.8485 644.76 66.4815 644.291 65.9844C643.827 65.4825 643.595 64.8551 643.595 64.1023C643.595 63.4867 643.768 62.9422 644.114 62.4688C644.464 61.9953 644.94 61.6236 645.541 61.3537C646.147 61.0838 646.834 60.9489 647.601 60.9489C648.68 60.9489 649.528 61.1856 650.143 61.6591C650.764 62.1326 651.204 62.7576 651.464 63.5341ZM655.863 57.4545V72H654.186V57.4545H655.863ZM658.933 72V61.0909H660.609V72H658.933ZM659.785 59.2727C659.458 59.2727 659.176 59.1615 658.94 58.9389C658.708 58.7164 658.592 58.4489 658.592 58.1364C658.592 57.8239 658.708 57.5563 658.94 57.3338C659.176 57.1113 659.458 57 659.785 57C660.112 57 660.391 57.1113 660.623 57.3338C660.86 57.5563 660.978 57.8239 660.978 58.1364C660.978 58.4489 660.86 58.7164 660.623 58.9389C660.391 59.1615 660.112 59.2727 659.785 59.2727ZM667.798 72.2273C666.889 72.2273 666.086 71.9976 665.39 71.5384C664.694 71.0743 664.15 70.4209 663.757 69.5781C663.364 68.7306 663.167 67.7292 663.167 66.5739C663.167 65.428 663.364 64.4337 663.757 63.5909C664.15 62.7481 664.697 62.0971 665.397 61.6378C666.098 61.1785 666.908 60.9489 667.826 60.9489C668.537 60.9489 669.098 61.0672 669.51 61.304C669.926 61.536 670.243 61.8011 670.461 62.0994C670.684 62.393 670.857 62.6345 670.98 62.8239H671.122V57.4545H672.798V72H671.179V70.3239H670.98C670.857 70.5227 670.681 70.7737 670.454 71.0767C670.227 71.375 669.903 71.6425 669.481 71.8793C669.06 72.1113 668.499 72.2273 667.798 72.2273ZM668.025 70.7216C668.698 70.7216 669.266 70.5464 669.73 70.196C670.194 69.8409 670.547 69.3509 670.788 68.7259C671.029 68.0961 671.15 67.3693 671.15 66.5455C671.15 65.7311 671.032 65.0185 670.795 64.4077C670.558 63.7921 670.208 63.3139 669.744 62.973C669.28 62.6274 668.707 62.4545 668.025 62.4545C667.315 62.4545 666.723 62.6368 666.25 63.0014C665.781 63.3613 665.428 63.8513 665.191 64.4716C664.959 65.0871 664.843 65.7784 664.843 66.5455C664.843 67.322 664.962 68.0275 665.199 68.6619C665.44 69.2917 665.795 69.7936 666.264 70.1676C666.737 70.5369 667.324 70.7216 668.025 70.7216ZM680.674 72.2273C679.623 72.2273 678.717 71.9953 677.954 71.5312C677.197 71.0625 676.612 70.4091 676.2 69.571C675.793 68.7282 675.589 67.7481 675.589 66.6307C675.589 65.5133 675.793 64.5284 676.2 63.6761C676.612 62.8191 677.185 62.1515 677.919 61.6733C678.657 61.1903 679.519 60.9489 680.504 60.9489C681.072 60.9489 681.633 61.0436 682.187 61.233C682.741 61.4223 683.245 61.7301 683.7 62.1562C684.154 62.5777 684.517 63.1364 684.787 63.8324C685.056 64.5284 685.191 65.3854 685.191 66.4034V67.1136H676.782V65.6648H683.487C683.487 65.0492 683.364 64.5 683.118 64.017C682.876 63.5341 682.53 63.1529 682.081 62.8736C681.636 62.5942 681.11 62.4545 680.504 62.4545C679.836 62.4545 679.259 62.6203 678.771 62.9517C678.288 63.2784 677.916 63.7045 677.656 64.2301C677.395 64.7557 677.265 65.3191 677.265 65.9205V66.8864C677.265 67.7102 677.407 68.4086 677.691 68.9815C677.98 69.5497 678.38 69.983 678.892 70.2812C679.403 70.5748 679.997 70.7216 680.674 70.7216C681.115 70.7216 681.512 70.66 681.868 70.5369C682.227 70.4091 682.538 70.2197 682.798 69.9688C683.058 69.7131 683.26 69.3958 683.402 69.017L685.021 69.4716C684.85 70.0208 684.564 70.5038 684.162 70.9205C683.759 71.3324 683.262 71.6544 682.67 71.8864C682.078 72.1136 681.413 72.2273 680.674 72.2273Z" fill="#2C2C2C"/>
<rect x="52" y="53" width="375" height="250" fill="#BDBDBD"/>
<rect x="52" y="238" width="375" height="65" fill="#333333" fill-opacity="0.25"/>
<path d="M69.054 267V266.105L72.4148 262.426C72.8092 261.995 73.134 261.621 73.3892 261.303C73.6444 260.981 73.8333 260.679 73.956 260.398C74.0819 260.113 74.1449 259.814 74.1449 259.503C74.1449 259.145 74.0587 258.835 73.8864 258.573C73.7173 258.311 73.4853 258.109 73.1903 257.967C72.8954 257.824 72.5639 257.753 72.196 257.753C71.8049 257.753 71.4635 257.834 71.1719 257.996C70.8835 258.156 70.6598 258.379 70.5007 258.668C70.3449 258.956 70.267 259.294 70.267 259.682H69.0938C69.0938 259.085 69.2313 258.562 69.5064 258.111C69.7815 257.66 70.156 257.309 70.63 257.057C71.1072 256.805 71.6425 256.679 72.2358 256.679C72.8324 256.679 73.361 256.805 73.8217 257.057C74.2824 257.309 74.6437 257.648 74.9055 258.076C75.1674 258.504 75.2983 258.979 75.2983 259.503C75.2983 259.877 75.2304 260.244 75.0945 260.602C74.9619 260.956 74.7299 261.352 74.3984 261.79C74.0703 262.224 73.6146 262.754 73.0312 263.381L70.7443 265.827V265.906H75.4773V267H69.054ZM80.8516 267.139C80.1025 267.139 79.4645 266.935 78.9375 266.528C78.4105 266.117 78.0078 265.522 77.7294 264.743C77.451 263.961 77.3118 263.016 77.3118 261.909C77.3118 260.809 77.451 259.869 77.7294 259.09C78.0111 258.308 78.4155 257.711 78.9425 257.3C79.4728 256.886 80.1091 256.679 80.8516 256.679C81.594 256.679 82.2287 256.886 82.7557 257.3C83.286 257.711 83.6903 258.308 83.9688 259.09C84.2505 259.869 84.3913 260.809 84.3913 261.909C84.3913 263.016 84.2521 263.961 83.9737 264.743C83.6953 265.522 83.2926 266.117 82.7656 266.528C82.2386 266.935 81.6006 267.139 80.8516 267.139ZM80.8516 266.045C81.594 266.045 82.1707 265.687 82.5817 264.972C82.9927 264.256 83.1982 263.235 83.1982 261.909C83.1982 261.027 83.1037 260.277 82.9148 259.657C82.7292 259.037 82.4607 258.565 82.1094 258.24C81.7614 257.915 81.3421 257.753 80.8516 257.753C80.1158 257.753 79.5407 258.116 79.1264 258.842C78.7121 259.564 78.505 260.587 78.505 261.909C78.505 262.791 78.5978 263.54 78.7834 264.156C78.969 264.773 79.2358 265.242 79.5838 265.563C79.9351 265.885 80.3577 266.045 80.8516 266.045ZM89.6016 267.139C88.8525 267.139 88.2145 266.935 87.6875 266.528C87.1605 266.117 86.7578 265.522 86.4794 264.743C86.201 263.961 86.0618 263.016 86.0618 261.909C86.0618 260.809 86.201 259.869 86.4794 259.09C86.7611 258.308 87.1655 257.711 87.6925 257.3C88.2228 256.886 88.8591 256.679 89.6016 256.679C90.344 256.679 90.9787 256.886 91.5057 257.3C92.036 257.711 92.4403 258.308 92.7188 259.09C93.0005 259.869 93.1413 260.809 93.1413 261.909C93.1413 263.016 93.0021 263.961 92.7237 264.743C92.4453 265.522 92.0426 266.117 91.5156 266.528C90.9886 266.935 90.3506 267.139 89.6016 267.139ZM89.6016 266.045C90.344 266.045 90.9207 265.687 91.3317 264.972C91.7427 264.256 91.9482 263.235 91.9482 261.909C91.9482 261.027 91.8537 260.277 91.6648 259.657C91.4792 259.037 91.2107 258.565 90.8594 258.24C90.5114 257.915 90.0921 257.753 89.6016 257.753C88.8658 257.753 88.2907 258.116 87.8764 258.842C87.4621 259.564 87.255 260.587 87.255 261.909C87.255 262.791 87.3478 263.54 87.5334 264.156C87.719 264.773 87.9858 265.242 88.3338 265.563C88.6851 265.885 89.1077 266.045 89.6016 266.045ZM98.2124 267.139C97.629 267.139 97.1037 267.023 96.6364 266.791C96.169 266.559 95.7945 266.241 95.5128 265.837C95.2311 265.432 95.0769 264.972 95.0504 264.455H96.2436C96.29 264.915 96.4988 265.296 96.87 265.598C97.2446 265.896 97.692 266.045 98.2124 266.045C98.63 266.045 99.0012 265.948 99.326 265.752C99.6541 265.557 99.911 265.288 100.097 264.947C100.286 264.602 100.38 264.213 100.38 263.778C100.38 263.334 100.282 262.938 100.087 262.59C99.8944 262.239 99.6293 261.962 99.2912 261.76C98.9531 261.558 98.567 261.455 98.1328 261.452C97.8213 261.448 97.5014 261.496 97.1733 261.596C96.8452 261.692 96.575 261.816 96.3629 261.969L95.2095 261.83L95.826 256.818H101.116V257.912H96.8601L96.5021 260.915H96.5618C96.7706 260.749 97.0324 260.612 97.3473 260.502C97.6622 260.393 97.9903 260.338 98.3317 260.338C98.9548 260.338 99.5099 260.487 99.9972 260.786C100.488 261.08 100.872 261.485 101.151 261.999C101.432 262.512 101.573 263.099 101.573 263.759C101.573 264.408 101.427 264.988 101.136 265.499C100.847 266.006 100.45 266.407 99.9425 266.702C99.4354 266.993 98.8587 267.139 98.2124 267.139ZM111.881 261.362V262.456H107.426V261.362H111.881ZM117.863 267V266.105L121.223 262.426C121.618 261.995 121.943 261.621 122.198 261.303C122.453 260.981 122.642 260.679 122.765 260.398C122.891 260.113 122.953 259.814 122.953 259.503C122.953 259.145 122.867 258.835 122.695 258.573C122.526 258.311 122.294 258.109 121.999 257.967C121.704 257.824 121.373 257.753 121.005 257.753C120.614 257.753 120.272 257.834 119.98 257.996C119.692 258.156 119.468 258.379 119.309 258.668C119.154 258.956 119.076 259.294 119.076 259.682H117.902C117.902 259.085 118.04 258.562 118.315 258.111C118.59 257.66 118.965 257.309 119.439 257.057C119.916 256.805 120.451 256.679 121.044 256.679C121.641 256.679 122.17 256.805 122.63 257.057C123.091 257.309 123.452 257.648 123.714 258.076C123.976 258.504 124.107 258.979 124.107 259.503C124.107 259.877 124.039 260.244 123.903 260.602C123.77 260.956 123.538 261.352 123.207 261.79C122.879 262.224 122.423 262.754 121.84 263.381L119.553 265.827V265.906H124.286V267H117.863ZM129.66 267.139C128.911 267.139 128.273 266.935 127.746 266.528C127.219 266.117 126.816 265.522 126.538 264.743C126.26 263.961 126.12 263.016 126.12 261.909C126.12 260.809 126.26 259.869 126.538 259.09C126.82 258.308 127.224 257.711 127.751 257.3C128.281 256.886 128.918 256.679 129.66 256.679C130.403 256.679 131.037 256.886 131.564 257.3C132.095 257.711 132.499 258.308 132.777 259.09C133.059 259.869 133.2 260.809 133.2 261.909C133.2 263.016 133.061 263.961 132.782 264.743C132.504 265.522 132.101 266.117 131.574 266.528C131.047 266.935 130.409 267.139 129.66 267.139ZM129.66 266.045C130.403 266.045 130.979 265.687 131.39 264.972C131.801 264.256 132.007 263.235 132.007 261.909C132.007 261.027 131.912 260.277 131.723 259.657C131.538 259.037 131.269 258.565 130.918 258.24C130.57 257.915 130.151 257.753 129.66 257.753C128.924 257.753 128.349 258.116 127.935 258.842C127.521 259.564 127.314 260.587 127.314 261.909C127.314 262.791 127.406 263.54 127.592 264.156C127.778 264.773 128.044 265.242 128.392 265.563C128.744 265.885 129.166 266.045 129.66 266.045ZM138.669 256.818V267H137.436V258.111H137.376L134.89 259.761V258.509L137.436 256.818H138.669ZM141.915 267L146.469 257.991V257.912H141.219V256.818H147.742V257.972L143.208 267H141.915Z" fill="#F3F3F3"/>
<path d="M75.4716 280.562C75.4186 280.066 75.1951 279.68 74.8011 279.403C74.411 279.127 73.9034 278.989 73.2784 278.989C72.839 278.989 72.4621 279.055 72.1477 279.188C71.8333 279.32 71.5928 279.5 71.4261 279.727C71.2595 279.955 71.1742 280.214 71.1705 280.506C71.1705 280.748 71.2254 280.958 71.3352 281.136C71.4489 281.314 71.6023 281.466 71.7955 281.591C71.9886 281.712 72.2027 281.814 72.4375 281.898C72.6723 281.981 72.9091 282.051 73.1477 282.108L74.2386 282.381C74.678 282.483 75.1004 282.621 75.5057 282.795C75.9148 282.97 76.2803 283.189 76.6023 283.455C76.928 283.72 77.1856 284.04 77.375 284.415C77.5644 284.79 77.6591 285.229 77.6591 285.733C77.6591 286.415 77.4848 287.015 77.1364 287.534C76.7879 288.049 76.2841 288.453 75.625 288.744C74.9697 289.032 74.1761 289.176 73.2443 289.176C72.339 289.176 71.553 289.036 70.8864 288.756C70.2235 288.475 69.7045 288.066 69.3295 287.528C68.9583 286.991 68.7576 286.335 68.7273 285.562H70.8011C70.8314 285.968 70.9564 286.305 71.1761 286.574C71.3958 286.843 71.6818 287.044 72.0341 287.176C72.3902 287.309 72.7879 287.375 73.2273 287.375C73.6856 287.375 74.0871 287.307 74.4318 287.17C74.7803 287.03 75.053 286.837 75.25 286.591C75.447 286.341 75.5473 286.049 75.5511 285.716C75.5473 285.413 75.4583 285.163 75.2841 284.966C75.1098 284.765 74.8655 284.598 74.5511 284.466C74.2405 284.33 73.8769 284.208 73.4602 284.102L72.1364 283.761C71.178 283.515 70.4205 283.142 69.8636 282.642C69.3106 282.138 69.0341 281.47 69.0341 280.636C69.0341 279.951 69.2197 279.35 69.5909 278.835C69.9659 278.32 70.4754 277.92 71.1193 277.636C71.7633 277.348 72.4924 277.205 73.3068 277.205C74.1326 277.205 74.8561 277.348 75.4773 277.636C76.1023 277.92 76.5928 278.316 76.9489 278.824C77.3049 279.328 77.4886 279.907 77.5 280.562H75.4716ZM81.5043 283.886V289H79.4474V277.364H81.4588V281.756H81.5611C81.7656 281.263 82.0819 280.875 82.5099 280.591C82.9418 280.303 83.491 280.159 84.1577 280.159C84.7637 280.159 85.2921 280.286 85.7429 280.54C86.1937 280.794 86.5421 281.165 86.7884 281.653C87.0384 282.142 87.1634 282.739 87.1634 283.443V289H85.1065V283.761C85.1065 283.174 84.955 282.718 84.652 282.392C84.3527 282.062 83.9323 281.898 83.3906 281.898C83.027 281.898 82.7012 281.977 82.4134 282.136C82.1293 282.292 81.9058 282.517 81.7429 282.812C81.5838 283.108 81.5043 283.466 81.5043 283.886ZM91.7713 289.176C91.2183 289.176 90.7202 289.078 90.277 288.881C89.8376 288.68 89.4891 288.384 89.2315 287.994C88.9777 287.604 88.8509 287.123 88.8509 286.551C88.8509 286.059 88.9418 285.652 89.1236 285.33C89.3054 285.008 89.5535 284.75 89.8679 284.557C90.1823 284.364 90.5365 284.218 90.9304 284.119C91.3281 284.017 91.7391 283.943 92.1634 283.898C92.6747 283.845 93.0895 283.797 93.4077 283.756C93.7259 283.71 93.9569 283.642 94.1009 283.551C94.2486 283.456 94.3224 283.311 94.3224 283.114V283.08C94.3224 282.652 94.1955 282.32 93.9418 282.085C93.688 281.85 93.3224 281.733 92.8452 281.733C92.3414 281.733 91.9418 281.843 91.6463 282.062C91.3546 282.282 91.1577 282.542 91.0554 282.841L89.1349 282.568C89.2865 282.038 89.5365 281.595 89.8849 281.239C90.2334 280.879 90.6596 280.61 91.1634 280.432C91.6671 280.25 92.224 280.159 92.8338 280.159C93.2543 280.159 93.6728 280.208 94.0895 280.307C94.5062 280.405 94.8868 280.568 95.2315 280.795C95.5762 281.019 95.8527 281.324 96.0611 281.71C96.2732 282.097 96.3793 282.58 96.3793 283.159V289H94.402V287.801H94.3338C94.2088 288.044 94.0327 288.271 93.8054 288.483C93.5819 288.691 93.2997 288.86 92.9588 288.989C92.6217 289.114 92.2259 289.176 91.7713 289.176ZM92.3054 287.665C92.7183 287.665 93.0762 287.583 93.3793 287.42C93.6823 287.254 93.9152 287.034 94.0781 286.761C94.2448 286.489 94.3281 286.191 94.3281 285.869V284.841C94.2637 284.894 94.1539 284.943 93.9986 284.989C93.8471 285.034 93.6766 285.074 93.4872 285.108C93.2978 285.142 93.1103 285.172 92.9247 285.199C92.7391 285.225 92.5781 285.248 92.4418 285.267C92.1349 285.309 91.8603 285.377 91.6179 285.472C91.3755 285.566 91.1842 285.699 91.044 285.869C90.9039 286.036 90.8338 286.252 90.8338 286.517C90.8338 286.896 90.9721 287.182 91.2486 287.375C91.5251 287.568 91.8774 287.665 92.3054 287.665ZM100.249 289L97.7827 280.273H99.8793L101.413 286.409H101.493L103.061 280.273H105.135L106.703 286.375H106.788L108.3 280.273H110.402L107.93 289H105.788L104.152 283.102H104.033L102.396 289H100.249ZM125.858 281.29H123.733C123.672 280.941 123.561 280.633 123.398 280.364C123.235 280.091 123.032 279.86 122.79 279.67C122.547 279.481 122.271 279.339 121.96 279.244C121.653 279.146 121.322 279.097 120.966 279.097C120.333 279.097 119.773 279.256 119.284 279.574C118.795 279.888 118.413 280.35 118.136 280.96C117.86 281.566 117.722 282.307 117.722 283.182C117.722 284.072 117.86 284.822 118.136 285.432C118.417 286.038 118.799 286.496 119.284 286.807C119.773 287.114 120.331 287.267 120.96 287.267C121.309 287.267 121.634 287.222 121.938 287.131C122.244 287.036 122.519 286.898 122.761 286.716C123.008 286.534 123.214 286.311 123.381 286.045C123.551 285.78 123.669 285.477 123.733 285.136L125.858 285.148C125.778 285.701 125.606 286.22 125.341 286.705C125.08 287.189 124.737 287.617 124.312 287.989C123.888 288.356 123.392 288.644 122.824 288.852C122.256 289.057 121.625 289.159 120.932 289.159C119.909 289.159 118.996 288.922 118.193 288.449C117.39 287.975 116.758 287.292 116.295 286.398C115.833 285.504 115.602 284.432 115.602 283.182C115.602 281.928 115.835 280.856 116.301 279.966C116.767 279.072 117.402 278.388 118.205 277.915C119.008 277.441 119.917 277.205 120.932 277.205C121.58 277.205 122.182 277.295 122.739 277.477C123.295 277.659 123.792 277.926 124.227 278.278C124.663 278.627 125.021 279.055 125.301 279.562C125.585 280.066 125.771 280.642 125.858 281.29ZM131.504 289.17C130.652 289.17 129.913 288.983 129.288 288.608C128.663 288.233 128.179 287.708 127.834 287.034C127.493 286.36 127.322 285.572 127.322 284.67C127.322 283.769 127.493 282.979 127.834 282.301C128.179 281.623 128.663 281.097 129.288 280.722C129.913 280.347 130.652 280.159 131.504 280.159C132.357 280.159 133.095 280.347 133.72 280.722C134.345 281.097 134.828 281.623 135.169 282.301C135.514 282.979 135.686 283.769 135.686 284.67C135.686 285.572 135.514 286.36 135.169 287.034C134.828 287.708 134.345 288.233 133.72 288.608C133.095 288.983 132.357 289.17 131.504 289.17ZM131.516 287.523C131.978 287.523 132.364 287.396 132.675 287.142C132.985 286.884 133.216 286.54 133.368 286.108C133.523 285.676 133.601 285.195 133.601 284.665C133.601 284.131 133.523 283.648 133.368 283.216C133.216 282.78 132.985 282.434 132.675 282.176C132.364 281.919 131.978 281.79 131.516 281.79C131.042 281.79 130.648 281.919 130.334 282.176C130.023 282.434 129.79 282.78 129.635 283.216C129.483 283.648 129.408 284.131 129.408 284.665C129.408 285.195 129.483 285.676 129.635 286.108C129.79 286.54 130.023 286.884 130.334 287.142C130.648 287.396 131.042 287.523 131.516 287.523ZM137.432 289V280.273H139.398V281.756H139.5C139.682 281.256 139.983 280.866 140.403 280.585C140.824 280.301 141.326 280.159 141.909 280.159C142.5 280.159 142.998 280.303 143.403 280.591C143.813 280.875 144.1 281.263 144.267 281.756H144.358C144.551 281.271 144.877 280.884 145.335 280.597C145.797 280.305 146.345 280.159 146.977 280.159C147.78 280.159 148.436 280.413 148.943 280.92C149.451 281.428 149.705 282.169 149.705 283.142V289H147.642V283.46C147.642 282.919 147.498 282.523 147.21 282.273C146.922 282.019 146.57 281.892 146.153 281.892C145.657 281.892 145.269 282.047 144.989 282.358C144.712 282.665 144.574 283.064 144.574 283.557V289H142.557V283.375C142.557 282.924 142.42 282.564 142.148 282.295C141.879 282.027 141.527 281.892 141.091 281.892C140.795 281.892 140.527 281.968 140.284 282.119C140.042 282.267 139.848 282.477 139.705 282.75C139.561 283.019 139.489 283.333 139.489 283.693V289H137.432ZM151.791 289V280.273H153.757V281.756H153.859C154.041 281.256 154.342 280.866 154.763 280.585C155.183 280.301 155.685 280.159 156.268 280.159C156.859 280.159 157.357 280.303 157.763 280.591C158.172 280.875 158.46 281.263 158.626 281.756H158.717C158.911 281.271 159.236 280.884 159.695 280.597C160.157 280.305 160.704 280.159 161.337 280.159C162.14 280.159 162.795 280.413 163.303 280.92C163.81 281.428 164.064 282.169 164.064 283.142V289H162.001V283.46C162.001 282.919 161.857 282.523 161.57 282.273C161.282 282.019 160.929 281.892 160.513 281.892C160.017 281.892 159.628 282.047 159.348 282.358C159.071 282.665 158.933 283.064 158.933 283.557V289H156.916V283.375C156.916 282.924 156.78 282.564 156.507 282.295C156.238 282.027 155.886 281.892 155.45 281.892C155.155 281.892 154.886 281.968 154.643 282.119C154.401 282.267 154.208 282.477 154.064 282.75C153.92 283.019 153.848 283.333 153.848 283.693V289H151.791ZM171.713 285.33V280.273H173.77V289H171.776V287.449H171.685C171.488 287.937 171.164 288.337 170.713 288.648C170.266 288.958 169.715 289.114 169.06 289.114C168.488 289.114 167.982 288.987 167.543 288.733C167.107 288.475 166.766 288.102 166.52 287.614C166.274 287.121 166.151 286.527 166.151 285.83V280.273H168.207V285.511C168.207 286.064 168.359 286.504 168.662 286.83C168.965 287.155 169.363 287.318 169.855 287.318C170.158 287.318 170.452 287.244 170.736 287.097C171.02 286.949 171.253 286.729 171.435 286.438C171.62 286.142 171.713 285.773 171.713 285.33ZM177.942 283.886V289H175.885V280.273H177.851V281.756H177.953C178.154 281.267 178.474 280.879 178.913 280.591C179.357 280.303 179.904 280.159 180.555 280.159C181.158 280.159 181.682 280.288 182.129 280.545C182.58 280.803 182.929 281.176 183.175 281.665C183.425 282.153 183.548 282.746 183.544 283.443V289H181.487V283.761C181.487 283.178 181.336 282.722 181.033 282.392C180.733 282.062 180.319 281.898 179.788 281.898C179.429 281.898 179.108 281.977 178.828 282.136C178.552 282.292 178.334 282.517 178.175 282.812C178.019 283.108 177.942 283.466 177.942 283.886ZM185.635 289V280.273H187.692V289H185.635ZM186.669 279.034C186.343 279.034 186.063 278.926 185.828 278.71C185.593 278.491 185.476 278.227 185.476 277.92C185.476 277.61 185.593 277.347 185.828 277.131C186.063 276.911 186.343 276.801 186.669 276.801C186.999 276.801 187.279 276.911 187.51 277.131C187.745 277.347 187.862 277.61 187.862 277.92C187.862 278.227 187.745 278.491 187.51 278.71C187.279 278.926 186.999 279.034 186.669 279.034ZM193.614 289.17C192.742 289.17 191.994 288.979 191.369 288.597C190.748 288.214 190.269 287.686 189.932 287.011C189.598 286.333 189.432 285.553 189.432 284.67C189.432 283.784 189.602 283.002 189.943 282.324C190.284 281.642 190.765 281.112 191.386 280.733C192.011 280.35 192.75 280.159 193.602 280.159C194.311 280.159 194.938 280.29 195.483 280.551C196.032 280.809 196.47 281.174 196.795 281.648C197.121 282.117 197.307 282.667 197.352 283.295H195.386C195.307 282.875 195.117 282.525 194.818 282.244C194.523 281.96 194.127 281.818 193.631 281.818C193.21 281.818 192.841 281.932 192.523 282.159C192.205 282.383 191.956 282.705 191.778 283.125C191.604 283.545 191.517 284.049 191.517 284.636C191.517 285.231 191.604 285.742 191.778 286.17C191.953 286.595 192.197 286.922 192.511 287.153C192.83 287.381 193.203 287.494 193.631 287.494C193.934 287.494 194.205 287.437 194.443 287.324C194.686 287.206 194.888 287.038 195.051 286.818C195.214 286.598 195.326 286.331 195.386 286.017H197.352C197.303 286.634 197.121 287.182 196.807 287.659C196.492 288.133 196.064 288.504 195.523 288.773C194.981 289.038 194.345 289.17 193.614 289.17ZM201.553 289.176C201 289.176 200.501 289.078 200.058 288.881C199.619 288.68 199.27 288.384 199.013 287.994C198.759 287.604 198.632 287.123 198.632 286.551C198.632 286.059 198.723 285.652 198.905 285.33C199.087 285.008 199.335 284.75 199.649 284.557C199.964 284.364 200.318 284.218 200.712 284.119C201.109 284.017 201.52 283.943 201.945 283.898C202.456 283.845 202.871 283.797 203.189 283.756C203.507 283.71 203.738 283.642 203.882 283.551C204.03 283.456 204.104 283.311 204.104 283.114V283.08C204.104 282.652 203.977 282.32 203.723 282.085C203.469 281.85 203.104 281.733 202.626 281.733C202.123 281.733 201.723 281.843 201.428 282.062C201.136 282.282 200.939 282.542 200.837 282.841L198.916 282.568C199.068 282.038 199.318 281.595 199.666 281.239C200.015 280.879 200.441 280.61 200.945 280.432C201.448 280.25 202.005 280.159 202.615 280.159C203.036 280.159 203.454 280.208 203.871 280.307C204.287 280.405 204.668 280.568 205.013 280.795C205.357 281.019 205.634 281.324 205.842 281.71C206.054 282.097 206.161 282.58 206.161 283.159V289H204.183V287.801H204.115C203.99 288.044 203.814 288.271 203.587 288.483C203.363 288.691 203.081 288.86 202.74 288.989C202.403 289.114 202.007 289.176 201.553 289.176ZM202.087 287.665C202.5 287.665 202.857 287.583 203.161 287.42C203.464 287.254 203.696 287.034 203.859 286.761C204.026 286.489 204.109 286.191 204.109 285.869V284.841C204.045 284.894 203.935 284.943 203.78 284.989C203.628 285.034 203.458 285.074 203.268 285.108C203.079 285.142 202.892 285.172 202.706 285.199C202.52 285.225 202.359 285.248 202.223 285.267C201.916 285.309 201.642 285.377 201.399 285.472C201.157 285.566 200.965 285.699 200.825 285.869C200.685 286.036 200.615 286.252 200.615 286.517C200.615 286.896 200.753 287.182 201.03 287.375C201.306 287.568 201.659 287.665 202.087 287.665ZM212.587 280.273V281.864H207.57V280.273H212.587ZM208.808 278.182H210.865V286.375C210.865 286.652 210.907 286.864 210.99 287.011C211.077 287.155 211.191 287.254 211.331 287.307C211.471 287.36 211.626 287.386 211.797 287.386C211.926 287.386 212.043 287.377 212.149 287.358C212.259 287.339 212.342 287.322 212.399 287.307L212.746 288.915C212.636 288.953 212.479 288.994 212.274 289.04C212.073 289.085 211.827 289.112 211.536 289.119C211.02 289.134 210.556 289.057 210.143 288.886C209.731 288.712 209.403 288.443 209.161 288.08C208.922 287.716 208.804 287.261 208.808 286.716V278.182ZM214.307 289V280.273H216.364V289H214.307ZM215.341 279.034C215.015 279.034 214.735 278.926 214.5 278.71C214.265 278.491 214.148 278.227 214.148 277.92C214.148 277.61 214.265 277.347 214.5 277.131C214.735 276.911 215.015 276.801 215.341 276.801C215.67 276.801 215.951 276.911 216.182 277.131C216.417 277.347 216.534 277.61 216.534 277.92C216.534 278.227 216.417 278.491 216.182 278.71C215.951 278.926 215.67 279.034 215.341 279.034ZM222.286 289.17C221.433 289.17 220.695 288.983 220.07 288.608C219.445 288.233 218.96 287.708 218.615 287.034C218.274 286.36 218.104 285.572 218.104 284.67C218.104 283.769 218.274 282.979 218.615 282.301C218.96 281.623 219.445 281.097 220.07 280.722C220.695 280.347 221.433 280.159 222.286 280.159C223.138 280.159 223.876 280.347 224.501 280.722C225.126 281.097 225.609 281.623 225.95 282.301C226.295 282.979 226.467 283.769 226.467 284.67C226.467 285.572 226.295 286.36 225.95 287.034C225.609 287.708 225.126 288.233 224.501 288.608C223.876 288.983 223.138 289.17 222.286 289.17ZM222.297 287.523C222.759 287.523 223.145 287.396 223.456 287.142C223.767 286.884 223.998 286.54 224.149 286.108C224.304 285.676 224.382 285.195 224.382 284.665C224.382 284.131 224.304 283.648 224.149 283.216C223.998 282.78 223.767 282.434 223.456 282.176C223.145 281.919 222.759 281.79 222.297 281.79C221.823 281.79 221.429 281.919 221.115 282.176C220.804 282.434 220.571 282.78 220.416 283.216C220.265 283.648 220.189 284.131 220.189 284.665C220.189 285.195 220.265 285.676 220.416 286.108C220.571 286.54 220.804 286.884 221.115 287.142C221.429 287.396 221.823 287.523 222.297 287.523ZM230.27 283.886V289H228.213V280.273H230.179V281.756H230.281C230.482 281.267 230.802 280.879 231.241 280.591C231.685 280.303 232.232 280.159 232.884 280.159C233.486 280.159 234.01 280.288 234.457 280.545C234.908 280.803 235.257 281.176 235.503 281.665C235.753 282.153 235.876 282.746 235.872 283.443V289H233.815V283.761C233.815 283.178 233.664 282.722 233.361 282.392C233.062 282.062 232.647 281.898 232.116 281.898C231.757 281.898 231.437 281.977 231.156 282.136C230.88 282.292 230.662 282.517 230.503 282.812C230.348 283.108 230.27 283.466 230.27 283.886ZM244.861 282.58L242.986 282.784C242.933 282.595 242.84 282.417 242.707 282.25C242.579 282.083 242.404 281.949 242.185 281.847C241.965 281.744 241.696 281.693 241.378 281.693C240.95 281.693 240.59 281.786 240.298 281.972C240.01 282.157 239.868 282.398 239.872 282.693C239.868 282.947 239.961 283.153 240.151 283.312C240.344 283.472 240.662 283.602 241.105 283.705L242.594 284.023C243.42 284.201 244.033 284.483 244.435 284.869C244.84 285.256 245.045 285.761 245.048 286.386C245.045 286.936 244.884 287.42 244.565 287.841C244.251 288.258 243.813 288.583 243.253 288.818C242.692 289.053 242.048 289.17 241.321 289.17C240.253 289.17 239.393 288.947 238.741 288.5C238.09 288.049 237.702 287.422 237.577 286.619L239.582 286.426C239.673 286.82 239.866 287.117 240.162 287.318C240.457 287.519 240.842 287.619 241.315 287.619C241.804 287.619 242.196 287.519 242.491 287.318C242.791 287.117 242.94 286.869 242.94 286.574C242.94 286.324 242.844 286.117 242.651 285.955C242.461 285.792 242.166 285.667 241.764 285.58L240.276 285.267C239.438 285.093 238.819 284.799 238.418 284.386C238.016 283.97 237.817 283.443 237.821 282.807C237.817 282.269 237.963 281.803 238.259 281.409C238.558 281.011 238.973 280.705 239.503 280.489C240.037 280.269 240.652 280.159 241.349 280.159C242.372 280.159 243.177 280.377 243.764 280.812C244.355 281.248 244.721 281.837 244.861 282.58Z" fill="#F5F5F5"/>
<g opacity="0.5">
<path d="M84 64.5C95.8741 64.5 105.5 74.1259 105.5 86C105.5 97.8741 95.8741 107.5 84 107.5C72.1259 107.5 62.5 97.8741 62.5 86C62.5 74.1259 72.1259 64.5 84 64.5Z" fill="#2C2C2C"/>
<path d="M84 64.5C95.8741 64.5 105.5 74.1259 105.5 86C105.5 97.8741 95.8741 107.5 84 107.5C72.1259 107.5 62.5 97.8741 62.5 86C62.5 74.1259 72.1259 64.5 84 64.5Z" stroke="#2C2C2C" stroke-linecap="round"/>
<path d="M91.5 93.5L87.875 89.875M83.1667 82.6667V87.6667M80.6667 85.1667H85.6667M89.8333 85.1667C89.8333 88.8486 86.8486 91.8333 83.1667 91.8333C79.4848 91.8333 76.5 88.8486 76.5 85.1667C76.5 81.4848 79.4848 78.5 83.1667 78.5C86.8486 78.5 89.8333 81.4848 89.8333 85.1667Z" stroke="#F5F5F5" stroke-width="2" stroke-linecap="round" stroke-linejoin="round"/>
</g>
<path d="M305.5 355.5L308.59 361.76L315.5 362.77L310.5 367.64L311.68 374.52L305.5 371.27L299.32 374.52L300.5 367.64L295.5 362.77L302.41 361.76L305.5 355.5Z" stroke="#2C2C2C" stroke-width="2.5" stroke-linecap="round" stroke-linejoin="round"/>
<path d="M282.92 390.754H281.06C281.007 390.449 280.909 390.179 280.767 389.943C280.624 389.705 280.447 389.502 280.235 389.337C280.023 389.171 279.781 389.047 279.509 388.964C279.241 388.878 278.951 388.835 278.639 388.835C278.086 388.835 277.595 388.974 277.168 389.252C276.74 389.527 276.405 389.932 276.163 390.465C275.921 390.996 275.8 391.643 275.8 392.409C275.8 393.188 275.921 393.844 276.163 394.378C276.409 394.908 276.743 395.309 277.168 395.581C277.595 395.849 278.084 395.984 278.634 395.984C278.939 395.984 279.224 395.944 279.489 395.864C279.758 395.781 279.998 395.661 280.21 395.501C280.426 395.342 280.606 395.147 280.752 394.915C280.901 394.683 281.004 394.418 281.06 394.119L282.92 394.129C282.85 394.613 282.699 395.067 282.467 395.491C282.239 395.916 281.939 396.29 281.567 396.615C281.196 396.937 280.762 397.188 280.265 397.371C279.768 397.55 279.216 397.639 278.609 397.639C277.714 397.639 276.916 397.432 276.213 397.018C275.51 396.603 274.957 396.005 274.552 395.223C274.148 394.441 273.946 393.503 273.946 392.409C273.946 391.312 274.15 390.374 274.557 389.595C274.965 388.813 275.52 388.215 276.223 387.8C276.926 387.386 277.721 387.179 278.609 387.179C279.176 387.179 279.703 387.259 280.19 387.418C280.677 387.577 281.112 387.81 281.493 388.119C281.874 388.424 282.187 388.798 282.432 389.242C282.681 389.683 282.843 390.187 282.92 390.754ZM287.86 397.649C287.114 397.649 286.468 397.485 285.921 397.157C285.374 396.829 284.95 396.37 284.649 395.78C284.35 395.19 284.201 394.5 284.201 393.712C284.201 392.923 284.35 392.232 284.649 391.638C284.95 391.045 285.374 390.585 285.921 390.256C286.468 389.928 287.114 389.764 287.86 389.764C288.606 389.764 289.252 389.928 289.799 390.256C290.346 390.585 290.769 391.045 291.067 391.638C291.368 392.232 291.519 392.923 291.519 393.712C291.519 394.5 291.368 395.19 291.067 395.78C290.769 396.37 290.346 396.829 289.799 397.157C289.252 397.485 288.606 397.649 287.86 397.649ZM287.87 396.207C288.274 396.207 288.613 396.096 288.884 395.874C289.156 395.649 289.358 395.347 289.491 394.969C289.627 394.592 289.695 394.171 289.695 393.707C289.695 393.239 289.627 392.817 289.491 392.439C289.358 392.058 289.156 391.754 288.884 391.529C288.613 391.304 288.274 391.191 287.87 391.191C287.456 391.191 287.111 391.304 286.836 391.529C286.564 391.754 286.36 392.058 286.225 392.439C286.092 392.817 286.026 393.239 286.026 393.707C286.026 394.171 286.092 394.592 286.225 394.969C286.36 395.347 286.564 395.649 286.836 395.874C287.111 396.096 287.456 396.207 287.87 396.207ZM293.047 397.5V389.864H294.767V391.161H294.856C295.016 390.724 295.279 390.382 295.647 390.137C296.015 389.888 296.454 389.764 296.964 389.764C297.481 389.764 297.917 389.89 298.272 390.142C298.63 390.391 298.882 390.73 299.028 391.161H299.107C299.276 390.737 299.561 390.399 299.962 390.147C300.367 389.892 300.846 389.764 301.399 389.764C302.102 389.764 302.675 389.986 303.119 390.43C303.563 390.875 303.785 391.522 303.785 392.374V397.5H301.981V392.653C301.981 392.179 301.855 391.832 301.603 391.614C301.351 391.392 301.043 391.281 300.678 391.281C300.244 391.281 299.904 391.416 299.659 391.688C299.417 391.957 299.296 392.306 299.296 392.737V397.5H297.531V392.578C297.531 392.184 297.412 391.869 297.173 391.634C296.938 391.398 296.63 391.281 296.248 391.281C295.99 391.281 295.755 391.347 295.543 391.479C295.33 391.609 295.161 391.793 295.035 392.031C294.909 392.267 294.847 392.542 294.847 392.857V397.5H293.047ZM305.611 400.364V389.864H307.381V391.126H307.486C307.578 390.941 307.709 390.744 307.878 390.535C308.047 390.323 308.276 390.142 308.564 389.993C308.853 389.84 309.221 389.764 309.668 389.764C310.258 389.764 310.79 389.915 311.264 390.217C311.741 390.515 312.119 390.957 312.397 391.544C312.679 392.127 312.82 392.843 312.82 393.692C312.82 394.53 312.682 395.243 312.407 395.83C312.132 396.416 311.758 396.864 311.284 397.172C310.81 397.48 310.273 397.634 309.673 397.634C309.236 397.634 308.873 397.561 308.584 397.415C308.296 397.27 308.064 397.094 307.888 396.888C307.716 396.68 307.582 396.482 307.486 396.297H307.411V400.364H305.611ZM307.376 393.682C307.376 394.176 307.446 394.608 307.585 394.979C307.727 395.351 307.931 395.641 308.196 395.849C308.465 396.055 308.79 396.158 309.171 396.158C309.569 396.158 309.902 396.052 310.17 395.839C310.439 395.624 310.641 395.331 310.777 394.96C310.916 394.585 310.986 394.159 310.986 393.682C310.986 393.208 310.918 392.787 310.782 392.419C310.646 392.051 310.444 391.763 310.175 391.554C309.907 391.345 309.572 391.241 309.171 391.241C308.786 391.241 308.46 391.342 308.191 391.544C307.923 391.746 307.719 392.03 307.58 392.394C307.444 392.759 307.376 393.188 307.376 393.682ZM316.559 397.654C316.075 397.654 315.639 397.568 315.251 397.396C314.867 397.22 314.562 396.961 314.336 396.62C314.114 396.279 314.003 395.858 314.003 395.357C314.003 394.926 314.083 394.57 314.242 394.288C314.401 394.007 314.618 393.781 314.893 393.612C315.168 393.443 315.478 393.316 315.823 393.229C316.171 393.14 316.531 393.075 316.902 393.036C317.349 392.989 317.712 392.948 317.991 392.911C318.269 392.871 318.471 392.812 318.597 392.732C318.726 392.649 318.791 392.522 318.791 392.349V392.32C318.791 391.945 318.68 391.655 318.458 391.45C318.236 391.244 317.916 391.141 317.498 391.141C317.057 391.141 316.708 391.237 316.449 391.43C316.194 391.622 316.022 391.849 315.932 392.111L314.252 391.872C314.384 391.408 314.603 391.02 314.908 390.709C315.213 390.394 315.586 390.159 316.027 390.003C316.468 389.844 316.955 389.764 317.488 389.764C317.856 389.764 318.223 389.807 318.587 389.893C318.952 389.98 319.285 390.122 319.586 390.321C319.888 390.517 320.13 390.783 320.312 391.121C320.498 391.46 320.591 391.882 320.591 392.389V397.5H318.861V396.451H318.801C318.691 396.663 318.537 396.862 318.339 397.048C318.143 397.23 317.896 397.377 317.598 397.49C317.303 397.599 316.956 397.654 316.559 397.654ZM317.026 396.332C317.387 396.332 317.7 396.26 317.966 396.118C318.231 395.972 318.435 395.78 318.577 395.541C318.723 395.303 318.796 395.042 318.796 394.761V393.861C318.74 393.907 318.643 393.95 318.508 393.99C318.375 394.03 318.226 394.065 318.06 394.094C317.894 394.124 317.73 394.151 317.568 394.174C317.406 394.197 317.265 394.217 317.145 394.234C316.877 394.27 316.637 394.33 316.424 394.413C316.212 394.496 316.045 394.612 315.922 394.761C315.8 394.906 315.738 395.095 315.738 395.327C315.738 395.659 315.859 395.909 316.101 396.078C316.343 396.247 316.651 396.332 317.026 396.332ZM324.2 393.026V397.5H322.4V389.864H324.12V391.161H324.21C324.386 390.734 324.666 390.394 325.05 390.142C325.438 389.89 325.917 389.764 326.487 389.764C327.014 389.764 327.473 389.877 327.864 390.102C328.258 390.328 328.563 390.654 328.779 391.082C328.998 391.509 329.105 392.028 329.102 392.638V397.5H327.302V392.916C327.302 392.406 327.17 392.006 326.905 391.718C326.643 391.43 326.28 391.286 325.816 391.286C325.501 391.286 325.221 391.355 324.976 391.494C324.734 391.63 324.543 391.827 324.404 392.086C324.268 392.344 324.2 392.658 324.2 393.026ZM331.777 400.364C331.531 400.364 331.304 400.344 331.096 400.304C330.89 400.268 330.726 400.224 330.603 400.175L331.021 398.773C331.283 398.849 331.517 398.885 331.722 398.882C331.928 398.879 332.108 398.814 332.264 398.688C332.423 398.566 332.557 398.36 332.667 398.072L332.821 397.659L330.052 389.864H331.961L333.721 395.631H333.8L335.565 389.864H337.479L334.422 398.425C334.279 398.829 334.09 399.175 333.855 399.464C333.62 399.755 333.331 399.978 332.99 400.13C332.652 400.286 332.247 400.364 331.777 400.364Z" fill="#2C2C2C"/>
<path d="M383.5 355.5L386.59 361.76L393.5 362.77L388.5 367.64L389.68 374.52L383.5 371.27L377.32 374.52L378.5 367.64L373.5 362.77L380.41 361.76L383.5 355.5Z" stroke="#757575" stroke-width="2.5" stroke-linecap="round" stroke-linejoin="round"/>
<path d="M355.349 397.5V387.318H359.167C359.949 387.318 360.606 387.464 361.136 387.756C361.67 388.047 362.072 388.448 362.344 388.959C362.619 389.466 362.757 390.043 362.757 390.689C362.757 391.342 362.619 391.922 362.344 392.429C362.069 392.936 361.663 393.335 361.126 393.627C360.589 393.915 359.928 394.06 359.142 394.06H356.612V392.543H358.894C359.351 392.543 359.726 392.464 360.017 392.305C360.309 392.146 360.524 391.927 360.664 391.648C360.806 391.37 360.877 391.05 360.877 390.689C360.877 390.328 360.806 390.009 360.664 389.734C360.524 389.459 360.307 389.246 360.012 389.093C359.721 388.937 359.344 388.859 358.884 388.859H357.193V397.5H355.349ZM364.279 397.5V389.864H366.024V391.136H366.104C366.243 390.696 366.482 390.356 366.82 390.117C367.161 389.875 367.551 389.754 367.988 389.754C368.087 389.754 368.198 389.759 368.321 389.769C368.447 389.776 368.551 389.787 368.634 389.804V391.46C368.558 391.433 368.437 391.41 368.271 391.39C368.109 391.367 367.952 391.355 367.799 391.355C367.471 391.355 367.176 391.426 366.914 391.569C366.656 391.708 366.452 391.902 366.303 392.151C366.153 392.399 366.079 392.686 366.079 393.011V397.5H364.279ZM372.847 397.649C372.101 397.649 371.454 397.485 370.908 397.157C370.361 396.829 369.936 396.37 369.635 395.78C369.337 395.19 369.187 394.5 369.187 393.712C369.187 392.923 369.337 392.232 369.635 391.638C369.936 391.045 370.361 390.585 370.908 390.256C371.454 389.928 372.101 389.764 372.847 389.764C373.592 389.764 374.239 389.928 374.785 390.256C375.332 390.585 375.755 391.045 376.053 391.638C376.355 392.232 376.506 392.923 376.506 393.712C376.506 394.5 376.355 395.19 376.053 395.78C375.755 396.37 375.332 396.829 374.785 397.157C374.239 397.485 373.592 397.649 372.847 397.649ZM372.856 396.207C373.261 396.207 373.599 396.096 373.871 395.874C374.142 395.649 374.345 395.347 374.477 394.969C374.613 394.592 374.681 394.171 374.681 393.707C374.681 393.239 374.613 392.817 374.477 392.439C374.345 392.058 374.142 391.754 373.871 391.529C373.599 391.304 373.261 391.191 372.856 391.191C372.442 391.191 372.097 391.304 371.822 391.529C371.551 391.754 371.347 392.058 371.211 392.439C371.078 392.817 371.012 393.239 371.012 393.707C371.012 394.171 371.078 394.592 371.211 394.969C371.347 395.347 371.551 395.649 371.822 395.874C372.097 396.096 372.442 396.207 372.856 396.207ZM378.033 389.864H379.833V397.938C379.833 398.488 379.728 398.942 379.52 399.3C379.311 399.658 379.009 399.924 378.615 400.1C378.22 400.276 377.741 400.364 377.178 400.364C377.112 400.364 377.05 400.362 376.994 400.359C376.938 400.359 376.876 400.357 376.81 400.354V398.887C376.86 398.89 376.905 398.892 376.944 398.892C376.984 398.895 377.026 398.897 377.069 398.897C377.413 398.897 377.66 398.813 377.809 398.643C377.959 398.478 378.033 398.234 378.033 397.913V389.864ZM378.928 388.78C378.64 388.78 378.393 388.685 378.187 388.496C377.985 388.304 377.884 388.074 377.884 387.805C377.884 387.534 377.985 387.303 378.187 387.114C378.393 386.922 378.64 386.826 378.928 386.826C379.213 386.826 379.457 386.922 379.659 387.114C379.864 387.303 379.967 387.534 379.967 387.805C379.967 388.074 379.864 388.304 379.659 388.496C379.457 388.685 379.213 388.78 378.928 388.78ZM385.064 397.649C384.299 397.649 383.637 397.49 383.081 397.172C382.527 396.85 382.101 396.396 381.803 395.81C381.505 395.22 381.355 394.525 381.355 393.727C381.355 392.941 381.505 392.252 381.803 391.658C382.104 391.062 382.525 390.598 383.066 390.266C383.606 389.932 384.241 389.764 384.97 389.764C385.44 389.764 385.884 389.84 386.302 389.993C386.723 390.142 387.094 390.374 387.416 390.689C387.741 391.004 387.996 391.405 388.181 391.892C388.367 392.376 388.46 392.953 388.46 393.622V394.174H382.201V392.961H386.735C386.731 392.616 386.657 392.31 386.511 392.041C386.365 391.769 386.161 391.556 385.899 391.4C385.641 391.244 385.339 391.166 384.995 391.166C384.627 391.166 384.304 391.256 384.025 391.435C383.747 391.61 383.53 391.842 383.374 392.131C383.221 392.416 383.143 392.729 383.14 393.07V394.129C383.14 394.573 383.221 394.955 383.384 395.273C383.546 395.588 383.773 395.83 384.065 395.999C384.357 396.164 384.698 396.247 385.089 396.247C385.351 396.247 385.588 396.211 385.8 396.138C386.012 396.062 386.196 395.951 386.352 395.805C386.508 395.659 386.625 395.478 386.705 395.263L388.385 395.452C388.279 395.896 388.077 396.284 387.779 396.615C387.484 396.943 387.106 397.198 386.645 397.381C386.184 397.56 385.657 397.649 385.064 397.649ZM393.313 397.649C392.551 397.649 391.896 397.482 391.35 397.147C390.806 396.812 390.387 396.35 390.092 395.76C389.8 395.167 389.654 394.484 389.654 393.712C389.654 392.936 389.803 392.252 390.102 391.658C390.4 391.062 390.821 390.598 391.364 390.266C391.911 389.932 392.558 389.764 393.303 389.764C393.923 389.764 394.472 389.879 394.949 390.107C395.43 390.333 395.812 390.652 396.097 391.067C396.382 391.478 396.545 391.958 396.585 392.509H394.864C394.795 392.141 394.629 391.834 394.367 391.589C394.109 391.34 393.762 391.216 393.328 391.216C392.96 391.216 392.637 391.315 392.359 391.514C392.08 391.71 391.863 391.991 391.707 392.359C391.555 392.727 391.479 393.168 391.479 393.682C391.479 394.202 391.555 394.65 391.707 395.024C391.86 395.395 392.074 395.682 392.349 395.884C392.627 396.083 392.954 396.183 393.328 396.183C393.593 396.183 393.83 396.133 394.039 396.033C394.251 395.931 394.429 395.783 394.571 395.591C394.714 395.399 394.811 395.165 394.864 394.89H396.585C396.542 395.43 396.382 395.909 396.107 396.327C395.832 396.741 395.458 397.066 394.984 397.301C394.51 397.533 393.953 397.649 393.313 397.649ZM401.876 389.864V391.256H397.486V389.864H401.876ZM398.57 388.034H400.369V395.203C400.369 395.445 400.406 395.631 400.479 395.76C400.555 395.886 400.654 395.972 400.777 396.018C400.9 396.065 401.035 396.088 401.185 396.088C401.297 396.088 401.4 396.08 401.493 396.063C401.589 396.047 401.662 396.032 401.712 396.018L402.015 397.425C401.919 397.459 401.781 397.495 401.602 397.535C401.427 397.575 401.211 397.598 400.956 397.604C400.505 397.618 400.099 397.55 399.738 397.401C399.377 397.248 399.09 397.013 398.878 396.695C398.669 396.376 398.566 395.979 398.57 395.501V388.034ZM410.975 387.318V397.5H409.13V389.113H409.071L406.689 390.634V388.944L409.22 387.318H410.975Z" fill="#757575"/>
<path d="M459.5 355.5L462.59 361.76L469.5 362.77L464.5 367.64L465.68 374.52L459.5 371.27L453.32 374.52L454.5 367.64L449.5 362.77L456.41 361.76L459.5 355.5Z" stroke="#757575" stroke-width="2.5" stroke-linecap="round" stroke-linejoin="round"/>
<path d="M430.365 397.5V387.318H434.183C434.965 387.318 435.621 387.464 436.152 387.756C436.685 388.047 437.088 388.448 437.36 388.959C437.635 389.466 437.772 390.043 437.772 390.689C437.772 391.342 437.635 391.922 437.36 392.429C437.085 392.936 436.679 393.335 436.142 393.627C435.605 393.915 434.943 394.06 434.158 394.06H431.627V392.543H433.909C434.367 392.543 434.741 392.464 435.033 392.305C435.325 392.146 435.54 391.927 435.679 391.648C435.822 391.37 435.893 391.05 435.893 390.689C435.893 390.328 435.822 390.009 435.679 389.734C435.54 389.459 435.323 389.246 435.028 389.093C434.736 388.937 434.36 388.859 433.899 388.859H432.209V397.5H430.365ZM439.295 397.5V389.864H441.04V391.136H441.119C441.259 390.696 441.497 390.356 441.835 390.117C442.177 389.875 442.566 389.754 443.004 389.754C443.103 389.754 443.214 389.759 443.337 389.769C443.463 389.776 443.567 389.787 443.65 389.804V391.46C443.574 391.433 443.453 391.41 443.287 391.39C443.125 391.367 442.967 391.355 442.815 391.355C442.487 391.355 442.192 391.426 441.93 391.569C441.671 391.708 441.467 391.902 441.318 392.151C441.169 392.399 441.095 392.686 441.095 393.011V397.5H439.295ZM447.862 397.649C447.116 397.649 446.47 397.485 445.923 397.157C445.376 396.829 444.952 396.37 444.65 395.78C444.352 395.19 444.203 394.5 444.203 393.712C444.203 392.923 444.352 392.232 444.65 391.638C444.952 391.045 445.376 390.585 445.923 390.256C446.47 389.928 447.116 389.764 447.862 389.764C448.608 389.764 449.254 389.928 449.801 390.256C450.348 390.585 450.771 391.045 451.069 391.638C451.37 392.232 451.521 392.923 451.521 393.712C451.521 394.5 451.37 395.19 451.069 395.78C450.771 396.37 450.348 396.829 449.801 397.157C449.254 397.485 448.608 397.649 447.862 397.649ZM447.872 396.207C448.276 396.207 448.614 396.096 448.886 395.874C449.158 395.649 449.36 395.347 449.493 394.969C449.629 394.592 449.697 394.171 449.697 393.707C449.697 393.239 449.629 392.817 449.493 392.439C449.36 392.058 449.158 391.754 448.886 391.529C448.614 391.304 448.276 391.191 447.872 391.191C447.458 391.191 447.113 391.304 446.838 391.529C446.566 391.754 446.362 392.058 446.226 392.439C446.094 392.817 446.028 393.239 446.028 393.707C446.028 394.171 446.094 394.592 446.226 394.969C446.362 395.347 446.566 395.649 446.838 395.874C447.113 396.096 447.458 396.207 447.872 396.207ZM453.049 389.864H454.848V397.938C454.848 398.488 454.744 398.942 454.535 399.3C454.326 399.658 454.025 399.924 453.63 400.1C453.236 400.276 452.757 400.364 452.194 400.364C452.127 400.364 452.066 400.362 452.01 400.359C451.953 400.359 451.892 400.357 451.826 400.354V398.887C451.875 398.89 451.92 398.892 451.96 398.892C452 398.895 452.041 398.897 452.084 398.897C452.429 398.897 452.676 398.813 452.825 398.643C452.974 398.478 453.049 398.234 453.049 397.913V389.864ZM453.944 388.78C453.655 388.78 453.408 388.685 453.203 388.496C453.001 388.304 452.9 388.074 452.9 387.805C452.9 387.534 453.001 387.303 453.203 387.114C453.408 386.922 453.655 386.826 453.944 386.826C454.229 386.826 454.472 386.922 454.674 387.114C454.88 387.303 454.983 387.534 454.983 387.805C454.983 388.074 454.88 388.304 454.674 388.496C454.472 388.685 454.229 388.78 453.944 388.78ZM460.08 397.649C459.314 397.649 458.653 397.49 458.096 397.172C457.543 396.85 457.117 396.396 456.818 395.81C456.52 395.22 456.371 394.525 456.371 393.727C456.371 392.941 456.52 392.252 456.818 391.658C457.12 391.062 457.541 390.598 458.081 390.266C458.621 389.932 459.256 389.764 459.985 389.764C460.456 389.764 460.9 389.84 461.318 389.993C461.739 390.142 462.11 390.374 462.431 390.689C462.756 391.004 463.011 391.405 463.197 391.892C463.383 392.376 463.475 392.953 463.475 393.622V394.174H457.216V392.961H461.75C461.747 392.616 461.672 392.31 461.527 392.041C461.381 391.769 461.177 391.556 460.915 391.4C460.657 391.244 460.355 391.166 460.01 391.166C459.642 391.166 459.319 391.256 459.041 391.435C458.762 391.61 458.545 391.842 458.389 392.131C458.237 392.416 458.159 392.729 458.156 393.07V394.129C458.156 394.573 458.237 394.955 458.399 395.273C458.562 395.588 458.789 395.83 459.081 395.999C459.372 396.164 459.714 396.247 460.105 396.247C460.367 396.247 460.603 396.211 460.816 396.138C461.028 396.062 461.212 395.951 461.367 395.805C461.523 395.659 461.641 395.478 461.72 395.263L463.401 395.452C463.295 395.896 463.093 396.284 462.794 396.615C462.499 396.943 462.121 397.198 461.661 397.381C461.2 397.56 460.673 397.649 460.08 397.649ZM468.329 397.649C467.567 397.649 466.912 397.482 466.365 397.147C465.822 396.812 465.402 396.35 465.107 395.76C464.816 395.167 464.67 394.484 464.67 393.712C464.67 392.936 464.819 392.252 465.117 391.658C465.416 391.062 465.836 390.598 466.38 390.266C466.927 389.932 467.573 389.764 468.319 389.764C468.939 389.764 469.487 389.879 469.965 390.107C470.445 390.333 470.828 390.652 471.113 391.067C471.398 391.478 471.56 391.958 471.6 392.509H469.88C469.81 392.141 469.645 391.834 469.383 391.589C469.124 391.34 468.778 391.216 468.344 391.216C467.976 391.216 467.653 391.315 467.374 391.514C467.096 391.71 466.879 391.991 466.723 392.359C466.571 392.727 466.494 393.168 466.494 393.682C466.494 394.202 466.571 394.65 466.723 395.024C466.876 395.395 467.089 395.682 467.364 395.884C467.643 396.083 467.969 396.183 468.344 396.183C468.609 396.183 468.846 396.133 469.055 396.033C469.267 395.931 469.444 395.783 469.587 395.591C469.729 395.399 469.827 395.165 469.88 394.89H471.6C471.557 395.43 471.398 395.909 471.123 396.327C470.848 396.741 470.473 397.066 469.999 397.301C469.525 397.533 468.969 397.649 468.329 397.649ZM476.891 389.864V391.256H472.501V389.864H476.891ZM473.585 388.034H475.385V395.203C475.385 395.445 475.421 395.631 475.494 395.76C475.57 395.886 475.67 395.972 475.793 396.018C475.915 396.065 476.051 396.088 476.2 396.088C476.313 396.088 476.416 396.08 476.508 396.063C476.605 396.047 476.677 396.032 476.727 396.018L477.03 397.425C476.934 397.459 476.797 397.495 476.618 397.535C476.442 397.575 476.227 397.598 475.972 397.604C475.521 397.618 475.115 397.55 474.753 397.401C474.392 397.248 474.105 397.013 473.893 396.695C473.685 396.376 473.582 395.979 473.585 395.501V388.034ZM481.849 397.5V396.168L485.384 392.702C485.722 392.361 486.004 392.058 486.229 391.793C486.455 391.527 486.624 391.271 486.736 391.022C486.849 390.773 486.905 390.508 486.905 390.227C486.905 389.905 486.832 389.63 486.687 389.401C486.541 389.169 486.34 388.99 486.085 388.864C485.83 388.738 485.54 388.675 485.215 388.675C484.88 388.675 484.587 388.745 484.335 388.884C484.083 389.02 483.888 389.214 483.748 389.466C483.612 389.718 483.544 390.018 483.544 390.366H481.79C481.79 389.719 481.937 389.158 482.232 388.68C482.527 388.203 482.933 387.834 483.45 387.572C483.97 387.31 484.567 387.179 485.24 387.179C485.923 387.179 486.522 387.307 487.04 387.562C487.557 387.817 487.958 388.167 488.243 388.611C488.531 389.055 488.675 389.562 488.675 390.132C488.675 390.513 488.602 390.888 488.456 391.256C488.311 391.624 488.054 392.031 487.686 392.479C487.321 392.926 486.809 393.468 486.15 394.104L484.395 395.889V395.959H488.829V397.5H481.849Z" fill="#757575"/>
<path d="M536.5 355.5L539.59 361.76L546.5 362.77L541.5 367.64L542.68 374.52L536.5 371.27L530.32 374.52L531.5 367.64L526.5 362.77L533.41 361.76L536.5 355.5Z" stroke="#757575" stroke-width="2.5" stroke-linecap="round" stroke-linejoin="round"/>
<path d="M507.153 397.5V387.318H510.971C511.753 387.318 512.409 387.464 512.94 387.756C513.473 388.047 513.876 388.448 514.148 388.959C514.423 389.466 514.56 390.043 514.56 390.689C514.56 391.342 514.423 391.922 514.148 392.429C513.873 392.936 513.467 393.335 512.93 393.627C512.393 393.915 511.732 394.06 510.946 394.06H508.415V392.543H510.697C511.155 392.543 511.529 392.464 511.821 392.305C512.113 392.146 512.328 391.927 512.467 391.648C512.61 391.37 512.681 391.05 512.681 390.689C512.681 390.328 512.61 390.009 512.467 389.734C512.328 389.459 512.111 389.246 511.816 389.093C511.524 388.937 511.148 388.859 510.688 388.859H508.997V397.5H507.153ZM516.083 397.5V389.864H517.828V391.136H517.907C518.047 390.696 518.285 390.356 518.623 390.117C518.965 389.875 519.354 389.754 519.792 389.754C519.891 389.754 520.002 389.759 520.125 389.769C520.251 389.776 520.355 389.787 520.438 389.804V391.46C520.362 391.433 520.241 391.41 520.075 391.39C519.913 391.367 519.755 391.355 519.603 391.355C519.275 391.355 518.98 391.426 518.718 391.569C518.459 391.708 518.256 391.902 518.106 392.151C517.957 392.399 517.883 392.686 517.883 393.011V397.5H516.083ZM524.65 397.649C523.904 397.649 523.258 397.485 522.711 397.157C522.164 396.829 521.74 396.37 521.439 395.78C521.14 395.19 520.991 394.5 520.991 393.712C520.991 392.923 521.14 392.232 521.439 391.638C521.74 391.045 522.164 390.585 522.711 390.256C523.258 389.928 523.904 389.764 524.65 389.764C525.396 389.764 526.042 389.928 526.589 390.256C527.136 390.585 527.559 391.045 527.857 391.638C528.158 392.232 528.309 392.923 528.309 393.712C528.309 394.5 528.158 395.19 527.857 395.78C527.559 396.37 527.136 396.829 526.589 397.157C526.042 397.485 525.396 397.649 524.65 397.649ZM524.66 396.207C525.065 396.207 525.403 396.096 525.674 395.874C525.946 395.649 526.148 395.347 526.281 394.969C526.417 394.592 526.485 394.171 526.485 393.707C526.485 393.239 526.417 392.817 526.281 392.439C526.148 392.058 525.946 391.754 525.674 391.529C525.403 391.304 525.065 391.191 524.66 391.191C524.246 391.191 523.901 391.304 523.626 391.529C523.354 391.754 523.15 392.058 523.015 392.439C522.882 392.817 522.816 393.239 522.816 393.707C522.816 394.171 522.882 394.592 523.015 394.969C523.15 395.347 523.354 395.649 523.626 395.874C523.901 396.096 524.246 396.207 524.66 396.207ZM529.837 389.864H531.637V397.938C531.637 398.488 531.532 398.942 531.323 399.3C531.115 399.658 530.813 399.924 530.419 400.1C530.024 400.276 529.545 400.364 528.982 400.364C528.915 400.364 528.854 400.362 528.798 400.359C528.741 400.359 528.68 400.357 528.614 400.354V398.887C528.664 398.89 528.708 398.892 528.748 398.892C528.788 398.895 528.829 398.897 528.872 398.897C529.217 398.897 529.464 398.813 529.613 398.643C529.762 398.478 529.837 398.234 529.837 397.913V389.864ZM530.732 388.78C530.443 388.78 530.196 388.685 529.991 388.496C529.789 388.304 529.688 388.074 529.688 387.805C529.688 387.534 529.789 387.303 529.991 387.114C530.196 386.922 530.443 386.826 530.732 386.826C531.017 386.826 531.26 386.922 531.463 387.114C531.668 387.303 531.771 387.534 531.771 387.805C531.771 388.074 531.668 388.304 531.463 388.496C531.26 388.685 531.017 388.78 530.732 388.78ZM536.868 397.649C536.102 397.649 535.441 397.49 534.884 397.172C534.331 396.85 533.905 396.396 533.607 395.81C533.308 395.22 533.159 394.525 533.159 393.727C533.159 392.941 533.308 392.252 533.607 391.658C533.908 391.062 534.329 390.598 534.869 390.266C535.41 389.932 536.044 389.764 536.773 389.764C537.244 389.764 537.688 389.84 538.106 389.993C538.527 390.142 538.898 390.374 539.219 390.689C539.544 391.004 539.799 391.405 539.985 391.892C540.171 392.376 540.263 392.953 540.263 393.622V394.174H534.004V392.961H538.538C538.535 392.616 538.46 392.31 538.315 392.041C538.169 391.769 537.965 391.556 537.703 391.4C537.445 391.244 537.143 391.166 536.798 391.166C536.43 391.166 536.107 391.256 535.829 391.435C535.55 391.61 535.333 391.842 535.178 392.131C535.025 392.416 534.947 392.729 534.944 393.07V394.129C534.944 394.573 535.025 394.955 535.188 395.273C535.35 395.588 535.577 395.83 535.869 395.999C536.16 396.164 536.502 396.247 536.893 396.247C537.155 396.247 537.392 396.211 537.604 396.138C537.816 396.062 538 395.951 538.156 395.805C538.311 395.659 538.429 395.478 538.509 395.263L540.189 395.452C540.083 395.896 539.881 396.284 539.582 396.615C539.287 396.943 538.91 397.198 538.449 397.381C537.988 397.56 537.461 397.649 536.868 397.649ZM545.117 397.649C544.355 397.649 543.7 397.482 543.153 397.147C542.61 396.812 542.19 396.35 541.895 395.76C541.604 395.167 541.458 394.484 541.458 393.712C541.458 392.936 541.607 392.252 541.905 391.658C542.204 391.062 542.625 390.598 543.168 390.266C543.715 389.932 544.361 389.764 545.107 389.764C545.727 389.764 546.275 389.879 546.753 390.107C547.233 390.333 547.616 390.652 547.901 391.067C548.186 391.478 548.349 391.958 548.388 392.509H546.668C546.599 392.141 546.433 391.834 546.171 391.589C545.912 391.34 545.566 391.216 545.132 391.216C544.764 391.216 544.441 391.315 544.162 391.514C543.884 391.71 543.667 391.991 543.511 392.359C543.359 392.727 543.282 393.168 543.282 393.682C543.282 394.202 543.359 394.65 543.511 395.024C543.664 395.395 543.877 395.682 544.153 395.884C544.431 396.083 544.757 396.183 545.132 396.183C545.397 396.183 545.634 396.133 545.843 396.033C546.055 395.931 546.232 395.783 546.375 395.591C546.517 395.399 546.615 395.165 546.668 394.89H548.388C548.345 395.43 548.186 395.909 547.911 396.327C547.636 396.741 547.261 397.066 546.787 397.301C546.314 397.533 545.757 397.649 545.117 397.649ZM553.679 389.864V391.256H549.289V389.864H553.679ZM550.373 388.034H552.173V395.203C552.173 395.445 552.209 395.631 552.282 395.76C552.359 395.886 552.458 395.972 552.581 396.018C552.703 396.065 552.839 396.088 552.988 396.088C553.101 396.088 553.204 396.08 553.297 396.063C553.393 396.047 553.466 396.032 553.515 396.018L553.819 397.425C553.722 397.459 553.585 397.495 553.406 397.535C553.23 397.575 553.015 397.598 552.76 397.604C552.309 397.618 551.903 397.55 551.542 397.401C551.18 397.248 550.894 397.013 550.681 396.695C550.473 396.376 550.37 395.979 550.373 395.501V388.034ZM562.291 397.639C561.575 397.639 560.939 397.517 560.382 397.271C559.829 397.026 559.391 396.685 559.07 396.247C558.748 395.81 558.578 395.304 558.558 394.731H560.427C560.444 395.006 560.535 395.246 560.7 395.452C560.866 395.654 561.087 395.811 561.362 395.924C561.637 396.037 561.945 396.093 562.286 396.093C562.651 396.093 562.974 396.03 563.256 395.904C563.538 395.775 563.758 395.596 563.917 395.367C564.076 395.138 564.154 394.875 564.151 394.577C564.154 394.268 564.075 393.997 563.912 393.761C563.75 393.526 563.514 393.342 563.206 393.21C562.901 393.077 562.533 393.011 562.102 393.011H561.203V391.589H562.102C562.457 391.589 562.767 391.527 563.032 391.405C563.301 391.282 563.511 391.11 563.664 390.888C563.816 390.662 563.891 390.402 563.887 390.107C563.891 389.819 563.826 389.569 563.693 389.357C563.564 389.141 563.38 388.974 563.142 388.854C562.906 388.735 562.629 388.675 562.311 388.675C562 388.675 561.711 388.732 561.446 388.844C561.181 388.957 560.967 389.118 560.805 389.327C560.642 389.532 560.556 389.777 560.546 390.062H558.771C558.785 389.492 558.949 388.992 559.264 388.561C559.582 388.127 560.006 387.789 560.536 387.547C561.067 387.302 561.662 387.179 562.321 387.179C563.001 387.179 563.591 387.307 564.091 387.562C564.595 387.814 564.984 388.153 565.259 388.581C565.535 389.009 565.672 389.481 565.672 389.998C565.675 390.571 565.506 391.052 565.165 391.44C564.827 391.827 564.383 392.081 563.833 392.2V392.28C564.548 392.379 565.097 392.644 565.478 393.075C565.863 393.503 566.053 394.035 566.05 394.671C566.05 395.241 565.887 395.752 565.563 396.202C565.241 396.65 564.797 397.001 564.23 397.256C563.667 397.512 563.021 397.639 562.291 397.639Z" fill="#757575"/>
</svg>
